<svg xmlns="http://www.w3.org/2000/svg" viewBox="0 0 149.86 94.82"><defs><style>.cls-1{fill:#1d996c;}.cls-1,.cls-2,.cls-3,.cls-4,.cls-5,.cls-6{stroke:#231f20;stroke-width:0.25px;}.cls-1,.cls-2,.cls-3,.cls-4,.cls-5{stroke-miterlimit:10;}.cls-2{fill:#0988ae;}.cls-3{fill:#57bf99;}.cls-4{fill:#29aae1;}.cls-5{fill:#b69e30;}.cls-6{fill:#fbed19;stroke-linecap:round;stroke-linejoin:round;}</style></defs><title>application</title><g id="Layer_2" data-name="Layer 2"><g id="Layer_1-2" data-name="Layer 1"><path class="cls-1" d="M3.24,22.27H149.73V82.93A11.8,11.8,0,0,1,138,94.7H15A11.81,11.81,0,0,1,3.24,82.93Z"/><path class="cls-2" d="M138,3.24H15A11.81,11.81,0,0,0,3.24,15v5.4H149.73V15A11.8,11.8,0,0,0,138,3.24Zm-17.17,9.6a2.45,2.45,0,0,1-2.44,2.44h-2a2.44,2.44,0,0,1-2.44-2.44v-2a2.44,2.44,0,0,1,2.44-2.44h2a2.44,2.44,0,0,1,2.44,2.44Zm11,0a2.45,2.45,0,0,1-2.45,2.44h-2a2.45,2.45,0,0,1-2.44-2.44v-2a2.44,2.44,0,0,1,2.44-2.44h2a2.44,2.44,0,0,1,2.45,2.44Zm11,0a2.44,2.44,0,0,1-2.43,2.44h-2a2.44,2.44,0,0,1-2.44-2.44v-2a2.44,2.44,0,0,1,2.44-2.44h2a2.43,2.43,0,0,1,2.43,2.44Z"/><path class="cls-3" d="M.12,19.15H146.61V79.81a11.8,11.8,0,0,1-11.77,11.77H11.89A11.81,11.81,0,0,1,.12,79.81Z"/><path class="cls-4" d="M134.84.12H11.89A11.81,11.81,0,0,0,.12,11.89v5.4H146.61v-5.4A11.8,11.8,0,0,0,134.84.12Zm-17.17,9.6a2.45,2.45,0,0,1-2.44,2.44h-2a2.44,2.44,0,0,1-2.44-2.44v-2a2.44,2.44,0,0,1,2.44-2.44h2a2.44,2.44,0,0,1,2.44,2.44Zm11,0a2.45,2.45,0,0,1-2.45,2.44h-2a2.45,2.45,0,0,1-2.44-2.44v-2a2.44,2.44,0,0,1,2.44-2.44h2a2.44,2.44,0,0,1,2.45,2.44Zm11,0a2.44,2.44,0,0,1-2.43,2.44h-2a2.44,2.44,0,0,1-2.44-2.44v-2a2.44,2.44,0,0,1,2.44-2.44h2a2.43,2.43,0,0,1,2.43,2.44Z"/><path class="cls-5" d="M59.42,47.89v-.56l-.36.11L35.82,56.89l-.16.11v.34l.16.11L59.06,66.9l.36.11v-.56l-.16-.12L36.64,57.16,59.26,48Z"/><path class="cls-5" d="M59.42,68.29a1.57,1.57,0,0,1-.37-.05l-.36-.11-.12,0L35.33,58.64a1.16,1.16,0,0,1-.24-.14l-.16-.1a1.28,1.28,0,0,1-.55-1.06V57a1.27,1.27,0,0,1,.55-1.06l.16-.11a1.12,1.12,0,0,1,.24-.13l23.24-9.45.12,0,.36-.11a1.26,1.26,0,0,1,1.14.2,1.28,1.28,0,0,1,.51,1v.56a1.31,1.31,0,0,1-.51,1L60,49a1,1,0,0,1-.29.16l-19.68,8,19.68,8a1.05,1.05,0,0,1,.29.17l.16.11a1.31,1.31,0,0,1,.51,1V67a1.3,1.3,0,0,1-.51,1A1.36,1.36,0,0,1,59.42,68.29Z"/><polygon class="cls-5" points="79.92 38.04 79.82 38.44 66.9 76.18 66.8 76.34 66.28 76.34 66.39 75.95 79.3 38.22 79.41 38.04 79.92 38.04"/><path class="cls-5" d="M66.8,77.63h-.52a1.29,1.29,0,0,1-1-.51A1.28,1.28,0,0,1,65.05,76l.1-.39L78.08,37.8a1.15,1.15,0,0,1,.12-.25l.11-.18a1.28,1.28,0,0,1,1.09-.61h.52a1.27,1.27,0,0,1,1,.5,1.25,1.25,0,0,1,.22,1.12l-.1.4L68.12,76.59a2.56,2.56,0,0,1-.11.24l-.1.16A1.27,1.27,0,0,1,66.8,77.63Z"/><polygon class="cls-5" points="110.55 57 110.55 57.34 110.39 57.45 87.15 66.9 86.79 67.01 86.79 66.45 86.95 66.33 109.57 57.16 86.95 48 86.79 47.89 86.79 47.33 87.15 47.44 110.39 56.89 110.55 57"/><path class="cls-5" d="M86.79,68.29A1.36,1.36,0,0,1,86,68a1.3,1.3,0,0,1-.51-1v-.56a1.31,1.31,0,0,1,.51-1l.16-.11a1,1,0,0,1,.28-.17l19.69-8-19.69-8a1.12,1.12,0,0,1-.28-.16L86,48.92a1.31,1.31,0,0,1-.51-1v-.56a1.28,1.28,0,0,1,1.65-1.23l.36.11.12,0,23.24,9.45a1.41,1.41,0,0,1,.24.13l.16.11a1.27,1.27,0,0,1,.55,1.06v.34a1.28,1.28,0,0,1-.55,1.06l-.16.1a1.49,1.49,0,0,1-.24.14L87.64,68.09l-.12,0-.36.11A1.57,1.57,0,0,1,86.79,68.29Z"/><path class="cls-6" d="M58.11,46.41v-.56l-.36.11L34.51,55.42l-.16.1v.35l.16.1,23.24,9.46.36.11V65L58,64.86,35.33,55.69,58,46.53Z"/><path class="cls-6" d="M58.11,66.82a1.49,1.49,0,0,1-.36,0l-.37-.11-.11,0L34,57.16a1.19,1.19,0,0,1-.25-.13l-.16-.11a1.29,1.29,0,0,1-.55-1.05v-.35a1.29,1.29,0,0,1,.55-1.05l.16-.11a1.19,1.19,0,0,1,.25-.13l23.24-9.46.11,0,.37-.11a1.3,1.3,0,0,1,1.65,1.23v.56a1.29,1.29,0,0,1-.52,1l-.16.12a1.56,1.56,0,0,1-.28.16l-19.69,8,19.69,8a1.64,1.64,0,0,1,.29.16l.15.12a1.27,1.27,0,0,1,.52,1v.56a1.3,1.3,0,0,1-1.29,1.28Z"/><polygon class="cls-6" points="78.62 36.57 78.51 36.97 65.59 74.7 65.5 74.87 64.98 74.87 65.08 74.48 77.99 36.74 78.1 36.57 78.62 36.57"/><path class="cls-6" d="M65.5,76.15H65a1.27,1.27,0,0,1-1-.5,1.25,1.25,0,0,1-.22-1.12l.11-.39L76.78,36.33c0-.09.07-.17.11-.26L77,35.9a1.31,1.31,0,0,1,1.1-.62h.52a1.29,1.29,0,0,1,1.24,1.62l-.11.4L66.81,75.12a1,1,0,0,1-.11.23l-.1.17A1.28,1.28,0,0,1,65.5,76.15Z"/><polygon class="cls-6" points="109.24 55.52 109.24 55.87 109.08 55.97 85.84 65.43 85.48 65.53 85.48 64.98 85.64 64.86 108.26 55.69 85.64 46.53 85.48 46.41 85.48 45.85 85.84 45.96 109.08 55.41 109.24 55.52"/><path class="cls-6" d="M85.48,66.82a1.3,1.3,0,0,1-.77-.26,1.28,1.28,0,0,1-.51-1V65a1.28,1.28,0,0,1,.51-1l.16-.12a1.35,1.35,0,0,1,.29-.16l19.68-8-19.68-8a1.64,1.64,0,0,1-.29-.16l-.15-.12a1.27,1.27,0,0,1-.52-1v-.56a1.28,1.28,0,0,1,.51-1,1.3,1.3,0,0,1,1.14-.21l.36.11.12,0,23.24,9.46a.92.92,0,0,1,.24.13l.16.11a1.27,1.27,0,0,1,.56,1.05v.35a1.27,1.27,0,0,1-.56,1.05l-.16.11a.92.92,0,0,1-.24.13L86.33,66.62l-.12,0-.36.11A1.57,1.57,0,0,1,85.48,66.82Z"/></g></g></svg>