<svg xmlns="http://www.w3.org/2000/svg" viewBox="0 0 161.77 189.91"><defs><style>.cls-1{fill:#1c996a;}.cls-1,.cls-2,.cls-3,.cls-4,.cls-5,.cls-6{stroke:#231f20;stroke-miterlimit:10;stroke-width:0.25px;}.cls-2{fill:#0288ad;}.cls-3{fill:#b89f31;}.cls-4{fill:#57bf9b;}.cls-5{fill:#29abe2;}.cls-6{fill:#fcee1f;}</style></defs><title>cocreation</title><g id="Layer_2" data-name="Layer 2"><g id="Layer_1-2" data-name="Layer 1"><path class="cls-1" d="M82.32,85.91a22.56,22.56,0,0,0-18.91,34.88L63,122.22,65.92,124a19.72,19.72,0,0,1,30.24-3l-.37,1.24L98.73,124A22.58,22.58,0,0,0,82.32,85.91Zm0,26.81a8.57,8.57,0,1,1,8.57-8.58A8.57,8.57,0,0,1,82.32,112.72Z"/><path class="cls-1" d="M82.32,151.66a22.58,22.58,0,0,0-19,34.76L63,188l2.93,1.78a19.73,19.73,0,0,1,30.46-2.82l-.52,1,2.87,1.78a22.57,22.57,0,0,0-16.41-38.08Zm0,26.8a8.57,8.57,0,1,1,8.57-8.56A8.57,8.57,0,0,1,82.32,178.46Z"/><path class="cls-1" d="M25.58,151.66a22.56,22.56,0,0,0-18.85,35L6.28,188l2.9,1.71a19.74,19.74,0,0,1,30.47-2.82l-.58,1L42,189.74a22.57,22.57,0,0,0-16.41-38.08Zm0,26.8a8.57,8.57,0,1,1,8.57-8.56A8.57,8.57,0,0,1,25.58,178.46Z"/><path class="cls-1" d="M139.06,151.66a22.55,22.55,0,0,0-18.69,35.19l-.6,1.15,2.89,1.74a19.74,19.74,0,0,1,30.41-2.88l-.5,1.14,2.9,1.74a22.57,22.57,0,0,0-16.41-38.08Zm0,26.8a8.57,8.57,0,1,1,8.57-8.56A8.57,8.57,0,0,1,139.06,178.46Z"/><path class="cls-2" d="M110.61,12.36A20.5,20.5,0,0,0,101,14.75,17.22,17.22,0,0,0,85.33,4.4a17,17,0,0,0-13,6.13A19,19,0,0,0,56.42,1.86c-10.62,0-19.24,8.93-19.24,20A20.43,20.43,0,0,0,38.48,29a17.44,17.44,0,0,0-8.82,15.28c0,9.6,7.51,17.38,16.76,17.38a17.18,17.18,0,0,0,4.13-.52A18.28,18.28,0,0,0,67.68,73.59a17.4,17.4,0,0,0,8-1.94,18.36,18.36,0,0,0,5.51-4.32,19.09,19.09,0,0,0,3.2-5.13.46.46,0,0,0,.16.07,15.59,15.59,0,0,0,6.64,1.43,4.36,4.36,0,0,0,.63,0,16.66,16.66,0,0,0,13.6-8.15,20.92,20.92,0,0,0,5.17.65c11.67,0,21.13-9.8,21.13-21.91S122.28,12.36,110.61,12.36ZM97.2,52.86a1.76,1.76,0,0,1-2.58.06S82,58.87,81.7,60.26c-.3,1.23-2.07,5.16-3.36,5.34C76.47,65.86,58.72,55,58.72,55c-.36.36,17.59-35.83,21.19-25.8C80.06,29.61,97.9,52.1,97.2,52.86Z"/><path class="cls-3" d="M133.68,135.67H84.33V120.4a1.72,1.72,0,0,0-1-1.55h0l-2.66-1.59.42,2.36a1.75,1.75,0,0,0-.21.79v15.27H32.38A7.38,7.38,0,0,0,25,143v1.34l-.68-.31-1.2,2,2.8,1.69v0a1.64,1.64,0,0,0,.79.22,1.72,1.72,0,0,0,1.72-1.73V143a4,4,0,0,1,3.94-3.94H80.9v6.09l-2,1.23,2.74,1.63,0,0a1.6,1.6,0,0,0,1,.35,1.72,1.72,0,0,0,1.71-1.72V139.1h49.35a4,4,0,0,1,3.94,3.94v1.84l-.12,0-1.87,1.1,2.69,1.61v0a1.67,1.67,0,0,0,1,.37,1.72,1.72,0,0,0,1.73-1.73V143A7.39,7.39,0,0,0,133.68,135.67Z"/><path class="cls-3" d="M84,61.41c-1.83-1.13-2-2.36-2.85.43V79.68l-1.77.52-.45.68,3.21,1.94v0a1.47,1.47,0,0,0,.69.17,1.71,1.71,0,0,0,1.68-1.76V61.54A4.23,4.23,0,0,1,84,61.41Z"/><path class="cls-4" d="M79.45,84.09A22.58,22.58,0,0,0,63,122.17a19.79,19.79,0,0,1,32.82,0A22.57,22.57,0,0,0,79.45,84.09Zm0,26.81A8.57,8.57,0,1,1,88,102.33,8.57,8.57,0,0,1,79.45,110.9Z"/><path class="cls-4" d="M79.44,149.94A22.58,22.58,0,0,0,63,188a19.79,19.79,0,0,1,32.82,0,22.57,22.57,0,0,0-16.41-38.08Zm0,26.81A8.57,8.57,0,1,1,88,168.18,8.57,8.57,0,0,1,79.44,176.75Z"/><path class="cls-4" d="M22.7,149.94A22.57,22.57,0,0,0,6.29,188a19.79,19.79,0,0,1,32.82,0A22.57,22.57,0,0,0,22.7,149.94Zm0,26.81a8.57,8.57,0,1,1,8.57-8.57A8.57,8.57,0,0,1,22.7,176.75Z"/><path class="cls-4" d="M136.18,149.94A22.58,22.58,0,0,0,119.77,188a19.79,19.79,0,0,1,32.82,0,22.57,22.57,0,0,0-16.41-38.08Zm0,26.81a8.57,8.57,0,1,1,8.57-8.57A8.57,8.57,0,0,1,136.18,176.75Z"/><path class="cls-5" d="M128.76,32.52c0,12.12-9.45,21.91-21.13,21.91a20.86,20.86,0,0,1-5.17-.65A16.67,16.67,0,0,1,88.23,62a15.74,15.74,0,0,1-6.64-1.43V40.92l10,10.26a1.78,1.78,0,0,0,2.59,0,2,2,0,0,0,0-2.7l-13-13.27a1.74,1.74,0,0,0-2.52,0l-13,13.27a2,2,0,0,0,0,2.7,1.69,1.69,0,0,0,1.3.58,1.75,1.75,0,0,0,1.27-.53L78.24,40.92V65.59a17.85,17.85,0,0,1-13.55,6.26A18.27,18.27,0,0,1,47.57,59.44a16.63,16.63,0,0,1-4.13.52c-9.26,0-16.76-7.77-16.76-17.37A17.46,17.46,0,0,1,35.5,27.3a20.25,20.25,0,0,1-1.3-7.22c0-11,8.62-20,19.24-20A19,19,0,0,1,69.31,8.79a17,17,0,0,1,13-6.13A17.23,17.23,0,0,1,98,13a20.5,20.5,0,0,1,9.63-2.39C119.31,10.63,128.76,20.44,128.76,32.52Z"/><path class="cls-6" d="M138.22,141.27v3.16a1.73,1.73,0,1,1-3.46,0v-3.16a4,4,0,0,0-3.94-3.94H81.48v7.55a1.72,1.72,0,0,1-3.44,0v-7.55H29.52a4,4,0,0,0-3.94,3.94v3.16a1.72,1.72,0,1,1-3.44,0v-3.16a7.39,7.39,0,0,1,7.38-7.38H78V118.62a1.72,1.72,0,0,1,3.44,0v15.27h49.34A7.4,7.4,0,0,1,138.22,141.27Z"/><path class="cls-6" d="M81.61,60.54V79.49a1.68,1.68,0,1,1-3.35,0V65.6a18.7,18.7,0,0,0,3.19-5.12A.44.44,0,0,0,81.61,60.54Z"/></g></g></svg>