<svg xmlns="http://www.w3.org/2000/svg" viewBox="0 0 907.43 669"><defs><style>.cls-1{fill:#fff;}.cls-2{fill:#58be98;}.cls-3{fill:#62cdf6;}.cls-4{font-size:17px;font-family:Raleway-Light, Raleway;}.cls-4,.cls-43{fill:#231f20;}.cls-5{letter-spacing:-0.06em;}.cls-6{letter-spacing:-0.03em;}.cls-7{letter-spacing:-0.02em;}.cls-8{letter-spacing:-0.03em;}.cls-9{letter-spacing:0em;}.cls-10{letter-spacing:-0.01em;}.cls-11{letter-spacing:-0.01em;}.cls-12{letter-spacing:-0.02em;}.cls-13{letter-spacing:-0.03em;}.cls-14{letter-spacing:-0.02em;}.cls-15{letter-spacing:-0.01em;}.cls-16{letter-spacing:0em;}.cls-17{letter-spacing:-0.02em;}.cls-18{letter-spacing:-0.01em;}.cls-19{letter-spacing:0em;}.cls-20{letter-spacing:0em;}.cls-21{letter-spacing:-0.03em;}.cls-22{letter-spacing:0em;}.cls-23{letter-spacing:0em;}.cls-24{letter-spacing:0em;}.cls-25{letter-spacing:0em;}.cls-26{letter-spacing:-0.01em;}.cls-27{letter-spacing:-0.03em;}.cls-28{letter-spacing:-0.01em;}.cls-29{letter-spacing:-0.05em;}.cls-30{letter-spacing:-0.02em;}.cls-31{letter-spacing:-0.02em;}.cls-32{letter-spacing:-0.01em;}.cls-33{letter-spacing:-0.01em;}.cls-34{letter-spacing:-0.01em;}.cls-35{letter-spacing:-0.01em;}.cls-36{letter-spacing:-0.01em;}.cls-37{opacity:0.3;}.cls-38,.cls-41,.cls-42{fill:none;stroke-miterlimit:10;}.cls-38{stroke:#a3d5c2;}.cls-38,.cls-41{stroke-width:0.98px;}.cls-39{fill:#a3d5c2;}.cls-40{fill:#b2def1;}.cls-41{stroke:#b2def1;}.cls-42{stroke:#010101;stroke-width:5px;}.cls-43{font-size:31px;font-family:Raleway-SemiBold, Raleway;font-weight:700;}.cls-44{letter-spacing:-0.01em;}.cls-45{letter-spacing:-0.01em;}.cls-46{letter-spacing:-0.03em;}.cls-47{letter-spacing:-0.04em;}.cls-48{letter-spacing:0em;}</style></defs><title>indexabout900</title><g id="Layer_2" data-name="Layer 2"><g id="Layer_1-2" data-name="Layer 1"><rect class="cls-1" y="0.31" width="907.43" height="668.69"/><rect class="cls-2" x="30.08" y="152.81" width="684.27" height="197.64"/><rect class="cls-3" y="113.87" width="689.47" height="205.11"/><text class="cls-4" transform="translate(61.11 162.67)"><tspan class="cls-5">W</tspan><tspan x="16.64" y="0">e</tspan><tspan class="cls-6" x="26.55" y="0"> </tspan><tspan class="cls-7" x="30.46" y="0">w</tspan><tspan x="43.84" y="0">ork</tspan><tspan class="cls-8" x="68.58" y="0"> </tspan><tspan class="cls-9" x="72.49" y="0">with ma</tspan><tspan class="cls-10" x="133.99" y="0">n</tspan><tspan class="cls-6" x="143.58" y="0">y</tspan><tspan x="152.3" y="0"> </tspan><tspan class="cls-11" x="156.67" y="0">o</tspan><tspan class="cls-12" x="166.6" y="0">f</tspan><tspan x="171.65" y="0" xml:space="preserve"> the la</tspan><tspan class="cls-13" x="219.06" y="0">r</tspan><tspan x="224.41" y="0">gest and most inn</tspan><tspan class="cls-14" x="363.16" y="0">o</tspan><tspan class="cls-15" x="372.91" y="0">v</tspan><tspan class="cls-16" x="381.66" y="0">a</tspan><tspan x="390.72" y="0">ti</tspan><tspan class="cls-17" x="399.68" y="0">v</tspan><tspan x="408.35" y="0">e nonp</tspan><tspan class="cls-13" x="462.68" y="0">r</tspan><tspan class="cls-11" x="468.04" y="0">o</tspan><tspan x="477.96" y="0">fits in the </tspan><tspan class="cls-7" x="0" y="20.4">w</tspan><tspan class="cls-9" x="13.38" y="20.4">orld </tspan><tspan class="cls-18" x="48.47" y="20.4">t</tspan><tspan x="53.69" y="20.4">o ide</tspan><tspan class="cls-19" x="92" y="20.4">n</tspan><tspan x="101.71" y="20.4">tif</tspan><tspan class="cls-6" x="116.07" y="20.4">y</tspan><tspan x="124.79" y="20.4" xml:space="preserve"> and build d</tspan><tspan class="cls-20" x="216.49" y="20.4">a</tspan><tspan x="225.55" y="20.4">ta-</tspan><tspan class="cls-21" x="247.29" y="20.4">f</tspan><tspan x="252.26" y="20.4">ocused </tspan><tspan class="cls-15" x="314.48" y="20.4">t</tspan><tspan x="319.7" y="20.4">echnolog</tspan><tspan class="cls-6" x="393.39" y="20.4">y</tspan><tspan x="402.11" y="20.4" xml:space="preserve"> th</tspan><tspan class="cls-22" x="421.71" y="20.4">a</tspan><tspan x="430.77" y="20.4">t </tspan><tspan class="cls-23" x="440.58" y="20.4">c</tspan><tspan class="cls-24" x="449.76" y="20.4">onser</tspan><tspan class="cls-17" x="493.5" y="20.4">v</tspan><tspan x="502.17" y="20.4">es mo</tspan><tspan class="cls-13" x="550.25" y="20.4">r</tspan><tspan x="555.6" y="20.4">e </tspan><tspan x="0" y="40.8">land, engages mo</tspan><tspan class="cls-13" x="139.91" y="40.8">r</tspan><tspan x="145.26" y="40.8">e</tspan><tspan class="cls-6" x="155.17" y="40.8"> </tspan><tspan class="cls-17" x="159.08" y="40.8">v</tspan><tspan x="167.75" y="40.8">olu</tspan><tspan class="cls-25" x="192.2" y="40.8">n</tspan><tspan class="cls-18" x="201.91" y="40.8">t</tspan><tspan x="207.13" y="40.8">eers, </tspan><tspan class="cls-26" x="249.34" y="40.8">r</tspan><tspan x="255.01" y="40.8">aises mo</tspan><tspan class="cls-27" x="323.91" y="40.8">r</tspan><tspan x="329.27" y="40.8">e mon</tspan><tspan class="cls-28" x="378.96" y="40.8">e</tspan><tspan class="cls-29" x="388.63" y="40.8">y</tspan><tspan x="397" y="40.8">, and deli</tspan><tspan class="cls-17" x="467.44" y="40.8">v</tspan><tspan x="476.11" y="40.8">ers mo</tspan><tspan class="cls-27" x="529.98" y="40.8">r</tspan><tspan x="535.34" y="40.8">e </tspan><tspan class="cls-19" x="0" y="61.2">c</tspan><tspan x="9.18" y="61.2">omp</tspan><tspan class="cls-21" x="45.2" y="61.2">r</tspan><tspan x="50.56" y="61.2">ehensi</tspan><tspan class="cls-30" x="101.66" y="61.2">v</tspan><tspan x="110.33" y="61.2">e servi</tspan><tspan class="cls-19" x="160.99" y="61.2">c</tspan><tspan x="170.17" y="61.2">es </tspan><tspan class="cls-15" x="192.62" y="61.2">t</tspan><tspan x="197.84" y="61.2">o </tspan><tspan class="cls-19" x="212.28" y="61.2">c</tspan><tspan x="221.46" y="61.2">ommunities. Ou</tspan><tspan class="cls-31" x="343.12" y="61.2">r</tspan><tspan class="cls-24" x="348.51" y="61.2" xml:space="preserve"> mission is </tspan><tspan class="cls-32" x="432.12" y="61.2">t</tspan><tspan x="437.33" y="61.2">o t</tspan><tspan class="cls-33" x="457.21" y="61.2">r</tspan><tspan x="462.89" y="61.2">ans</tspan><tspan class="cls-27" x="489.98" y="61.2">f</tspan><tspan class="cls-24" x="494.95" y="61.2">orm ou</tspan><tspan class="cls-31" x="550.77" y="61.2">r</tspan><tspan class="cls-24" x="556.16" y="61.2"> </tspan><tspan x="0" y="81.6">clie</tspan><tspan class="cls-19" x="27.1" y="81.6">n</tspan><tspan x="36.8" y="81.6">ts so much th</tspan><tspan class="cls-16" x="141.59" y="81.6">a</tspan><tspan x="150.65" y="81.6">t th</tspan><tspan class="cls-34" x="175.69" y="81.6">e</tspan><tspan class="cls-8" x="185.36" y="81.6">y</tspan><tspan class="cls-9" x="194.09" y="81.6" xml:space="preserve"> ca</tspan><tspan class="cls-35" x="216.85" y="81.6">n</tspan><tspan x="226.45" y="81.6">’t imagine a b</tspan><tspan class="cls-16" x="329.42" y="81.6">e</tspan><tspan x="339.26" y="81.6">t</tspan><tspan class="cls-15" x="344.7" y="81.6">t</tspan><tspan x="349.92" y="81.6">e</tspan><tspan class="cls-31" x="359.83" y="81.6">r</tspan><tspan class="cls-6" x="365.22" y="81.6"> </tspan><tspan class="cls-15" x="369.13" y="81.6">wa</tspan><tspan class="cls-6" x="391.52" y="81.6">y</tspan><tspan x="400.24" y="81.6"> </tspan><tspan class="cls-11" x="404.61" y="81.6">o</tspan><tspan class="cls-12" x="414.54" y="81.6">f</tspan><tspan x="419.59" y="81.6" xml:space="preserve"> ope</tspan><tspan class="cls-36" x="454.34" y="81.6">r</tspan><tspan class="cls-22" x="460.01" y="81.6">a</tspan><tspan x="469.07" y="81.6">ting.</tspan></text><g class="cls-37"><path class="cls-38" d="M538.13,0V33.09a6.82,6.82,0,0,1-6.82,6.81H489.08a6.82,6.82,0,0,0-6.82,6.82v26.7"/><path class="cls-38" d="M560.38,1.57V76.71a6.82,6.82,0,0,1-6.82,6.82h-.38a6.82,6.82,0,0,1-6.82-6.82v-9a6.82,6.82,0,0,0-6.82-6.82H526.22a6.82,6.82,0,0,0-6.82,6.82v46.75a6.82,6.82,0,0,0,6.82,6.82h78a6.82,6.82,0,0,0,6.82-6.82V89.27a6.82,6.82,0,0,1,6.82-6.82h37a6.82,6.82,0,0,1,6.82,6.82v6.85a6.83,6.83,0,0,0,6.82,6.82H799.42a6.81,6.81,0,0,1,6.82,6.81v174a6.82,6.82,0,0,1-6.82,6.82H729a6.82,6.82,0,0,0-6.82,6.82v38.12a6.82,6.82,0,0,1-6.82,6.82H647.43a6.82,6.82,0,0,0-6.82,6.82V438a6.82,6.82,0,0,0,6.82,6.82h43.08a6.82,6.82,0,0,0,6.82-6.82V406.3a6.82,6.82,0,0,0-6.82-6.82H661a6.82,6.82,0,0,1-6.82-6.82V379.34a6.82,6.82,0,0,1,6.82-6.82h58.61a6.82,6.82,0,0,1,6.82,6.82V496.43"/><circle class="cls-39" cx="726.44" cy="496.43" r="3.15"/><circle class="cls-40" cx="481.13" cy="22.61" r="3.15"/><circle class="cls-40" cx="529.95" cy="88.07" r="3.15"/><path class="cls-41" d="M505.88,2.24V96.13a7.61,7.61,0,0,0,7.61,7.61h41.62a7.62,7.62,0,0,1,7.61,7.62v14.21a7.61,7.61,0,0,0,7.61,7.61h15.23a7.61,7.61,0,0,0,7.61-7.61V113.39a7.62,7.62,0,0,1,7.62-7.62h20.3a7.62,7.62,0,0,1,7.61,7.62h0a7.61,7.61,0,0,0,7.61,7.61h42.63a7.62,7.62,0,0,0,7.62-7.61V103.24a7.61,7.61,0,0,1,7.61-7.62h16.24a7.62,7.62,0,0,1,7.61,7.62v25.37a7.62,7.62,0,0,0,7.62,7.62h3a7.61,7.61,0,0,1,7.61,7.61V381.36a7.61,7.61,0,0,1-7.61,7.61H639.36a7.62,7.62,0,0,0-7.62,7.61v9.14a7.62,7.62,0,0,0,7.62,7.61h29.43a7.62,7.62,0,0,1,7.62,7.61v46.7a7.61,7.61,0,0,0,7.61,7.61H713"/><circle class="cls-39" cx="482.24" cy="74.45" r="3.15"/><circle class="cls-39" cx="646.63" cy="106.78" r="3.15"/><circle class="cls-40" cx="712.95" cy="475.25" r="3.15"/><circle class="cls-40" cx="705.63" cy="301.86" r="3.15"/><path class="cls-41" d="M521,1.71v15.4a5.5,5.5,0,0,1-5.5,5.5H481.13"/><path class="cls-41" d="M550.61,5V43.07a9,9,0,0,1-9,9H539a9,9,0,0,0-9,9V87.54"/><path class="cls-41" d="M763,458.75H719.38a6.17,6.17,0,0,1-6.17-6.17V363.19A6.17,6.17,0,0,0,707,357H686.53a6.17,6.17,0,0,1-6.17-6.17V332.46a6.17,6.17,0,0,1,6.17-6.17h13.09a6.17,6.17,0,0,0,6.17-6.17V303"/><path class="cls-38" d="M646.63,106.78h0A11.68,11.68,0,0,0,635,95.11H587.72a11.66,11.66,0,0,1-11.66-11.66V4.71"/></g><polyline class="cls-42" points="907.43 540.38 481.13 540.38 481.13 658.02 907.43 658.02"/><text class="cls-43" transform="translate(595.34 591.17)">SEL<tspan class="cls-44" x="55.74" y="0">E</tspan><tspan class="cls-45" x="73.97" y="0">C</tspan><tspan class="cls-46" x="94.95" y="0">T</tspan><tspan x="113.18" y="0" xml:space="preserve"> CLIENTS</tspan><tspan x="-55.18" y="37.2">AND </tspan><tspan class="cls-47" x="19.38" y="37.2">P</tspan><tspan x="37.29" y="37.2">A</tspan><tspan class="cls-35" x="58.22" y="37.2">R</tspan><tspan class="cls-48" x="78.37" y="37.2">TNERSHIPS</tspan></text></g></g></svg>