<svg xmlns="http://www.w3.org/2000/svg" viewBox="0 0 907.42 801.12"><defs><style>.cls-1{fill:#010101;}.cls-2{fill:#0489ae;}.cls-10,.cls-11,.cls-12,.cls-13,.cls-14,.cls-15,.cls-16,.cls-17,.cls-18,.cls-19,.cls-2,.cls-3,.cls-4,.cls-5,.cls-6,.cls-7,.cls-8,.cls-9{stroke:#231f20;stroke-width:0.25px;}.cls-10,.cls-11,.cls-12,.cls-13,.cls-15,.cls-16,.cls-17,.cls-18,.cls-2,.cls-4,.cls-5,.cls-6,.cls-7,.cls-8,.cls-9{stroke-miterlimit:10;}.cls-15,.cls-3{fill:#1d996c;}.cls-14,.cls-19,.cls-24,.cls-3{stroke-linecap:round;stroke-linejoin:round;}.cls-4{fill:#b9a030;}.cls-5{fill:#29aae1;}.cls-14,.cls-6{fill:#57bf9b;}.cls-7{fill:#fcee1f;}.cls-8{fill:#0098c0;}.cls-9{fill:#29abe2;}.cls-10{fill:#61ccf2;}.cls-11{fill:#b2e3f6;}.cls-12{fill:#d1eaf3;}.cls-13{fill:#1c996b;}.cls-16{fill:#0988ae;}.cls-17{fill:#57bf99;}.cls-18{fill:#b69e30;}.cls-19{fill:#fbed19;}.cls-20,.cls-24{font-size:100px;font-family:Raleway-ExtraBold, Raleway;font-weight:700;letter-spacing:0.01em;}.cls-20{fill:#fff175;}.cls-21{letter-spacing:-0.01em;}.cls-22{letter-spacing:0.01em;}.cls-23{letter-spacing:0em;}.cls-24{fill:none;stroke:#2ba9e0;stroke-width:3px;}.cls-25{letter-spacing:-0.01em;}.cls-26{letter-spacing:0.01em;}.cls-27{letter-spacing:-0.01em;}.cls-28{font-size:77px;fill:#58be98;font-family:Raleway-ExtraLight, Raleway;letter-spacing:0.01em;}.cls-29{fill:#fff;}</style></defs><title>indexservices900</title><g id="Layer_2" data-name="Layer 2"><g id="Layer_1-2" data-name="Layer 1"><rect class="cls-1" y="143.61" width="907.42" height="657.51"/><path class="cls-2" d="M120.63,259.83a32.91,32.91,0,0,0-27.79,50.56l-.39,1.33,4.26,3.64a28.84,28.84,0,0,1,44.1-4.51l-.51.87,4.26,3.64a32.91,32.91,0,0,0-23.93-55.53Zm0,39.09a12.5,12.5,0,1,1,12.5-12.5A12.5,12.5,0,0,1,120.63,298.92Z"/><path class="cls-3" d="M207.29,289.7v36.89a3.18,3.18,0,0,1-5.41,2.28l0,0-4-3.44,3.09-1.4V289.7a.67.67,0,0,0-.67-.66H163a3.23,3.23,0,0,1-1.89-.61l-.06-.05-.18-.15-4.56-3.82,4.84-1.15,2.48-.59h36.6A7,7,0,0,1,207.29,289.7Z"/><path class="cls-3" d="M163.65,282.67l-2.48.59a3.18,3.18,0,0,1,1.85-.59Z"/><polygon class="cls-3" points="164.55 282.45 164.43 282.67 163.65 282.67 164.55 282.45"/><path class="cls-4" d="M114.31,314.92l33.36,24.36a.43.43,0,0,1-.19.76l-13.86,3a.43.43,0,0,0-.23.74l24.34,21.51c.39.34-.09,1-.54.69L115.5,341.5a.43.43,0,0,1,.1-.77l12.21-4.28a.45.45,0,0,0,.23-.66l-14.37-20.27C113.39,315.13,113.92,314.64,114.31,314.92Z"/><path class="cls-5" d="M116.38,256.19a32.92,32.92,0,0,0-23.93,55.53,28.83,28.83,0,0,1,47.86,0,32.91,32.91,0,0,0-23.93-55.53Zm0,39.08a12.5,12.5,0,1,1,12.5-12.5A12.49,12.49,0,0,1,116.38,295.27Z"/><path class="cls-2" d="M199.85,337a32.93,32.93,0,0,0-27.79,50.56l-.39,1.33,4.26,3.65a28.83,28.83,0,0,1,44.1-4.52l-.51.87,4.26,3.65A32.92,32.92,0,0,0,199.85,337Zm0,39.09a12.5,12.5,0,1,1,12.5-12.5A12.5,12.5,0,0,1,199.85,376.12Z"/><path class="cls-5" d="M195.6,333.39a32.92,32.92,0,0,0-23.93,55.53,28.83,28.83,0,0,1,47.86,0,32.91,32.91,0,0,0-23.93-55.53Zm0,39.09A12.5,12.5,0,1,1,208.1,360,12.5,12.5,0,0,1,195.6,372.48Z"/><path class="cls-6" d="M199.85,326.13a3.18,3.18,0,0,1-3.18-3.18V286.06a.67.67,0,0,0-.67-.66H158.77a3.19,3.19,0,1,1,0-6.38H196a7.05,7.05,0,0,1,7,7V323A3.18,3.18,0,0,1,199.85,326.13Z"/><path class="cls-7" d="M110.06,311.28l33.36,24.35a.43.43,0,0,1-.19.77l-13.86,3a.43.43,0,0,0-.23.74l24.34,21.52c.38.34-.09.95-.54.69l-41.69-24.44a.42.42,0,0,1,.1-.77l12.2-4.29a.43.43,0,0,0,.23-.65l-14.36-20.27A.45.45,0,0,1,110.06,311.28Z"/><rect class="cls-4" x="432.96" y="390.05" width="66.63" height="17.23"/><path class="cls-8" d="M415.89,325.94c11.14,2.92,27.44,4.88,45.83,5.18l-15.35,10.54c-26.64-1.88-45.92-7.38-45.92-13.89V316.56c0,2,1.79,3.88,5.05,5.61A49.82,49.82,0,0,0,415.89,325.94Z"/><path class="cls-8" d="M532.9,316.56v11.21c0,6.51-19.29,12-45.93,13.89l-15.34-10.54c22.39-.36,41.69-3.19,52.38-7.24a36.15,36.15,0,0,0,3.83-1.71C531.11,320.44,532.9,318.55,532.9,316.56Z"/><path class="cls-9" d="M415.89,343.33a154.28,154.28,0,0,0,22.48,3.84l-11,7.54-.08.06a5.46,5.46,0,0,0-.45.36,2.87,2.87,0,0,0-.39.39,2.63,2.63,0,0,0-.3.38,3.83,3.83,0,0,0-.42.73c-15.41-2.66-25.3-6.81-25.3-11.46V334c0,2,1.79,3.89,5.05,5.61A49.82,49.82,0,0,0,415.89,343.33Z"/><path class="cls-9" d="M532.9,334v11.22c0,4.66-9.89,8.8-25.3,11.46a3.86,3.86,0,0,0-.37-.66,3.54,3.54,0,0,0-.34-.45,4.71,4.71,0,0,0-.85-.75l-.17-.11L495,347.15c12.18-1.26,22.32-3.33,29.06-5.88a34.23,34.23,0,0,0,3.83-1.71C531.11,337.84,532.9,335.94,532.9,334Z"/><path class="cls-10" d="M415.89,360.71c2.82.75,6,1.43,9.43,2V374c-15.16-2.67-24.87-6.78-24.87-11.4V351.34c0,2,1.79,3.88,5.05,5.6A49.82,49.82,0,0,0,415.89,360.71Z"/><path class="cls-10" d="M532.9,351.34v11.21c0,4.62-9.71,8.72-24.86,11.4V362.73a90.36,90.36,0,0,0,16-4.08,34.23,34.23,0,0,0,3.83-1.71C531.11,355.22,532.9,353.32,532.9,351.34Z"/><path class="cls-11" d="M415.89,378.09a142,142,0,0,0,17.53,3.27l-4.06,7.08a.41.41,0,0,0,0,.08,2.67,2.67,0,0,0-.2.42c0,.08-.06.16-.1.25a1.21,1.21,0,0,0-.09.31.37.37,0,0,0,0,.14c0,.11,0,.23-.08.35a4.56,4.56,0,0,0-.05.73v1.18c-17.12-2.64-28.32-7-28.32-12V368.72c0,2,1.79,3.88,5.05,5.6A49.25,49.25,0,0,0,415.89,378.09Z"/><path class="cls-11" d="M532.9,368.72v11.21c0,4.95-11.19,9.33-28.31,12v-1.18a4.59,4.59,0,0,0-.06-.73,2,2,0,0,0-.08-.35c0-.05,0-.09,0-.13s-.11-.34-.18-.5a.15.15,0,0,0,0-.07,4.59,4.59,0,0,0-.24-.5l-.17-.28-3.88-6.82c10-1.27,18.29-3.11,24.08-5.3a36.08,36.08,0,0,0,3.83-1.72C531.11,372.6,532.9,370.71,532.9,368.72Z"/><path class="cls-12" d="M428.77,408a4.76,4.76,0,0,0,.2,1.36c-17.23-2.63-28.52-7-28.52-12V386.1c0,2,1.79,3.88,5.05,5.61a49.3,49.3,0,0,0,10.39,3.76,125.5,125.5,0,0,0,12.88,2.61Z"/><path class="cls-12" d="M532.9,386.1v11.21c0,5-11.28,9.37-28.52,12a4.44,4.44,0,0,0,.21-1.36v-9.88A100.33,100.33,0,0,0,524,393.42a36.15,36.15,0,0,0,3.83-1.71C531.11,390,532.9,388.09,532.9,386.1Z"/><ellipse class="cls-2" cx="466.68" cy="310.01" rx="66.22" ry="14.59"/><polygon class="cls-4" points="451.34 357.88 441.49 375.12 429.51 375.12 429.51 357.88 451.34 357.88"/><polygon class="cls-4" points="503.04 357.88 503.04 375.12 491.05 375.12 481.21 357.88 503.04 357.88"/><polygon class="cls-7" points="491.05 375.12 499.59 390.05 432.96 390.05 441.49 375.12 451.34 357.88 429.51 357.88 466.27 332.61 503.04 357.88 481.21 357.88 491.05 375.12"/><path class="cls-6" d="M496.66,266.31c-1.6-.31-3.19-.58-4.68-.86l-2.64-6.36c.82-1.16,1.73-2.43,2.62-3.72,1.4-2,1.27-3.7-.44-5.46-.83-.87-1.69-1.71-2.55-2.54a3.89,3.89,0,0,0-5.33-.45l-3.73,2.58c-2-.78-3.83-1.5-5.67-2.16a1.2,1.2,0,0,1-.9-1.13c-.21-1.45-.45-2.89-.78-4.31a3.2,3.2,0,0,0-2.79-2.76,31.78,31.78,0,0,0-5.77-.09c-1.89.16-2.94,1.42-3.26,3.34-.27,1.58-.55,3.14-.79,4.57l-6.38,2.59-1.87-1.3c-.68-.47-1.36-1-2.05-1.42a3.87,3.87,0,0,0-5.1.47q-1.33,1.29-2.61,2.61a3.87,3.87,0,0,0-.48,5.48l2.59,3.71c-.91,2.19-1.79,4.26-2.67,6.38-1.51.28-3.08.54-4.64.84a3.88,3.88,0,0,0-3.34,4c0,1.2,0,2.4,0,3.6a3.92,3.92,0,0,0,3.64,4.22c1.5.26,3,.54,4.35.79.92,2.17,1.77,4.22,2.66,6.36L441.4,289a3.74,3.74,0,0,0-.27,4.44C448,292,457,292,466.79,292s18.63,0,25.48,1.44c.89-1.42.76-2.87-.38-4.51-.87-1.25-1.75-2.5-2.54-3.65.89-2.17,1.75-4.21,2.62-6.32l2.26-.43c.82-.13,1.65-.26,2.46-.41a3.83,3.83,0,0,0,3.26-3.93v-3.9A3.73,3.73,0,0,0,496.66,266.31Zm-29.94,17.24a11.39,11.39,0,1,1,11.41-11.33A11.32,11.32,0,0,1,466.72,283.55Z"/><path class="cls-4" d="M839,305.25V369.6H700.94l-2.52-2.53,2.52-1.3V340.13c.18-.1.35-.22.53-.34l3-2.07.6,6c.24,1.33,1.39,1.6,1.62,3,.7,4,6.67,3.8,10.66,4.08,1.25.09,2.56.13,4.12.13l1.89,0c5.22-.08,8.65-3.13,9.42-8.33.16-1.07.34-2.14.52-3.19l4.19-1.7,1.47,1c.63.46,1.26.9,1.91,1.33a9.34,9.34,0,0,0,5.17,1.61,9,9,0,0,0,6.27-2.6c1.14-1.09,2.28-2.22,3.51-3.46,3.6-3.66,4-8,1-12.26-.68-1-1.37-2-2-2.92l1.74-4.14.75-.14,1.29-.22c.64-.1,1.29-.21,1.93-.33a9,9,0,0,0,7.47-9v-5.05a9.09,9.09,0,0,0-2.25-6.25H829A10,10,0,0,1,839,305.25Z"/><path class="cls-2" d="M695.18,376.08H844.8a0,0,0,0,1,0,0v0a12.17,12.17,0,0,1-12.17,12.17H707.35a12.17,12.17,0,0,1-12.17-12.17v0A0,0,0,0,1,695.18,376.08Z"/><path class="cls-13" d="M757.87,294.73c-2.07-.42-4.15-.76-6.09-1.11l-3.42-8,3.4-4.69c1.82-2.56,1.65-4.69-.57-6.91-1.07-1.1-2.2-2.16-3.31-3.23a5.2,5.2,0,0,0-6.93-.56l-4.86,3.26c-2.62-1-5-1.89-7.38-2.72a1.58,1.58,0,0,1-1.17-1.43c-.27-1.82-.58-3.64-1-5.45a4.12,4.12,0,0,0-3.63-3.47,41.77,41.77,0,0,0-7.5-.12c-2.45.19-3.83,1.79-4.25,4.22-.34,2-.7,4-1,5.79l-8.3,3.24c-.73-.47-1.57-1-2.43-1.63s-1.77-1.22-2.66-1.8a5.2,5.2,0,0,0-6.64.6c-1.14,1.08-2.28,2.18-3.4,3.3-2.19,2.18-2.38,4.42-.61,6.91,1.16,1.63,2.32,3.23,3.36,4.69-1.18,2.78-2.32,5.39-3.48,8.07-2,.34-4,.69-6,1.06a4.91,4.91,0,0,0-4.33,5c0,1.52,0,3,0,4.54,0,3,1.62,4.84,4.73,5.35,2,.31,3.91.68,5.66,1,1.19,2.75,2.29,5.33,3.46,8-1.1,1.49-2.29,3.08-3.45,4.7a4.74,4.74,0,0,0,.55,6.72l3.41,3.29a5.13,5.13,0,0,0,7,.58l4.77-3.21,8.31,3.25c.36,2,.75,4,1.12,6.1a4.67,4.67,0,0,0,4.32,3.9c1.9.13,3.8.13,5.7.1,3.34-.06,5.07-1.61,5.57-4.81.29-1.83.61-3.64.9-5.35,2.82-1.11,5.52-2.18,8.33-3.27l2.46,1.65c.88.6,1.75,1.22,2.67,1.79a5.07,5.07,0,0,0,6.51-.54q1.74-1.6,3.42-3.27c2.26-2.23,2.44-4.45.6-7l-3.31-4.61c1.17-2.74,2.28-5.32,3.42-8l2.94-.54c1.06-.18,2.13-.33,3.2-.53a4.87,4.87,0,0,0,4.23-5c0-1.64,0-3.27,0-4.93C762.14,297,760.69,295.26,757.87,294.73ZM720,329.05a27.53,27.53,0,1,1,27.53-27.52A27.52,27.52,0,0,1,720,329.05Z"/><path class="cls-14" d="M756.25,292.78c-2.07-.41-4.15-.76-6.09-1.1-1.15-2.7-2.25-5.28-3.43-8l3.41-4.7c1.82-2.56,1.65-4.68-.57-6.91-1.08-1.09-2.2-2.15-3.31-3.22a5.2,5.2,0,0,0-6.93-.56c-1.68,1.11-3.35,2.25-4.86,3.26-2.63-1-5-1.9-7.38-2.73a1.56,1.56,0,0,1-1.18-1.42c-.27-1.82-.58-3.64-1-5.45a4.14,4.14,0,0,0-3.63-3.48,42.71,42.71,0,0,0-7.5-.12c-2.45.2-3.83,1.79-4.25,4.23-.35,2-.7,4-1,5.78l-8.3,3.25L697.78,270c-.9-.6-1.77-1.22-2.67-1.8a5.18,5.18,0,0,0-6.64.6c-1.14,1.08-2.28,2.18-3.39,3.3-2.19,2.19-2.38,4.42-.62,6.91,1.16,1.63,2.33,3.23,3.37,4.69l-3.47,8.06c-2,.35-4,.69-6,1.07a4.91,4.91,0,0,0-4.33,5c0,1.52,0,3,0,4.55,0,3,1.62,4.84,4.73,5.35,1.95.31,3.9.68,5.66,1,1.18,2.74,2.29,5.33,3.46,8-1.1,1.49-2.29,3.08-3.45,4.7a4.74,4.74,0,0,0,.55,6.72c1.12,1.11,2.26,2.2,3.4,3.3a5.14,5.14,0,0,0,7,.58l4.77-3.21,8.32,3.25c.36,2,.74,4,1.11,6.1a4.68,4.68,0,0,0,4.32,3.89c1.9.13,3.81.13,5.71.1,3.33,0,5.07-1.6,5.57-4.81.28-1.82.6-3.63.91-5.34,2.81-1.11,5.51-2.18,8.32-3.27l2.46,1.65c.88.59,1.75,1.22,2.66,1.79a5.08,5.08,0,0,0,6.52-.54c1.15-1.07,2.3-2.17,3.42-3.28,2.25-2.23,2.43-4.44.6-7-1.13-1.59-2.27-3.17-3.32-4.63,1.18-2.73,2.29-5.31,3.43-8l2.93-.52c1.07-.19,2.14-.34,3.2-.54a4.87,4.87,0,0,0,4.24-5c0-1.64,0-3.28,0-4.93C760.52,295.06,759.06,293.32,756.25,292.78Zm-32.07,13.89c-7.81,7.69-19.35,8.62-22.33,8.74V286.09l25,17.46A24.72,24.72,0,0,1,724.18,306.67Zm7.67-10v18.78H711.24a32,32,0,0,0,14-7.69A25.92,25.92,0,0,0,731.85,296.64Zm0-10.59c0,6.39-1.41,11.84-4.18,16.27l-24.21-16.91h28.39Z"/><path class="cls-7" d="M836.5,302.72v64.35H698.42V337.6c.18-.1.35-.22.53-.34l3-2.06,4.21,1.7c.24,1.33.48,2.68.71,4a8.74,8.74,0,0,0,8,7.29c1.25.09,2.56.13,4.12.13l1.89,0c5.22-.08,8.65-3.12,9.42-8.33.16-1.07.34-2.14.52-3.19l4.19-1.69,1.47,1c.63.45,1.26.89,1.91,1.32a9.34,9.34,0,0,0,5.17,1.61,9,9,0,0,0,6.27-2.6c1.14-1.08,2.28-2.21,3.51-3.45,3.6-3.67,4-8,1-12.27l-2-2.92,1.73-4.13.75-.14,1.29-.22c.64-.1,1.29-.21,1.93-.33a9,9,0,0,0,7.47-9V299a9.12,9.12,0,0,0-2.25-6.25h63.32A10,10,0,0,1,836.5,302.72Z"/><path class="cls-9" d="M692.65,373.56H842.27a0,0,0,0,1,0,0v0a12.17,12.17,0,0,1-12.17,12.17H704.83a12.17,12.17,0,0,1-12.17-12.17v0A0,0,0,0,1,692.65,373.56Z"/><path class="cls-13" d="M384.08,545.62v66H242.42L238.69,609h3.73V545.62a10.27,10.27,0,0,1,10.27-10.27H373.82A10.27,10.27,0,0,1,384.08,545.62Z"/><path class="cls-2" d="M390,618.28a12.5,12.5,0,0,1-12.49,12.49H249a12.5,12.5,0,0,1-12.49-12.49H384.84l1.43-2.61Z"/><path class="cls-14" d="M249,532.74H370.09A10.27,10.27,0,0,1,380.36,543v66a0,0,0,0,1,0,0H238.69a0,0,0,0,1,0,0V543A10.27,10.27,0,0,1,249,532.74Z"/><path class="cls-9" d="M232.78,615.67H386.27a0,0,0,0,1,0,0v0a12.49,12.49,0,0,1-12.49,12.49H245.27a12.49,12.49,0,0,1-12.49-12.49v0a0,0,0,0,1,0,0Z"/><path class="cls-4" d="M318.39,549.2l2.51-1.73a2.62,2.62,0,0,1,3.58.3q.87.84,1.71,1.71a2.55,2.55,0,0,1,.3,3.67c-.6.87-1.21,1.72-1.76,2.5l1.77,4.28c1,.18,2.08.36,3.15.58a2.51,2.51,0,0,1,2.21,2.67v2.62a2.58,2.58,0,0,1-2.19,2.64l-1.65.28-1.52.29-1.77,4.24,1.71,2.46a2.59,2.59,0,0,1-.31,3.73q-.87.88-1.77,1.74a2.56,2.56,0,0,1-3.37.29l-1.37-1c-.44-.31-.88-.62-1.27-.88L314,581.38c-.15.91-.32,1.88-.46,2.84a2.64,2.64,0,0,1-2.88,2.56c-1,0-2,0-2.95,0a2.45,2.45,0,0,1-2.23-2.07c-.19-1.1-.39-2.2-.58-3.25l-4.3-1.73-2.46,1.71a2.6,2.6,0,0,1-3.63-.31c-.59-.58-1.18-1.16-1.76-1.76a2.56,2.56,0,0,1-.28-3.57c.6-.86,1.22-1.71,1.78-2.5L292.5,569c-.91-.17-1.91-.36-2.92-.53a2.64,2.64,0,0,1-2.45-2.84c0-.81,0-1.61,0-2.42a2.6,2.6,0,0,1,2.24-2.68c1.05-.2,2.11-.38,3.12-.56l1.8-4.29c-.54-.78-1.15-1.64-1.74-2.5a2.6,2.6,0,0,1,.31-3.68c.58-.59,1.17-1.18,1.76-1.75a2.61,2.61,0,0,1,3.43-.32c.47.31.92.64,1.38,1l1.25.87L305,547.5c.17-1,.35-2,.53-3.07a2.38,2.38,0,0,1,2.2-2.25,21.76,21.76,0,0,1,3.87.06,2.17,2.17,0,0,1,1.88,1.85c.22,1,.38,1.93.52,2.9a.82.82,0,0,0,.61.76C315.81,548.19,317,548.68,318.39,549.2Zm-16.55,15.24a7.68,7.68,0,1,0,7.69-7.65A7.61,7.61,0,0,0,301.84,564.44Z"/><path class="cls-4" d="M301.14,603.68H286.86c0-.2,0-.38,0-.56,0-1.71,0-3.43,0-5.15a1,1,0,0,0-.34-.83c-3.26-3.23-6.5-6.48-9.75-9.71a7.34,7.34,0,0,1-2.28-4.39,9.52,9.52,0,0,1,0-1.85c.21-2.74.45-5.48.66-8.22.15-1.89.31-3.79.42-5.68a3.19,3.19,0,0,1,2.75-2.8,3.06,3.06,0,0,1,3.4,3c0,1-.11,2-.17,3-.12,1.76-.25,3.53-.36,5.29-.08,1.08-.14,2.16-.21,3.24a3.4,3.4,0,0,0,1.05,2.71q2.37,2.37,4.75,4.73a1.54,1.54,0,0,0,.64.35.94.94,0,0,0,1-1.45,3.6,3.6,0,0,0-.37-.41L284,581a3,3,0,0,1-.87-3.19,2.94,2.94,0,0,1,4.94-1.12c2.8,2.79,5.59,5.6,8.37,8.4a20.68,20.68,0,0,1,1.41,1.56,14,14,0,0,1,3.15,7.64c.06.64.08,1.3.09,1.95q0,3.45.05,6.9Z"/><path class="cls-4" d="M332.23,603.68H317.89v-.48c0-2.4,0-4.81,0-7.21a14.73,14.73,0,0,1,4.49-10.72c2.87-2.84,5.71-5.71,8.56-8.57a2.95,2.95,0,0,1,4.35,4c-.15.18-.32.35-.48.51L331.06,585a1.89,1.89,0,0,0-.43.65.9.9,0,0,0,.38,1,1,1,0,0,0,1.13,0,2.3,2.3,0,0,0,.33-.3c1.51-1.51,3-3,4.54-4.53a3.74,3.74,0,0,0,1.15-3.11c-.18-2.24-.3-4.49-.44-6.74-.1-1.44-.23-2.89-.29-4.34a3.06,3.06,0,0,1,2.94-3.16,3.12,3.12,0,0,1,3.18,2.78c.21,2.76.45,5.51.66,8.27.17,2.11.38,4.22.47,6.33a6.9,6.9,0,0,1-1.86,5.08c-.18.2-.37.39-.56.57q-4.81,4.82-9.64,9.62a1.17,1.17,0,0,0-.39,1c0,1.67,0,3.33,0,5Z"/><path class="cls-7" d="M317.3,547.56l2.5-1.74a2.64,2.64,0,0,1,3.59.3c.57.57,1.15,1.13,1.71,1.71a2.56,2.56,0,0,1,.29,3.67c-.6.87-1.21,1.72-1.76,2.51l1.78,4.27c1,.18,2.07.36,3.14.58a2.5,2.5,0,0,1,2.21,2.67c0,.87,0,1.75,0,2.62a2.57,2.57,0,0,1-2.19,2.64l-1.65.28-1.52.29-1.77,4.24,1.72,2.46a2.6,2.6,0,0,1-.31,3.73c-.58.59-1.17,1.17-1.77,1.75a2.58,2.58,0,0,1-3.37.28c-.47-.3-.92-.63-1.38-1l-1.26-.88L313,579.73c-.15.91-.32,1.88-.47,2.85a2.63,2.63,0,0,1-2.87,2.56c-1,0-2,0-3-.06a2.45,2.45,0,0,1-2.23-2.07c-.19-1.1-.39-2.19-.57-3.25l-4.3-1.73-2.47,1.71a2.59,2.59,0,0,1-3.62-.31c-.59-.58-1.19-1.16-1.76-1.76a2.56,2.56,0,0,1-.29-3.57l1.78-2.5-1.78-4.27c-.91-.16-1.92-.36-2.93-.53A2.63,2.63,0,0,1,286,564c0-.81,0-1.61,0-2.42a2.59,2.59,0,0,1,2.23-2.68l3.12-.56,1.8-4.29-1.74-2.5a2.61,2.61,0,0,1,.32-3.68c.58-.59,1.16-1.18,1.76-1.75a2.61,2.61,0,0,1,3.43-.32c.46.31.91.64,1.37,1l1.26.87,4.29-1.74c.16-1,.35-2,.52-3.07a2.4,2.4,0,0,1,2.2-2.25,21.88,21.88,0,0,1,3.88.06,2.15,2.15,0,0,1,1.87,1.86c.22.95.38,1.92.53,2.9a.8.8,0,0,0,.6.75C314.72,546.54,315.94,547,317.3,547.56Zm-16.56,15.23a7.68,7.68,0,1,0,7.69-7.65A7.61,7.61,0,0,0,300.74,562.79Z"/><path class="cls-7" d="M300.05,602H285.76c0-.21,0-.39,0-.56,0-1.72,0-3.44,0-5.16a1.07,1.07,0,0,0-.35-.83c-3.25-3.23-6.49-6.48-9.75-9.71a7.39,7.39,0,0,1-2.28-4.39,8.71,8.71,0,0,1,0-1.84c.2-2.75.44-5.49.66-8.23.15-1.89.3-3.79.42-5.68a3.2,3.2,0,0,1,2.75-2.8,3.07,3.07,0,0,1,3.4,3c0,1-.11,2-.18,3L280,574.1l-.21,3.24a3.42,3.42,0,0,0,1.05,2.71c1.58,1.58,3.16,3.17,4.76,4.73a1.39,1.39,0,0,0,.64.35.85.85,0,0,0,1-.42.89.89,0,0,0,0-1,2.86,2.86,0,0,0-.37-.41l-3.89-3.89a3,3,0,1,1,4.07-4.31l8.37,8.4q.73.75,1.41,1.56a14.06,14.06,0,0,1,3.14,7.64c.07.65.08,1.3.09,2,0,2.3,0,4.6.06,6.9Z"/><path class="cls-7" d="M331.14,602H316.8v-.48l0-7.21a14.71,14.71,0,0,1,4.5-10.71c2.86-2.85,5.7-5.72,8.56-8.58a2.95,2.95,0,0,1,4.35,4,5.9,5.9,0,0,1-.49.51c-1.26,1.26-2.53,2.52-3.78,3.79a1.88,1.88,0,0,0-.43.66.88.88,0,0,0,.37,1,1,1,0,0,0,1.13,0,2.36,2.36,0,0,0,.34-.3c1.51-1.51,3-3,4.53-4.52a3.71,3.71,0,0,0,1.15-3.12c-.18-2.24-.29-4.49-.44-6.73-.09-1.45-.23-2.9-.28-4.35a3,3,0,0,1,2.94-3.16,3.11,3.11,0,0,1,3.17,2.78c.22,2.76.45,5.51.67,8.27.17,2.11.38,4.22.47,6.34a6.9,6.9,0,0,1-1.87,5.07c-.18.2-.37.39-.55.58l-9.65,9.61a1.23,1.23,0,0,0-.39,1c0,1.67,0,3.34,0,5Z"/><path class="cls-15" d="M528.39,556.74H674.87V617.4a11.8,11.8,0,0,1-11.77,11.77h-123a11.8,11.8,0,0,1-11.76-11.77Z"/><path class="cls-16" d="M663.1,537.71h-123a11.8,11.8,0,0,0-11.76,11.77v5.39H674.87v-5.39A11.8,11.8,0,0,0,663.1,537.71Zm-17.17,9.59a2.45,2.45,0,0,1-2.44,2.45h-2A2.45,2.45,0,0,1,639,547.3v-2a2.43,2.43,0,0,1,2.44-2.43h2a2.44,2.44,0,0,1,2.44,2.43Zm11,0a2.45,2.45,0,0,1-2.45,2.45h-2A2.45,2.45,0,0,1,650,547.3v-2a2.44,2.44,0,0,1,2.44-2.43h2a2.44,2.44,0,0,1,2.45,2.43Zm11,0a2.44,2.44,0,0,1-2.43,2.45h-2A2.44,2.44,0,0,1,661,547.3v-2a2.43,2.43,0,0,1,2.43-2.43h2a2.43,2.43,0,0,1,2.43,2.43Z"/><path class="cls-17" d="M525.27,553.62H671.75v60.66A11.8,11.8,0,0,1,660,626.05H537a11.8,11.8,0,0,1-11.76-11.77Z"/><path class="cls-5" d="M660,534.59H537a11.8,11.8,0,0,0-11.76,11.77v5.39H671.75v-5.39A11.8,11.8,0,0,0,660,534.59Zm-17.17,9.59a2.45,2.45,0,0,1-2.44,2.45h-2a2.45,2.45,0,0,1-2.44-2.45v-2a2.43,2.43,0,0,1,2.44-2.43h2a2.43,2.43,0,0,1,2.44,2.43Zm11,0a2.45,2.45,0,0,1-2.45,2.45h-2a2.45,2.45,0,0,1-2.44-2.45v-2a2.44,2.44,0,0,1,2.44-2.43h2a2.44,2.44,0,0,1,2.45,2.43Zm11,0a2.44,2.44,0,0,1-2.43,2.45h-2a2.44,2.44,0,0,1-2.43-2.45v-2a2.43,2.43,0,0,1,2.43-2.43h2a2.43,2.43,0,0,1,2.43,2.43Z"/><path class="cls-18" d="M584.56,582.36v-.56l-.36.1L561,591.36l-.16.11v.34l.16.11,23.24,9.45.36.11v-.56l-.16-.12-22.62-9.17,22.62-9.16Z"/><path class="cls-18" d="M584.56,602.76a1.57,1.57,0,0,1-.37,0l-.36-.11-.12,0-23.24-9.46a.94.94,0,0,1-.24-.13l-.16-.11a1.25,1.25,0,0,1-.55-1.05v-.34a1.27,1.27,0,0,1,.55-1.06l.16-.11a1.41,1.41,0,0,1,.24-.13l23.24-9.45.12-.05.36-.1a1.26,1.26,0,0,1,1.14.2,1.28,1.28,0,0,1,.51,1v.56a1.28,1.28,0,0,1-.51,1l-.16.12a1,1,0,0,1-.29.16l-19.68,8,19.69,8a1.56,1.56,0,0,1,.28.16l.16.12a1.28,1.28,0,0,1,.51,1v.56a1.31,1.31,0,0,1-.51,1A1.36,1.36,0,0,1,584.56,602.76Z"/><polygon class="cls-18" points="605.07 572.51 604.96 572.91 592.04 610.65 591.94 610.81 591.42 610.81 591.53 610.42 604.44 572.69 604.55 572.51 605.07 572.51"/><path class="cls-18" d="M591.94,612.1h-.52a1.29,1.29,0,0,1-1-.51,1.28,1.28,0,0,1-.21-1.12l.1-.39,12.93-37.81a1.15,1.15,0,0,1,.12-.25l.11-.18a1.28,1.28,0,0,1,1.1-.61h.52a1.26,1.26,0,0,1,1,.5,1.24,1.24,0,0,1,.22,1.11l-.1.41-12.94,37.81a2.56,2.56,0,0,1-.11.24l-.1.16A1.29,1.29,0,0,1,591.94,612.1Z"/><polygon class="cls-18" points="635.69 591.47 635.69 591.81 635.53 591.92 612.29 601.37 611.93 601.48 611.93 600.92 612.09 600.8 634.71 591.63 612.09 582.47 611.93 582.36 611.93 581.8 612.29 581.9 635.53 591.36 635.69 591.47"/><path class="cls-18" d="M611.93,602.76a1.36,1.36,0,0,1-.77-.25,1.31,1.31,0,0,1-.51-1v-.56a1.28,1.28,0,0,1,.51-1l.16-.12a1.56,1.56,0,0,1,.28-.16l19.69-8-19.68-8a1,1,0,0,1-.29-.16l-.16-.12a1.28,1.28,0,0,1-.51-1v-.56a1.28,1.28,0,0,1,1.65-1.23l.36.1.12.05L636,590.17a1.41,1.41,0,0,1,.24.13l.16.11a1.27,1.27,0,0,1,.55,1.06v.34a1.25,1.25,0,0,1-.55,1.05l-.16.11a.94.94,0,0,1-.24.13l-23.24,9.46-.12,0-.36.11A1.57,1.57,0,0,1,611.93,602.76Z"/><path class="cls-19" d="M583.25,580.88v-.56l-.36.11-23.24,9.45-.16.11v.35l.16.1,23.24,9.46.36.1v-.55l-.15-.12-22.63-9.17L583.1,581Z"/><path class="cls-19" d="M583.25,601.29a1.13,1.13,0,0,1-.36-.06l-.37-.1-.11,0-23.24-9.45a1.19,1.19,0,0,1-.25-.13l-.16-.11a1.29,1.29,0,0,1-.55-1V590a1.29,1.29,0,0,1,.55-1l.16-.11a.85.85,0,0,1,.25-.13l23.24-9.46.11,0,.37-.11a1.3,1.3,0,0,1,1.13.2,1.32,1.32,0,0,1,.52,1v.56a1.29,1.29,0,0,1-.52,1l-.16.12a1.56,1.56,0,0,1-.28.16l-19.69,8,19.69,8a1.18,1.18,0,0,1,.29.16l.15.12a1.27,1.27,0,0,1,.52,1V600a1.29,1.29,0,0,1-.52,1A1.26,1.26,0,0,1,583.25,601.29Z"/><polygon class="cls-19" points="603.76 571.04 603.65 571.44 590.74 609.17 590.64 609.34 590.12 609.34 590.23 608.95 603.13 571.21 603.24 571.04 603.76 571.04"/><path class="cls-19" d="M590.64,610.62h-.52a1.27,1.27,0,0,1-1-.5,1.25,1.25,0,0,1-.22-1.12l.11-.39,12.93-37.81a1.23,1.23,0,0,1,.12-.26l.1-.17a1.31,1.31,0,0,1,1.1-.62h.52a1.29,1.29,0,0,1,1.24,1.62l-.11.4L592,609.59a1,1,0,0,1-.11.23l-.1.17A1.28,1.28,0,0,1,590.64,610.62Z"/><polygon class="cls-19" points="634.38 589.99 634.38 590.34 634.23 590.44 610.99 599.9 610.62 600 610.62 599.45 610.78 599.33 633.4 590.16 610.78 581 610.62 580.88 610.62 580.32 610.99 580.43 634.23 589.88 634.38 589.99"/><path class="cls-19" d="M610.62,601.29a1.25,1.25,0,0,1-.76-.26,1.27,1.27,0,0,1-.52-1v-.55a1.28,1.28,0,0,1,.51-1l.16-.12a1,1,0,0,1,.29-.16l19.68-8-19.68-8A1.64,1.64,0,0,1,610,582l-.15-.12a1.27,1.27,0,0,1-.52-1v-.56a1.29,1.29,0,0,1,1.65-1.23l.36.11.12,0,23.24,9.46a.7.7,0,0,1,.24.13l.16.11a1.27,1.27,0,0,1,.56,1v.35a1.27,1.27,0,0,1-.56,1l-.16.11a.92.92,0,0,1-.24.13l-23.24,9.45-.12,0-.36.1A1.15,1.15,0,0,1,610.62,601.29Z"/><text></text><text class="cls-20" transform="translate(211.54 167.02)">SE<tspan class="cls-21" x="123.4" y="0">R</tspan><tspan class="cls-22" x="189.7" y="0">VIC</tspan><tspan class="cls-23" x="358.9" y="0">E</tspan><tspan x="418.3" y="0">S</tspan></text><text class="cls-24" transform="translate(208.96 164.22)">SE<tspan class="cls-25" x="123.4" y="0">R</tspan><tspan class="cls-26" x="189.7" y="0">VIC</tspan><tspan class="cls-27" x="358.9" y="0">E</tspan><tspan x="418.3" y="0">S</tspan></text><text class="cls-28" transform="translate(369.76 65.83)">OUR</text><path class="cls-29" d="M411.6,442.64a5.21,5.21,0,0,0,2.65.75c1.52,0,2.4-.8,2.4-2s-.61-1.68-2.16-2.28c-1.87-.66-3-1.63-3-3.24,0-1.79,1.47-3.11,3.7-3.11a5.19,5.19,0,0,1,2.53.56l-.4,1.2a4.65,4.65,0,0,0-2.18-.54c-1.56,0-2.16.93-2.16,1.72,0,1.07.7,1.59,2.28,2.21,1.94.74,2.92,1.68,2.92,3.36s-1.31,3.3-4,3.3a5.89,5.89,0,0,1-2.92-.73Z"/><path class="cls-29" d="M421.89,433.85v2.36H424v1.14h-2.14v4.44c0,1,.29,1.6,1.12,1.6a3.35,3.35,0,0,0,.87-.11l.06,1.13a3.84,3.84,0,0,1-1.32.2A2.08,2.08,0,0,1,421,444a3.06,3.06,0,0,1-.58-2.14v-4.49h-1.27v-1.14h1.27v-2Z"/><path class="cls-29" d="M425.71,438.78c0-1,0-1.8-.07-2.57H427l.05,1.62h.07a2.47,2.47,0,0,1,2.28-1.8,1.34,1.34,0,0,1,.42.05v1.41a1.91,1.91,0,0,0-.51-.05,2.09,2.09,0,0,0-2,1.92,3.58,3.58,0,0,0-.07.69v4.39h-1.48Z"/><path class="cls-29" d="M435.74,444.44l-.12-1h-.05a3.05,3.05,0,0,1-2.51,1.23,2.35,2.35,0,0,1-2.52-2.37c0-2,1.77-3.07,4.95-3.06V439a1.69,1.69,0,0,0-1.87-1.9,4.16,4.16,0,0,0-2.15.61l-.34-1a5.05,5.05,0,0,1,2.71-.73c2.51,0,3.13,1.71,3.13,3.36v3.08a11.83,11.83,0,0,0,.13,2Zm-.22-4.2c-1.63,0-3.48.26-3.48,1.85a1.32,1.32,0,0,0,1.41,1.43,2,2,0,0,0,2-1.38,1.55,1.55,0,0,0,.08-.47Z"/><path class="cls-29" d="M441.11,433.85v2.36h2.15v1.14h-2.15v4.44c0,1,.29,1.6,1.13,1.6a3.2,3.2,0,0,0,.86-.11l.07,1.13a3.91,3.91,0,0,1-1.33.2,2.07,2.07,0,0,1-1.61-.63,3,3,0,0,1-.58-2.14v-4.49h-1.27v-1.14h1.27v-2Z"/><path class="cls-29" d="M445.67,440.6a2.63,2.63,0,0,0,2.82,2.85,5.4,5.4,0,0,0,2.28-.42l.25,1.07a6.56,6.56,0,0,1-2.73.51,3.82,3.82,0,0,1-4.05-4.15c0-2.48,1.46-4.43,3.86-4.43,2.69,0,3.4,2.36,3.4,3.87a5.23,5.23,0,0,1-.05.7Zm4.39-1.07A2.14,2.14,0,0,0,448,437.1a2.47,2.47,0,0,0-2.29,2.43Z"/><path class="cls-29" d="M460.44,436.21c0,.6-.07,1.26-.07,2.26v4.78c0,1.89-.37,3-1.17,3.76a4.39,4.39,0,0,1-3,1,5.35,5.35,0,0,1-2.74-.68l.38-1.14a4.61,4.61,0,0,0,2.41.65c1.53,0,2.65-.8,2.65-2.87V443h0a3,3,0,0,1-2.62,1.38c-2,0-3.5-1.74-3.5-4,0-2.78,1.82-4.36,3.7-4.36a2.74,2.74,0,0,1,2.57,1.42h0l.06-1.24Zm-1.54,3.25a2,2,0,0,0-.09-.68,2.15,2.15,0,0,0-2.09-1.58c-1.43,0-2.45,1.21-2.45,3.11,0,1.61.82,3,2.43,3a2.2,2.2,0,0,0,2.08-1.53,2.82,2.82,0,0,0,.12-.8Z"/><path class="cls-29" d="M463.4,436.21l1.8,4.86c.19.55.39,1.19.53,1.69h0c.16-.5.33-1.13.53-1.72l1.63-4.83h1.58l-2.24,5.87c-1.07,2.82-1.8,4.26-2.82,5.15a4.12,4.12,0,0,1-1.84,1l-.37-1.26a4.17,4.17,0,0,0,1.31-.73,4.65,4.65,0,0,0,1.25-1.67,1,1,0,0,0,.12-.36,1.27,1.27,0,0,0-.1-.39l-3-7.58Z"/><path class="cls-29" d="M474.52,433.12a17,17,0,0,1,2.84-.22,4.71,4.71,0,0,1,3.21,1,3.08,3.08,0,0,1,1,2.4,3.35,3.35,0,0,1-.88,2.44,4.72,4.72,0,0,1-3.5,1.26,5.39,5.39,0,0,1-1.19-.1v4.59h-1.48Zm1.48,5.52a4.69,4.69,0,0,0,1.22.12c1.79,0,2.87-.86,2.87-2.45s-1.07-2.24-2.7-2.24a6,6,0,0,0-1.39.12Z"/><path class="cls-29" d="M483.24,438.78c0-1,0-1.8-.07-2.57h1.31l0,1.62h.07a2.45,2.45,0,0,1,2.28-1.8,1.34,1.34,0,0,1,.42.05v1.41a1.91,1.91,0,0,0-.51-.05,2.09,2.09,0,0,0-2,1.92,3.58,3.58,0,0,0-.07.69v4.39h-1.48Z"/><path class="cls-29" d="M496.07,440.26a4,4,0,0,1-4.09,4.37,3.92,3.92,0,0,1-4-4.24,4,4,0,0,1,4.08-4.36A3.89,3.89,0,0,1,496.07,440.26Zm-6.52.08c0,1.8,1,3.16,2.5,3.16s2.49-1.34,2.49-3.19c0-1.39-.69-3.16-2.46-3.16S489.55,438.78,489.55,440.34Z"/><path class="cls-29" d="M496,446.82a2.42,2.42,0,0,0,1.63-.63c.41-.48.56-1.12.56-3.09v-6.89h1.49v7.46a4.53,4.53,0,0,1-1,3.39,3.8,3.8,0,0,1-2.55.93Zm3.85-12.92a.88.88,0,0,1-.93.92.9.9,0,0,1-.92-.92.91.91,0,0,1,1-.93A.87.87,0,0,1,499.81,433.9Z"/><path class="cls-29" d="M502.93,440.6a2.63,2.63,0,0,0,2.82,2.85A5.35,5.35,0,0,0,508,443l.26,1.07a6.66,6.66,0,0,1-2.74.51,3.82,3.82,0,0,1-4-4.15c0-2.48,1.46-4.43,3.86-4.43,2.68,0,3.4,2.36,3.4,3.87a4.91,4.91,0,0,1-.06.7Zm4.38-1.07a2.12,2.12,0,0,0-2.07-2.43,2.48,2.48,0,0,0-2.3,2.43Z"/><path class="cls-29" d="M516.47,444.13a5.37,5.37,0,0,1-2.36.48,3.91,3.91,0,0,1-4.1-4.2,4.19,4.19,0,0,1,4.42-4.37,4.91,4.91,0,0,1,2.08.43l-.34,1.15a3.54,3.54,0,0,0-1.74-.39,2.85,2.85,0,0,0-2.9,3.11,2.82,2.82,0,0,0,2.85,3.08,4.24,4.24,0,0,0,1.84-.41Z"/><path class="cls-29" d="M520.25,433.85v2.36h2.14v1.14h-2.14v4.44c0,1,.29,1.6,1.12,1.6a3.35,3.35,0,0,0,.87-.11l.06,1.13a3.8,3.8,0,0,1-1.32.2,2.08,2.08,0,0,1-1.62-.63,3.06,3.06,0,0,1-.57-2.14v-4.49h-1.28v-1.14h1.28v-2Z"/><path class="cls-29" d="M562.2,672.55l-1.19,3.6h-1.53l3.89-11.45h1.79l3.91,11.45h-1.58l-1.23-3.6ZM566,671.4l-1.12-3.3c-.26-.75-.43-1.43-.6-2.09h0c-.17.68-.36,1.37-.58,2.07l-1.12,3.32Z"/><path class="cls-29" d="M570.65,670.61c0-1.05,0-1.9-.07-2.68h1.35l.06,1.41h0a3.24,3.24,0,0,1,2.92-1.6c2,0,3.49,1.68,3.49,4.18,0,3-1.81,4.42-3.74,4.42a2.89,2.89,0,0,1-2.54-1.29h0v4.47h-1.48Zm1.48,2.2a2.92,2.92,0,0,0,.07.61,2.31,2.31,0,0,0,2.24,1.75c1.58,0,2.5-1.29,2.5-3.18,0-1.65-.87-3.06-2.45-3.06a2.39,2.39,0,0,0-2.26,1.85,2.51,2.51,0,0,0-.1.62Z"/><path class="cls-29" d="M580.32,670.61c0-1.05,0-1.9-.06-2.68h1.34l.07,1.41h0a3.24,3.24,0,0,1,2.92-1.6c2,0,3.49,1.68,3.49,4.18,0,3-1.8,4.42-3.74,4.42a2.86,2.86,0,0,1-2.53-1.29h0v4.47h-1.48Zm1.48,2.2a3.78,3.78,0,0,0,.07.61,2.31,2.31,0,0,0,2.24,1.75c1.58,0,2.5-1.29,2.5-3.18,0-1.65-.86-3.06-2.44-3.06a2.4,2.4,0,0,0-2.27,1.85,2.51,2.51,0,0,0-.1.62Z"/><path class="cls-29" d="M590,664.09h1.49v12.06H590Z"/><path class="cls-29" d="M595.67,665.62a.87.87,0,0,1-.95.91.89.89,0,0,1-.9-.91.91.91,0,0,1,.94-.94A.88.88,0,0,1,595.67,665.62ZM594,676.15v-8.22h1.49v8.22Z"/><path class="cls-29" d="M603.85,675.85a5.59,5.59,0,0,1-2.36.47,3.91,3.91,0,0,1-4.1-4.19,4.18,4.18,0,0,1,4.42-4.37,5,5,0,0,1,2.07.42l-.34,1.16a3.36,3.36,0,0,0-1.73-.39,3.1,3.1,0,0,0,0,6.18,4.41,4.41,0,0,0,1.84-.4Z"/><path class="cls-29" d="M610.16,676.15l-.12-1h0a3.09,3.09,0,0,1-2.52,1.22A2.34,2.34,0,0,1,605,674c0-2,1.76-3.08,4.94-3.06v-.17a1.69,1.69,0,0,0-1.87-1.9,4.06,4.06,0,0,0-2.14.61l-.34-1a5.13,5.13,0,0,1,2.7-.73c2.52,0,3.13,1.72,3.13,3.37v3.07a11.69,11.69,0,0,0,.14,2Zm-.22-4.19c-1.64,0-3.49.25-3.49,1.85a1.33,1.33,0,0,0,1.41,1.43,2,2,0,0,0,2-1.38,1.57,1.57,0,0,0,.09-.48Z"/><path class="cls-29" d="M615.53,665.56v2.37h2.14v1.14h-2.14v4.43c0,1,.29,1.6,1.12,1.6a3.44,3.44,0,0,0,.87-.1l.07,1.12a3.67,3.67,0,0,1-1.33.2,2.07,2.07,0,0,1-1.61-.62,3.06,3.06,0,0,1-.58-2.15v-4.48h-1.28v-1.14h1.28v-2Z"/><path class="cls-29" d="M621,665.62a.93.93,0,0,1-1.85,0,.91.91,0,0,1,.93-.94A.89.89,0,0,1,621,665.62Zm-1.67,10.53v-8.22h1.5v8.22Z"/><path class="cls-29" d="M630.78,672a4,4,0,0,1-4.1,4.37,3.91,3.91,0,0,1-3.94-4.23,4,4,0,0,1,4.08-4.37A3.9,3.9,0,0,1,630.78,672Zm-6.53.09c0,1.8,1,3.16,2.5,3.16s2.5-1.34,2.5-3.2c0-1.39-.7-3.16-2.47-3.16S624.25,670.49,624.25,672.06Z"/><path class="cls-29" d="M632.67,670.15c0-.85,0-1.54-.07-2.22h1.32l.09,1.36h0a3,3,0,0,1,2.72-1.55c1.14,0,2.91.68,2.91,3.5v4.91h-1.5v-4.74c0-1.32-.49-2.43-1.9-2.43a2.14,2.14,0,0,0-2,1.53,2.41,2.41,0,0,0-.1.7v4.94h-1.49Z"/><path class="cls-29" d="M258.9,674.35a5.27,5.27,0,0,0,2.66.75c1.51,0,2.39-.8,2.39-2s-.61-1.69-2.16-2.28c-1.87-.66-3-1.63-3-3.25,0-1.78,1.48-3.11,3.7-3.11a5.21,5.21,0,0,1,2.54.56l-.41,1.21a4.51,4.51,0,0,0-2.18-.55c-1.56,0-2.16.94-2.16,1.72,0,1.07.7,1.6,2.28,2.21,1.94.75,2.92,1.68,2.92,3.37s-1.3,3.29-4,3.29a5.89,5.89,0,0,1-2.92-.73Z"/><path class="cls-29" d="M274.32,673.91c0,.85,0,1.6.07,2.24h-1.33l-.08-1.34h0a3.09,3.09,0,0,1-2.72,1.53c-1.29,0-2.83-.71-2.83-3.6v-4.81h1.49v4.55c0,1.57.48,2.62,1.84,2.62a2.17,2.17,0,0,0,2-1.36,2.28,2.28,0,0,0,.14-.76v-5.05h1.49Z"/><path class="cls-29" d="M276.8,670.61c0-1.05,0-1.9-.06-2.68h1.34l.07,1.41h0a3.24,3.24,0,0,1,2.92-1.6c2,0,3.49,1.68,3.49,4.18,0,3-1.8,4.42-3.74,4.42a2.86,2.86,0,0,1-2.53-1.29h0v4.47H276.8Zm1.48,2.2a3.78,3.78,0,0,0,.07.61,2.31,2.31,0,0,0,2.24,1.75c1.59,0,2.5-1.29,2.5-3.18,0-1.65-.86-3.06-2.44-3.06a2.38,2.38,0,0,0-2.26,1.85,2.12,2.12,0,0,0-.11.62Z"/><path class="cls-29" d="M286.48,670.61c0-1.05,0-1.9-.07-2.68h1.34l.07,1.41h0a3.25,3.25,0,0,1,2.93-1.6c2,0,3.48,1.68,3.48,4.18,0,3-1.8,4.42-3.74,4.42a2.86,2.86,0,0,1-2.53-1.29h0v4.47h-1.48Zm1.48,2.2a3.82,3.82,0,0,0,.06.61,2.33,2.33,0,0,0,2.25,1.75c1.58,0,2.5-1.29,2.5-3.18,0-1.65-.87-3.06-2.45-3.06a2.39,2.39,0,0,0-2.26,1.85,2.51,2.51,0,0,0-.1.62Z"/><path class="cls-29" d="M303.59,672a4,4,0,0,1-4.09,4.37,3.91,3.91,0,0,1-3.95-4.23,4,4,0,0,1,4.08-4.37A3.89,3.89,0,0,1,303.59,672Zm-6.52.09c0,1.8,1,3.16,2.5,3.16s2.5-1.34,2.5-3.2c0-1.39-.7-3.16-2.47-3.16S297.07,670.49,297.07,672.06Z"/><path class="cls-29" d="M305.48,670.49c0-1,0-1.8-.07-2.56h1.31l0,1.61h.07a2.48,2.48,0,0,1,2.28-1.8,1.88,1.88,0,0,1,.43,0v1.41a2.59,2.59,0,0,0-.51-.05,2.1,2.1,0,0,0-2,1.92,4.73,4.73,0,0,0-.07.7v4.38h-1.48Z"/><path class="cls-29" d="M313.25,665.56v2.37h2.14v1.14h-2.14v4.43c0,1,.29,1.6,1.12,1.6a3.44,3.44,0,0,0,.87-.1l.07,1.12a3.67,3.67,0,0,1-1.33.2,2.09,2.09,0,0,1-1.61-.62,3.06,3.06,0,0,1-.58-2.15v-4.48h-1.28v-1.14h1.28v-2Z"/><path class="cls-29" d="M317.13,664.83a17,17,0,0,1,2.84-.22,4.71,4.71,0,0,1,3.21.95,3.09,3.09,0,0,1,1,2.4,3.37,3.37,0,0,1-.88,2.45,5.7,5.7,0,0,1-4.69,1.15v4.59h-1.48Zm1.48,5.53a5.17,5.17,0,0,0,1.22.12c1.78,0,2.87-.87,2.87-2.45s-1.07-2.24-2.7-2.24a6.79,6.79,0,0,0-1.39.11Z"/><path class="cls-29" d="M325.85,670.49c0-1,0-1.8-.07-2.56h1.31l.05,1.61h.07a2.46,2.46,0,0,1,2.28-1.8,1.79,1.79,0,0,1,.42,0v1.41a2.51,2.51,0,0,0-.51-.05,2.09,2.09,0,0,0-2,1.92,3.68,3.68,0,0,0-.07.7v4.38h-1.48Z"/><path class="cls-29" d="M338.68,672a4,4,0,0,1-4.09,4.37,3.91,3.91,0,0,1-3.95-4.23,4,4,0,0,1,4.08-4.37A3.9,3.9,0,0,1,338.68,672Zm-6.52.09c0,1.8,1,3.16,2.49,3.16s2.5-1.34,2.5-3.2c0-1.39-.69-3.16-2.46-3.16S332.16,670.49,332.16,672.06Z"/><path class="cls-29" d="M338.56,678.53a2.44,2.44,0,0,0,1.64-.62c.4-.48.56-1.13.56-3.1v-6.88h1.49v7.46a4.51,4.51,0,0,1-1,3.38,3.78,3.78,0,0,1-2.55.94Zm3.86-12.91a.87.87,0,0,1-.93.91.89.89,0,0,1-.92-.91.92.92,0,0,1,.95-.94A.88.88,0,0,1,342.42,665.62Z"/><path class="cls-29" d="M345.53,672.31a2.64,2.64,0,0,0,2.83,2.86,5.33,5.33,0,0,0,2.27-.43l.26,1.07a6.66,6.66,0,0,1-2.74.51,3.81,3.81,0,0,1-4-4.14c0-2.48,1.46-4.44,3.85-4.44,2.69,0,3.4,2.36,3.4,3.88a5.05,5.05,0,0,1-.05.69Zm4.39-1.07a2.13,2.13,0,0,0-2.07-2.43,2.48,2.48,0,0,0-2.3,2.43Z"/><path class="cls-29" d="M359.08,675.85a5.59,5.59,0,0,1-2.36.47,3.91,3.91,0,0,1-4.1-4.19,4.18,4.18,0,0,1,4.42-4.37,5.09,5.09,0,0,1,2.08.42l-.34,1.16A3.43,3.43,0,0,0,357,669a2.84,2.84,0,0,0-2.9,3.11,2.81,2.81,0,0,0,2.85,3.07,4.41,4.41,0,0,0,1.84-.4Z"/><path class="cls-29" d="M362.86,665.56v2.37H365v1.14h-2.14v4.43c0,1,.29,1.6,1.12,1.6a3.44,3.44,0,0,0,.87-.1l.06,1.12a3.61,3.61,0,0,1-1.32.2,2.11,2.11,0,0,1-1.62-.62,3.11,3.11,0,0,1-.58-2.15v-4.48h-1.27v-1.14h1.27v-2Z"/><path class="cls-29" d="M730.25,426.24h-3.48V425h8.48v1.26h-3.5v10.2h-1.5Z"/><path class="cls-29" d="M736.1,432.6a2.64,2.64,0,0,0,2.82,2.85,5.4,5.4,0,0,0,2.28-.42l.26,1.07a6.66,6.66,0,0,1-2.74.51,3.83,3.83,0,0,1-4.05-4.15c0-2.48,1.47-4.43,3.86-4.43,2.69,0,3.4,2.36,3.4,3.87a5.23,5.23,0,0,1,0,.7Zm4.39-1.07a2.13,2.13,0,0,0-2.08-2.43,2.47,2.47,0,0,0-2.29,2.43Z"/><path class="cls-29" d="M749.65,436.13a5.41,5.41,0,0,1-2.36.48,3.91,3.91,0,0,1-4.1-4.2,4.18,4.18,0,0,1,4.42-4.37,4.86,4.86,0,0,1,2.07.43l-.34,1.15a3.46,3.46,0,0,0-1.73-.39,3.1,3.1,0,0,0-.05,6.19,4.15,4.15,0,0,0,1.83-.41Z"/><path class="cls-29" d="M751.4,424.37h1.5v5.13h0a2.84,2.84,0,0,1,1.07-1.05,3.12,3.12,0,0,1,1.53-.42c1.11,0,2.87.68,2.87,3.51v4.9h-1.49v-4.73c0-1.32-.49-2.44-1.9-2.44a2.15,2.15,0,0,0-2,1.49,1.77,1.77,0,0,0-.1.72v5h-1.5Z"/><path class="cls-29" d="M760.84,430.44c0-.85,0-1.55-.07-2.23h1.32l.09,1.36h0a3,3,0,0,1,2.72-1.54c1.14,0,2.91.68,2.91,3.5v4.91h-1.5V431.7c0-1.33-.49-2.43-1.9-2.43a2.12,2.12,0,0,0-2,1.53,2.34,2.34,0,0,0-.1.69v4.95h-1.49Z"/><path class="cls-29" d="M777.72,432.26a4,4,0,0,1-4.1,4.37,3.91,3.91,0,0,1-3.94-4.24,4,4,0,0,1,4.08-4.36A3.89,3.89,0,0,1,777.72,432.26Zm-6.53.08c0,1.8,1,3.16,2.5,3.16s2.5-1.34,2.5-3.19c0-1.39-.7-3.16-2.47-3.16S771.19,430.78,771.19,432.34Z"/><path class="cls-29" d="M779.6,424.37h1.5v12.07h-1.5Z"/><path class="cls-29" d="M791.06,432.26a4,4,0,0,1-4.1,4.37,3.92,3.92,0,0,1-3.94-4.24A4,4,0,0,1,787.1,428,3.89,3.89,0,0,1,791.06,432.26Zm-6.53.08c0,1.8,1,3.16,2.5,3.16s2.5-1.34,2.5-3.19c0-1.39-.7-3.16-2.46-3.16S784.53,430.78,784.53,432.34Z"/><path class="cls-29" d="M800,428.21c0,.6-.07,1.26-.07,2.26v4.78c0,1.89-.37,3-1.17,3.76a4.41,4.41,0,0,1-3,1,5.31,5.31,0,0,1-2.73-.68l.37-1.14a4.68,4.68,0,0,0,2.42.65c1.53,0,2.65-.8,2.65-2.87V435h0a2.94,2.94,0,0,1-2.61,1.38c-2,0-3.51-1.74-3.51-4,0-2.78,1.82-4.36,3.71-4.36a2.74,2.74,0,0,1,2.57,1.42h0l.07-1.24Zm-1.55,3.25a2.35,2.35,0,0,0-.08-.68,2.17,2.17,0,0,0-2.1-1.58c-1.42,0-2.44,1.21-2.44,3.11,0,1.61.81,3,2.43,3a2.18,2.18,0,0,0,2.07-1.53,2.51,2.51,0,0,0,.12-.8Z"/><path class="cls-29" d="M803,428.21l1.8,4.86c.18.55.39,1.19.52,1.69h0c.15-.5.32-1.13.53-1.72l1.63-4.83h1.58l-2.25,5.87c-1.07,2.82-1.8,4.26-2.82,5.15a4.15,4.15,0,0,1-1.83,1l-.38-1.26a4,4,0,0,0,1.31-.73,4.55,4.55,0,0,0,1.26-1.67,1,1,0,0,0,.12-.36,1.67,1.67,0,0,0-.1-.39l-3-7.58Z"/><path class="cls-29" d="M694.12,445.54a20.63,20.63,0,0,1,3.15-.24,6.56,6.56,0,0,1,4.64,1.43,5.26,5.26,0,0,1,1.61,4.11,6,6,0,0,1-1.65,4.45,7.06,7.06,0,0,1-5.06,1.65,25.32,25.32,0,0,1-2.69-.13Zm1.48,10.13a10.48,10.48,0,0,0,1.5.08c3.16,0,4.87-1.77,4.87-4.86,0-2.7-1.51-4.42-4.64-4.42a8.8,8.8,0,0,0-1.73.15Z"/><path class="cls-29" d="M706.29,453a2.64,2.64,0,0,0,2.82,2.85,5.4,5.4,0,0,0,2.28-.42l.26,1.07a6.66,6.66,0,0,1-2.74.51,3.83,3.83,0,0,1-4-4.15c0-2.48,1.47-4.43,3.86-4.43,2.69,0,3.4,2.36,3.4,3.87a5.23,5.23,0,0,1,0,.7Zm4.39-1.07a2.13,2.13,0,0,0-2.08-2.43,2.47,2.47,0,0,0-2.29,2.43Z"/><path class="cls-29" d="M714.55,448.61l1.62,4.63a20.86,20.86,0,0,1,.66,2.1h0c.19-.68.43-1.36.7-2.1l1.6-4.63h1.56l-3.23,8.23h-1.43L713,448.61Z"/><path class="cls-29" d="M722.82,453a2.63,2.63,0,0,0,2.82,2.85,5.43,5.43,0,0,0,2.28-.42l.25,1.07a6.66,6.66,0,0,1-2.74.51,3.82,3.82,0,0,1-4-4.15c0-2.48,1.46-4.43,3.86-4.43,2.68,0,3.4,2.36,3.4,3.87,0,.31,0,.54,0,.7Zm4.38-1.07a2.13,2.13,0,0,0-2.07-2.43,2.48,2.48,0,0,0-2.3,2.43Z"/><path class="cls-29" d="M730.5,444.77H732v12.07h-1.5Z"/><path class="cls-29" d="M742,452.66a4,4,0,0,1-4.1,4.37,3.91,3.91,0,0,1-3.94-4.24,4,4,0,0,1,4.08-4.36A3.89,3.89,0,0,1,742,452.66Zm-6.53.08c0,1.8,1,3.16,2.5,3.16s2.5-1.34,2.5-3.19c0-1.39-.7-3.16-2.47-3.16S735.43,451.18,735.43,452.74Z"/><path class="cls-29" d="M743.84,451.3c0-1.06,0-1.91-.06-2.69h1.34l.07,1.41h0a3.23,3.23,0,0,1,2.93-1.59c2,0,3.48,1.68,3.48,4.18,0,2.95-1.8,4.42-3.74,4.42a2.87,2.87,0,0,1-2.53-1.3h0v4.48h-1.48Zm1.48,2.19a3.66,3.66,0,0,0,.07.61,2.3,2.3,0,0,0,2.25,1.75c1.58,0,2.49-1.29,2.49-3.17,0-1.65-.86-3.06-2.44-3.06a2.38,2.38,0,0,0-2.26,1.85,2.12,2.12,0,0,0-.11.61Z"/><path class="cls-29" d="M753.52,450.84c0-.85,0-1.55-.07-2.23h1.31l.07,1.33h0a2.83,2.83,0,0,1,2.58-1.51,2.44,2.44,0,0,1,2.33,1.64h0a3.62,3.62,0,0,1,.92-1.07,2.83,2.83,0,0,1,1.82-.57c1.09,0,2.7.71,2.7,3.57v4.84H763.8v-4.66c0-1.58-.58-2.53-1.78-2.53a1.94,1.94,0,0,0-1.77,1.36,2.41,2.41,0,0,0-.12.75v5.08h-1.46v-4.93c0-1.31-.58-2.26-1.72-2.26a2,2,0,0,0-1.85,1.5,1.93,1.93,0,0,0-.12.73v5h-1.46Z"/><path class="cls-29" d="M768.53,453a2.63,2.63,0,0,0,2.82,2.85,5.4,5.4,0,0,0,2.28-.42l.25,1.07a6.56,6.56,0,0,1-2.73.51,3.82,3.82,0,0,1-4-4.15c0-2.48,1.46-4.43,3.86-4.43,2.68,0,3.4,2.36,3.4,3.87,0,.31,0,.54-.05.7Zm4.38-1.07a2.13,2.13,0,0,0-2.07-2.43,2.47,2.47,0,0,0-2.29,2.43Z"/><path class="cls-29" d="M776.21,450.84c0-.85,0-1.55-.07-2.23h1.33l.09,1.36h0a3,3,0,0,1,2.72-1.54c1.14,0,2.91.68,2.91,3.5v4.91h-1.5V452.1c0-1.33-.49-2.43-1.9-2.43a2.12,2.12,0,0,0-2,1.53,2,2,0,0,0-.1.69v4.95h-1.5Z"/><path class="cls-29" d="M787.38,446.25v2.36h2.14v1.14h-2.14v4.44c0,1,.29,1.6,1.12,1.6a3.35,3.35,0,0,0,.87-.11l.07,1.13a3.91,3.91,0,0,1-1.33.2,2.06,2.06,0,0,1-1.61-.63,3,3,0,0,1-.58-2.14v-4.49h-1.28v-1.14h1.28v-2Z"/><path class="cls-29" d="M794.86,445.52a17,17,0,0,1,2.84-.22,4.71,4.71,0,0,1,3.21.95,3.08,3.08,0,0,1,1,2.4,3.35,3.35,0,0,1-.89,2.44,4.72,4.72,0,0,1-3.5,1.26,5.39,5.39,0,0,1-1.19-.1v4.59h-1.48Zm1.48,5.52a4.69,4.69,0,0,0,1.22.12c1.79,0,2.88-.86,2.88-2.45s-1.07-2.24-2.71-2.24a6,6,0,0,0-1.39.12Z"/><path class="cls-29" d="M803.58,451.18c0-1,0-1.8-.07-2.57h1.31l0,1.62h.07a2.47,2.47,0,0,1,2.28-1.8,1.34,1.34,0,0,1,.42.05v1.41a1.91,1.91,0,0,0-.51-.05,2.09,2.09,0,0,0-2,1.92,3.58,3.58,0,0,0-.07.69v4.39h-1.48Z"/><path class="cls-29" d="M816.42,452.66a4,4,0,0,1-4.1,4.37,3.91,3.91,0,0,1-3.94-4.24,4,4,0,0,1,4.08-4.36A3.89,3.89,0,0,1,816.42,452.66Zm-6.53.08c0,1.8,1,3.16,2.5,3.16s2.5-1.34,2.5-3.19c0-1.39-.7-3.16-2.47-3.16S809.89,451.18,809.89,452.74Z"/><path class="cls-29" d="M816.3,459.22a2.42,2.42,0,0,0,1.63-.63c.41-.48.56-1.12.56-3.09v-6.89H820v7.46a4.53,4.53,0,0,1-1,3.39,3.8,3.8,0,0,1-2.55.93Zm3.86-12.92a.89.89,0,0,1-.94.92.9.9,0,0,1-.92-.92.92.92,0,0,1,1-.93A.88.88,0,0,1,820.16,446.3Z"/><path class="cls-29" d="M823.27,453a2.63,2.63,0,0,0,2.82,2.85,5.4,5.4,0,0,0,2.28-.42l.25,1.07a6.6,6.6,0,0,1-2.73.51,3.82,3.82,0,0,1-4-4.15c0-2.48,1.46-4.43,3.86-4.43,2.68,0,3.4,2.36,3.4,3.87,0,.31,0,.54-.05.7Zm4.38-1.07a2.13,2.13,0,0,0-2.07-2.43,2.48,2.48,0,0,0-2.3,2.43Z"/><path class="cls-29" d="M836.82,456.53a5.42,5.42,0,0,1-2.37.48,3.9,3.9,0,0,1-4.09-4.2,4.18,4.18,0,0,1,4.42-4.37,4.9,4.9,0,0,1,2.07.43l-.34,1.15a3.52,3.52,0,0,0-1.73-.39,2.85,2.85,0,0,0-2.91,3.11,2.82,2.82,0,0,0,2.86,3.08,4.15,4.15,0,0,0,1.83-.41Z"/><path class="cls-29" d="M840.59,446.25v2.36h2.14v1.14h-2.14v4.44c0,1,.29,1.6,1.12,1.6a3.35,3.35,0,0,0,.87-.11l.07,1.13a3.91,3.91,0,0,1-1.33.2,2,2,0,0,1-1.61-.63,3,3,0,0,1-.58-2.14v-4.49h-1.28v-1.14h1.28v-2Z"/><path class="cls-29" d="M125.33,436.07a7.45,7.45,0,0,1-3,.54c-3.23,0-5.66-2-5.66-5.8a5.7,5.7,0,0,1,6-6,6,6,0,0,1,2.72.51l-.35,1.2a5.47,5.47,0,0,0-2.32-.47c-2.68,0-4.47,1.71-4.47,4.72,0,2.81,1.62,4.61,4.41,4.61a5.9,5.9,0,0,0,2.41-.48Z"/><path class="cls-29" d="M134.39,432.26a4,4,0,0,1-4.1,4.37,3.91,3.91,0,0,1-3.94-4.24,4,4,0,0,1,4.08-4.36A3.89,3.89,0,0,1,134.39,432.26Zm-6.53.08c0,1.8,1,3.16,2.5,3.16s2.5-1.34,2.5-3.19c0-1.39-.7-3.16-2.47-3.16S127.86,430.78,127.86,432.34Z"/><path class="cls-29" d="M140,431.29v1.1h-4.2v-1.1Z"/><path class="cls-29" d="M150,436.07a7.36,7.36,0,0,1-3,.54c-3.23,0-5.66-2-5.66-5.8a5.7,5.7,0,0,1,6-6,6,6,0,0,1,2.72.51l-.36,1.2a5.42,5.42,0,0,0-2.31-.47c-2.68,0-4.47,1.71-4.47,4.72,0,2.81,1.62,4.61,4.4,4.61a6,6,0,0,0,2.42-.48Z"/><path class="cls-29" d="M151.79,430.78c0-1,0-1.8-.06-2.57H153l.05,1.62h.06a2.47,2.47,0,0,1,2.28-1.8,1.45,1.45,0,0,1,.43.05v1.41a2,2,0,0,0-.51-.05,2.1,2.1,0,0,0-2,1.92,4.59,4.59,0,0,0-.07.69v4.39h-1.48Z"/><path class="cls-29" d="M158,432.6a2.63,2.63,0,0,0,2.82,2.85,5.43,5.43,0,0,0,2.28-.42l.25,1.07a6.66,6.66,0,0,1-2.74.51,3.82,3.82,0,0,1-4-4.15c0-2.48,1.46-4.43,3.86-4.43,2.68,0,3.4,2.36,3.4,3.87,0,.31,0,.54,0,.7Zm4.38-1.07a2.12,2.12,0,0,0-2.07-2.43,2.48,2.48,0,0,0-2.3,2.43Z"/><path class="cls-29" d="M170.26,436.44l-.12-1h0a3.07,3.07,0,0,1-2.52,1.23,2.35,2.35,0,0,1-2.52-2.37c0-2,1.77-3.07,4.95-3.06V431a1.69,1.69,0,0,0-1.87-1.9,4.15,4.15,0,0,0-2.14.61l-.34-1a5,5,0,0,1,2.7-.73c2.52,0,3.13,1.71,3.13,3.36v3.08a10.79,10.79,0,0,0,.14,2Zm-.23-4.2c-1.63,0-3.48.26-3.48,1.85a1.33,1.33,0,0,0,1.41,1.43,2,2,0,0,0,2-1.38,1.55,1.55,0,0,0,.08-.47Z"/><path class="cls-29" d="M175.63,425.85v2.36h2.14v1.14h-2.14v4.44c0,1,.29,1.6,1.12,1.6a3.35,3.35,0,0,0,.87-.11l.06,1.13a3.8,3.8,0,0,1-1.32.2,2.08,2.08,0,0,1-1.62-.63,3.06,3.06,0,0,1-.57-2.14v-4.49h-1.28v-1.14h1.28v-2Z"/><path class="cls-29" d="M181.12,425.9a.93.93,0,0,1-1.85,0,.9.9,0,0,1,.93-.93A.88.88,0,0,1,181.12,425.9Zm-1.67,10.54v-8.23H181v8.23Z"/><path class="cls-29" d="M190.88,432.26a4,4,0,0,1-4.1,4.37,3.91,3.91,0,0,1-3.94-4.24,4,4,0,0,1,4.08-4.36A3.89,3.89,0,0,1,190.88,432.26Zm-6.53.08c0,1.8,1,3.16,2.5,3.16s2.5-1.34,2.5-3.19c0-1.39-.7-3.16-2.47-3.16S184.35,430.78,184.35,432.34Z"/><path class="cls-29" d="M192.76,430.44c0-.85,0-1.55-.06-2.23H194l.09,1.36h0a3,3,0,0,1,2.72-1.54c1.14,0,2.91.68,2.91,3.5v4.91h-1.5V431.7c0-1.33-.49-2.43-1.9-2.43a2.12,2.12,0,0,0-2,1.53,2,2,0,0,0-.1.69v4.95h-1.5Z"/><path class="cls-29" d="M109.12,455a5.21,5.21,0,0,0,2.65.75c1.51,0,2.4-.8,2.4-2s-.62-1.68-2.16-2.28c-1.87-.66-3-1.63-3-3.24,0-1.79,1.48-3.11,3.71-3.11a5.19,5.19,0,0,1,2.53.56l-.41,1.2a4.6,4.6,0,0,0-2.17-.54c-1.57,0-2.16.93-2.16,1.72,0,1.07.69,1.59,2.27,2.21,1.94.74,2.93,1.68,2.93,3.36s-1.31,3.3-4,3.3a5.9,5.9,0,0,1-2.93-.73Z"/><path class="cls-29" d="M119.4,446.25v2.36h2.14v1.14H119.4v4.44c0,1,.29,1.6,1.12,1.6a3.35,3.35,0,0,0,.87-.11l.07,1.13a3.91,3.91,0,0,1-1.33.2,2.06,2.06,0,0,1-1.61-.63,3,3,0,0,1-.58-2.14v-4.49h-1.28v-1.14h1.28v-2Z"/><path class="cls-29" d="M127.78,456.84l-.12-1h0A3.05,3.05,0,0,1,125.1,457a2.35,2.35,0,0,1-2.52-2.37c0-2,1.77-3.07,5-3.06v-.17a1.69,1.69,0,0,0-1.87-1.9,4.09,4.09,0,0,0-2.14.61l-.34-1a5,5,0,0,1,2.7-.73c2.51,0,3.13,1.71,3.13,3.36v3.08a11.83,11.83,0,0,0,.13,2Zm-.22-4.2c-1.63,0-3.48.26-3.48,1.85a1.32,1.32,0,0,0,1.41,1.43,2,2,0,0,0,2-1.38,1.55,1.55,0,0,0,.08-.47Z"/><path class="cls-29" d="M131.42,451.18c0-1,0-1.8-.07-2.57h1.31l.05,1.62h.07a2.46,2.46,0,0,1,2.28-1.8,1.34,1.34,0,0,1,.42.05v1.41a1.91,1.91,0,0,0-.51-.05,2.09,2.09,0,0,0-2,1.92,3.58,3.58,0,0,0-.07.69v4.39h-1.48Z"/><path class="cls-29" d="M139.19,446.25v2.36h2.14v1.14h-2.14v4.44c0,1,.29,1.6,1.12,1.6a3.35,3.35,0,0,0,.87-.11l.07,1.13a3.91,3.91,0,0,1-1.33.2,2.08,2.08,0,0,1-1.62-.63,3.06,3.06,0,0,1-.57-2.14v-4.49h-1.28v-1.14h1.28v-2Z"/><path class="cls-29" d="M143.74,453a2.64,2.64,0,0,0,2.83,2.85,5.35,5.35,0,0,0,2.27-.42l.26,1.07a6.66,6.66,0,0,1-2.74.51,3.82,3.82,0,0,1-4-4.15c0-2.48,1.46-4.43,3.86-4.43,2.68,0,3.4,2.36,3.4,3.87a4.91,4.91,0,0,1-.06.7Zm4.39-1.07a2.13,2.13,0,0,0-2.07-2.43,2.48,2.48,0,0,0-2.3,2.43Z"/><path class="cls-29" d="M151.43,451.18c0-1,0-1.8-.07-2.57h1.31l.05,1.62h.07a2.45,2.45,0,0,1,2.28-1.8,1.34,1.34,0,0,1,.42.05v1.41a1.91,1.91,0,0,0-.51-.05,2.09,2.09,0,0,0-2,1.92,3.58,3.58,0,0,0-.07.69v4.39h-1.48Z"/><path class="cls-29" d="M160.64,445.52a17.12,17.12,0,0,1,2.84-.22,4.71,4.71,0,0,1,3.21.95,3.08,3.08,0,0,1,1,2.4,3.35,3.35,0,0,1-.89,2.44,4.7,4.7,0,0,1-3.5,1.26,5.39,5.39,0,0,1-1.19-.1v4.59h-1.48Zm1.48,5.52a4.73,4.73,0,0,0,1.23.12c1.78,0,2.87-.86,2.87-2.45s-1.07-2.24-2.7-2.24a6.14,6.14,0,0,0-1.4.12Z"/><path class="cls-29" d="M169.36,451.18c0-1,0-1.8-.06-2.57h1.3l.06,1.62h.06a2.47,2.47,0,0,1,2.28-1.8,1.45,1.45,0,0,1,.43.05v1.41a2,2,0,0,0-.51-.05,2.1,2.1,0,0,0-2,1.92,4.59,4.59,0,0,0-.07.69v4.39h-1.48Z"/><path class="cls-29" d="M182.2,452.66a4,4,0,0,1-4.1,4.37,3.91,3.91,0,0,1-3.94-4.24,4,4,0,0,1,4.08-4.36A3.89,3.89,0,0,1,182.2,452.66Zm-6.53.08c0,1.8,1,3.16,2.5,3.16s2.5-1.34,2.5-3.19c0-1.39-.7-3.16-2.47-3.16S175.67,451.18,175.67,452.74Z"/><path class="cls-29" d="M182.08,459.22a2.42,2.42,0,0,0,1.63-.63c.41-.48.56-1.12.56-3.09v-6.89h1.5v7.46a4.53,4.53,0,0,1-1,3.39,3.8,3.8,0,0,1-2.55.93Zm3.86-12.92a.88.88,0,0,1-.94.92.89.89,0,0,1-.91-.92.91.91,0,0,1,.95-.93A.88.88,0,0,1,185.94,446.3Z"/><path class="cls-29" d="M189.05,453a2.63,2.63,0,0,0,2.82,2.85,5.4,5.4,0,0,0,2.28-.42l.25,1.07a6.56,6.56,0,0,1-2.73.51,3.82,3.82,0,0,1-4-4.15c0-2.48,1.46-4.43,3.86-4.43,2.69,0,3.4,2.36,3.4,3.87a5.23,5.23,0,0,1,0,.7Zm4.39-1.07a2.14,2.14,0,0,0-2.08-2.43,2.47,2.47,0,0,0-2.29,2.43Z"/><path class="cls-29" d="M202.6,456.53a5.41,5.41,0,0,1-2.36.48,3.91,3.91,0,0,1-4.1-4.2,4.18,4.18,0,0,1,4.42-4.37,4.9,4.9,0,0,1,2.07.43l-.34,1.15a3.52,3.52,0,0,0-1.73-.39,3.1,3.1,0,0,0-.05,6.19,4.15,4.15,0,0,0,1.83-.41Z"/><path class="cls-29" d="M206.37,446.25v2.36h2.14v1.14h-2.14v4.44c0,1,.29,1.6,1.12,1.6a3.35,3.35,0,0,0,.87-.11l.07,1.13a3.91,3.91,0,0,1-1.33.2,2.07,2.07,0,0,1-1.61-.63,3,3,0,0,1-.58-2.14v-4.49h-1.27v-1.14h1.27v-2Z"/></g></g></svg>