<svg xmlns="http://www.w3.org/2000/svg" viewBox="0 0 1208 826.42"><defs><style>.cls-1{fill:#010101;}.cls-2{fill:#0489ae;}.cls-10,.cls-11,.cls-12,.cls-13,.cls-14,.cls-15,.cls-16,.cls-17,.cls-18,.cls-19,.cls-2,.cls-3,.cls-4,.cls-5,.cls-6,.cls-7,.cls-8,.cls-9{stroke:#231f20;stroke-width:0.25px;}.cls-10,.cls-11,.cls-12,.cls-13,.cls-15,.cls-16,.cls-17,.cls-18,.cls-2,.cls-4,.cls-5,.cls-6,.cls-7,.cls-8,.cls-9{stroke-miterlimit:10;}.cls-15,.cls-3{fill:#1d996c;}.cls-14,.cls-19,.cls-24,.cls-3{stroke-linecap:round;stroke-linejoin:round;}.cls-4{fill:#b9a030;}.cls-5{fill:#29aae1;}.cls-14,.cls-6{fill:#57bf9b;}.cls-7{fill:#fcee1f;}.cls-8{fill:#0098c0;}.cls-9{fill:#29abe2;}.cls-10{fill:#61ccf2;}.cls-11{fill:#b2e3f6;}.cls-12{fill:#d1eaf3;}.cls-13{fill:#1c996b;}.cls-16{fill:#0988ae;}.cls-17{fill:#57bf99;}.cls-18{fill:#b69e30;}.cls-19{fill:#fbed19;}.cls-20,.cls-24{font-size:100px;font-family:Raleway-ExtraBold, Raleway;font-weight:700;letter-spacing:0.01em;}.cls-20{fill:#fff175;}.cls-21{letter-spacing:-0.01em;}.cls-22{letter-spacing:0.01em;}.cls-23{letter-spacing:-0.01em;}.cls-24{fill:none;stroke:#2ba9e0;stroke-width:3px;}.cls-25{font-size:77px;fill:#58be98;font-family:Raleway-ExtraLight, Raleway;letter-spacing:0.01em;}.cls-26{fill:#fff;}</style></defs><title>indexservices1200</title><g id="Layer_2" data-name="Layer 2"><g id="Layer_1-2" data-name="Layer 1"><rect class="cls-1" y="143.61" width="1208" height="682.81"/><path class="cls-2" d="M264.2,259.83a32.91,32.91,0,0,0-27.79,50.56l-.39,1.33,4.25,3.64a28.84,28.84,0,0,1,44.1-4.51l-.5.87,4.26,3.64a32.91,32.91,0,0,0-23.93-55.53Zm0,39.09a12.5,12.5,0,1,1,12.5-12.5A12.5,12.5,0,0,1,264.2,298.92Z"/><path class="cls-3" d="M350.86,289.7v36.89a3.18,3.18,0,0,1-3.18,3.19,3.24,3.24,0,0,1-2.24-.91l0,0-4-3.44,3.09-1.4V289.7a.67.67,0,0,0-.67-.66H306.59a3.23,3.23,0,0,1-1.89-.61l-.06-.05-.18-.15-4.56-3.82,4.84-1.15,2.48-.59h36.6A7,7,0,0,1,350.86,289.7Z"/><path class="cls-3" d="M307.22,282.67l-2.48.59a3.18,3.18,0,0,1,1.85-.59Z"/><polygon class="cls-3" points="308.12 282.45 308 282.67 307.22 282.67 308.12 282.45"/><path class="cls-4" d="M257.88,314.92l33.36,24.36a.43.43,0,0,1-.19.76l-13.86,3a.43.43,0,0,0-.23.74l24.34,21.51a.44.44,0,0,1-.54.69L259.07,341.5a.42.42,0,0,1,.1-.77l12.21-4.28a.45.45,0,0,0,.23-.66l-14.37-20.27C257,315.13,257.49,314.64,257.88,314.92Z"/><path class="cls-5" d="M260,256.19A32.92,32.92,0,0,0,236,311.72a28.83,28.83,0,0,1,47.86,0A32.92,32.92,0,0,0,260,256.19Zm0,39.08a12.49,12.49,0,1,1,12.5-12.5A12.49,12.49,0,0,1,260,295.27Z"/><path class="cls-2" d="M343.42,337a32.91,32.91,0,0,0-27.79,50.55l-.39,1.33,4.26,3.65a28.83,28.83,0,0,1,44.1-4.52l-.51.87,4.26,3.65A32.91,32.91,0,0,0,343.42,337Zm0,39.08a12.5,12.5,0,1,1,12.5-12.5A12.5,12.5,0,0,1,343.42,376.12Z"/><path class="cls-5" d="M339.17,333.39a32.92,32.92,0,0,0-23.93,55.53,28.84,28.84,0,0,1,47.86,0,32.91,32.91,0,0,0-23.93-55.53Zm0,39.09a12.5,12.5,0,1,1,12.5-12.5A12.5,12.5,0,0,1,339.17,372.48Z"/><path class="cls-6" d="M343.42,326.13a3.18,3.18,0,0,1-3.19-3.18V286.06a.66.66,0,0,0-.67-.66H302.34a3.19,3.19,0,0,1,0-6.38h37.22a7.05,7.05,0,0,1,7.05,7V323A3.18,3.18,0,0,1,343.42,326.13Z"/><path class="cls-7" d="M253.63,311.28,287,335.63a.43.43,0,0,1-.19.77l-13.86,3a.43.43,0,0,0-.23.74l24.34,21.52c.38.34-.1.95-.55.69l-41.68-24.44a.42.42,0,0,1,.1-.77l12.2-4.29a.43.43,0,0,0,.23-.65L253,311.88A.45.45,0,0,1,253.63,311.28Z"/><rect class="cls-4" x="576.53" y="390.05" width="66.63" height="17.23"/><path class="cls-8" d="M559.46,325.94c11.14,2.92,27.44,4.88,45.82,5.18l-15.34,10.54c-26.65-1.88-45.92-7.38-45.92-13.89V316.56c0,2,1.79,3.88,5.05,5.61A49.82,49.82,0,0,0,559.46,325.94Z"/><path class="cls-8" d="M676.47,316.56v11.21c0,6.51-19.29,12-45.93,13.89L615.2,331.12c22.39-.36,41.69-3.19,52.38-7.24a36.15,36.15,0,0,0,3.83-1.71C674.68,320.44,676.47,318.55,676.47,316.56Z"/><path class="cls-9" d="M559.46,343.33a154.28,154.28,0,0,0,22.48,3.84l-11,7.54-.08.06a5.46,5.46,0,0,0-.45.36,2.87,2.87,0,0,0-.39.39,2.63,2.63,0,0,0-.3.38,4.5,4.5,0,0,0-.43.73C553.91,354,544,349.82,544,345.17V334c0,2,1.79,3.89,5.05,5.61A49.82,49.82,0,0,0,559.46,343.33Z"/><path class="cls-9" d="M676.47,334v11.22c0,4.66-9.89,8.8-25.3,11.46a3.86,3.86,0,0,0-.37-.66,4.83,4.83,0,0,0-.34-.45,4.71,4.71,0,0,0-.85-.75l-.17-.11-10.92-7.51c12.18-1.26,22.32-3.33,29.06-5.88a34.23,34.23,0,0,0,3.83-1.71C674.68,337.84,676.47,335.94,676.47,334Z"/><path class="cls-10" d="M559.46,360.71c2.82.75,6,1.43,9.43,2V374c-15.17-2.67-24.87-6.78-24.87-11.4V351.34c0,2,1.79,3.88,5.05,5.6A49.25,49.25,0,0,0,559.46,360.71Z"/><path class="cls-10" d="M676.47,351.34v11.21c0,4.62-9.71,8.72-24.86,11.4V362.73a90.36,90.36,0,0,0,16-4.08,34.23,34.23,0,0,0,3.83-1.71C674.68,355.22,676.47,353.32,676.47,351.34Z"/><path class="cls-11" d="M559.46,378.09A142,142,0,0,0,577,381.36l-4.06,7.08a.41.41,0,0,0,0,.08,2.67,2.67,0,0,0-.2.42,1.86,1.86,0,0,0-.1.25,1.21,1.21,0,0,0-.09.31.37.37,0,0,0,0,.14c0,.11-.05.23-.08.36a4.36,4.36,0,0,0,0,.72v1.18c-17.12-2.64-28.32-7-28.32-12V368.72c0,2,1.79,3.88,5.05,5.6A49.25,49.25,0,0,0,559.46,378.09Z"/><path class="cls-11" d="M676.47,368.72v11.21c0,4.95-11.19,9.33-28.31,12v-1.18a4.37,4.37,0,0,0-.06-.72,1.9,1.9,0,0,0-.08-.36c0-.05,0-.09,0-.13l-.18-.5a.15.15,0,0,0,0-.07c-.07-.17-.15-.33-.24-.5l-.17-.28-3.88-6.82c10-1.27,18.29-3.11,24.08-5.3a34.17,34.17,0,0,0,3.83-1.72C674.68,372.6,676.47,370.71,676.47,368.72Z"/><path class="cls-12" d="M572.34,408a4.44,4.44,0,0,0,.2,1.36c-17.23-2.63-28.52-7-28.52-12V386.1c0,2,1.79,3.88,5.05,5.61a49.82,49.82,0,0,0,10.39,3.77,128.42,128.42,0,0,0,12.88,2.6Z"/><path class="cls-12" d="M676.47,386.1v11.21c0,5-11.28,9.37-28.52,12a4.44,4.44,0,0,0,.21-1.36v-9.88a100.52,100.52,0,0,0,19.42-4.65,36.15,36.15,0,0,0,3.83-1.71C674.68,390,676.47,388.09,676.47,386.1Z"/><ellipse class="cls-2" cx="610.25" cy="310.01" rx="66.22" ry="14.59"/><polygon class="cls-4" points="594.91 357.88 585.06 375.12 573.08 375.12 573.08 357.88 594.91 357.88"/><polygon class="cls-4" points="646.61 357.88 646.61 375.12 634.62 375.12 624.78 357.88 646.61 357.88"/><polygon class="cls-7" points="634.62 375.12 643.16 390.05 576.52 390.05 585.06 375.12 594.91 357.88 573.08 357.88 609.84 332.61 646.61 357.88 624.78 357.88 634.62 375.12"/><path class="cls-6" d="M640.23,266.31c-1.6-.31-3.19-.58-4.68-.86l-2.64-6.36c.82-1.16,1.72-2.43,2.62-3.72,1.4-2,1.27-3.7-.44-5.46-.83-.87-1.69-1.7-2.55-2.54a3.89,3.89,0,0,0-5.33-.45c-1.29.88-2.56,1.77-3.73,2.58-2-.78-3.83-1.5-5.67-2.16a1.23,1.23,0,0,1-.91-1.13c-.2-1.45-.44-2.89-.77-4.31a3.21,3.21,0,0,0-2.79-2.76,31.78,31.78,0,0,0-5.77-.09c-1.89.16-2.94,1.42-3.27,3.34-.26,1.58-.54,3.14-.79,4.58l-6.37,2.58-1.87-1.3c-.68-.47-1.36-1-2-1.42a3.87,3.87,0,0,0-5.1.47q-1.33,1.29-2.61,2.61a3.87,3.87,0,0,0-.48,5.48l2.59,3.71c-.91,2.19-1.79,4.26-2.67,6.38-1.51.28-3.08.54-4.64.84a3.88,3.88,0,0,0-3.34,4c0,1.2,0,2.4,0,3.6a3.92,3.92,0,0,0,3.64,4.22c1.5.26,3,.54,4.35.79.92,2.17,1.77,4.22,2.66,6.36L585,289a3.75,3.75,0,0,0-.27,4.44c6.83-1.4,15.88-1.43,25.66-1.43s18.63,0,25.48,1.44c.89-1.42.76-2.87-.38-4.51l-2.55-3.65c.9-2.17,1.76-4.21,2.63-6.32l2.26-.43c.82-.13,1.65-.26,2.46-.41a3.83,3.83,0,0,0,3.26-3.93v-3.9A3.73,3.73,0,0,0,640.23,266.31Zm-29.94,17.24a11.39,11.39,0,1,1,11.41-11.33A11.32,11.32,0,0,1,610.29,283.55Z"/><path class="cls-4" d="M982.59,305.25V369.6H844.51L842,367.07l2.52-1.3V340.13c.18-.1.35-.22.53-.34l3-2.07.6,6c.24,1.33,1.39,1.6,1.62,3,.7,4,6.67,3.8,10.66,4.08,1.25.09,2.56.13,4.12.13l1.89,0c5.22-.08,8.65-3.13,9.42-8.33.16-1.07.34-2.14.52-3.19l4.19-1.7,1.47,1c.63.46,1.26.9,1.91,1.33a9.34,9.34,0,0,0,5.17,1.61,9,9,0,0,0,6.27-2.6c1.14-1.09,2.28-2.22,3.51-3.46,3.6-3.66,4-8,1-12.26-.68-1-1.37-2-2-2.92l1.74-4.14.75-.14,1.29-.22c.64-.1,1.29-.21,1.93-.33a9,9,0,0,0,7.47-9v-5.05a9.09,9.09,0,0,0-2.25-6.25h63.32A10,10,0,0,1,982.59,305.25Z"/><path class="cls-2" d="M838.75,376.08H988.36a0,0,0,0,1,0,0v0a12.17,12.17,0,0,1-12.17,12.17H850.92a12.17,12.17,0,0,1-12.17-12.17v0a0,0,0,0,1,0,0Z"/><path class="cls-13" d="M901.44,294.73c-2.07-.42-4.15-.76-6.09-1.11l-3.42-8,3.4-4.69c1.82-2.56,1.65-4.69-.57-6.91-1.07-1.1-2.2-2.16-3.31-3.23a5.2,5.2,0,0,0-6.93-.56l-4.86,3.26c-2.63-1-5-1.89-7.38-2.72a1.58,1.58,0,0,1-1.17-1.43c-.27-1.82-.58-3.64-1-5.45a4.12,4.12,0,0,0-3.63-3.47,41.77,41.77,0,0,0-7.5-.12c-2.45.19-3.83,1.79-4.25,4.22-.34,2-.7,4-1,5.79l-8.3,3.24c-.73-.47-1.57-1-2.43-1.63s-1.77-1.22-2.66-1.8a5.2,5.2,0,0,0-6.64.6c-1.14,1.08-2.28,2.18-3.4,3.3-2.19,2.18-2.38,4.42-.61,6.91,1.16,1.63,2.32,3.23,3.36,4.69-1.18,2.78-2.32,5.39-3.48,8.07-1.95.34-4,.69-6,1.06a4.91,4.91,0,0,0-4.33,5c0,1.52,0,3,0,4.54,0,3,1.62,4.84,4.73,5.35,2,.31,3.91.68,5.66,1,1.19,2.75,2.29,5.33,3.46,8-1.1,1.49-2.29,3.08-3.45,4.7a4.74,4.74,0,0,0,.55,6.72l3.41,3.29a5.13,5.13,0,0,0,7,.58c1.65-1.11,3.31-2.24,4.77-3.21l8.31,3.25c.36,2,.75,4,1.12,6.1a4.67,4.67,0,0,0,4.31,3.9c1.91.13,3.81.13,5.71.1,3.33-.06,5.07-1.61,5.57-4.81.29-1.83.61-3.64.9-5.35,2.82-1.11,5.52-2.18,8.33-3.27l2.46,1.65c.88.6,1.75,1.22,2.67,1.79a5.07,5.07,0,0,0,6.51-.54q1.74-1.6,3.42-3.27c2.26-2.23,2.44-4.45.6-7l-3.31-4.61,3.42-8,2.94-.54c1.06-.18,2.13-.33,3.2-.53a4.87,4.87,0,0,0,4.23-5c0-1.64,0-3.27,0-4.93C905.71,297,904.26,295.26,901.44,294.73Zm-37.92,34.32a27.53,27.53,0,1,1,27.53-27.52A27.52,27.52,0,0,1,863.52,329.05Z"/><path class="cls-14" d="M899.82,292.78c-2.07-.41-4.15-.76-6.09-1.1-1.15-2.7-2.25-5.28-3.43-8l3.41-4.7c1.82-2.56,1.65-4.68-.57-6.91-1.08-1.09-2.2-2.15-3.31-3.22a5.21,5.21,0,0,0-6.94-.56c-1.67,1.11-3.34,2.25-4.85,3.26-2.63-1-5-1.9-7.38-2.73a1.56,1.56,0,0,1-1.18-1.42c-.27-1.82-.58-3.64-1-5.44a4.14,4.14,0,0,0-3.63-3.49,43.82,43.82,0,0,0-7.51-.12c-2.44.2-3.82,1.79-4.24,4.23-.35,2-.7,4-1,5.78l-8.3,3.25L841.35,270c-.9-.6-1.77-1.22-2.67-1.8a5.18,5.18,0,0,0-6.64.6c-1.14,1.08-2.28,2.18-3.39,3.3-2.19,2.19-2.39,4.42-.62,6.91,1.16,1.63,2.33,3.23,3.37,4.69l-3.47,8.06c-2,.35-4,.69-6,1.07a4.93,4.93,0,0,0-4.34,5c0,1.52,0,3,0,4.55,0,3,1.63,4.84,4.74,5.35,2,.31,3.9.68,5.66,1,1.18,2.74,2.29,5.33,3.46,8-1.1,1.49-2.29,3.08-3.45,4.7a4.73,4.73,0,0,0,.55,6.72c1.12,1.11,2.26,2.2,3.4,3.3a5.14,5.14,0,0,0,7,.58l4.77-3.21,8.32,3.25c.35,2,.74,4,1.11,6.1a4.68,4.68,0,0,0,4.32,3.89c1.9.13,3.81.13,5.71.1,3.33,0,5.07-1.6,5.57-4.81.28-1.82.6-3.63.9-5.34,2.82-1.11,5.52-2.18,8.33-3.27l2.45,1.65c.89.59,1.76,1.22,2.67,1.79a5.08,5.08,0,0,0,6.52-.54c1.15-1.07,2.3-2.17,3.42-3.28,2.25-2.23,2.43-4.44.6-7-1.13-1.59-2.27-3.17-3.32-4.63,1.18-2.73,2.29-5.31,3.43-8l2.93-.52c1.07-.19,2.14-.34,3.2-.54a4.87,4.87,0,0,0,4.24-5c0-1.64,0-3.28,0-4.93C904.09,295.06,902.63,293.32,899.82,292.78Zm-32.07,13.89c-7.81,7.69-19.35,8.62-22.33,8.74V286.09l25,17.46A24.72,24.72,0,0,1,867.75,306.67Zm7.67-10v18.78H854.81a32,32,0,0,0,14-7.69A25.92,25.92,0,0,0,875.42,296.64Zm0-10.59c0,6.39-1.41,11.84-4.18,16.27L847,285.41h28.39Z"/><path class="cls-7" d="M980.07,302.72v64.35H842V337.6c.18-.1.35-.22.53-.34l3-2.06,4.21,1.7c.24,1.33.48,2.68.71,4a8.74,8.74,0,0,0,8,7.29c1.25.09,2.56.13,4.12.13l1.89,0c5.22-.08,8.65-3.12,9.42-8.33.16-1.07.34-2.14.52-3.19l4.19-1.69,1.47,1c.63.45,1.26.89,1.91,1.32a9.34,9.34,0,0,0,5.17,1.61,9,9,0,0,0,6.27-2.6c1.14-1.08,2.28-2.21,3.51-3.45,3.6-3.67,4-8,1-12.27-.68-1-1.38-2-2.05-2.92l1.74-4.13.75-.14,1.29-.22c.64-.1,1.29-.21,1.93-.33a9,9,0,0,0,7.47-9V299a9.12,9.12,0,0,0-2.25-6.25h63.32A10,10,0,0,1,980.07,302.72Z"/><path class="cls-9" d="M836.22,373.56H985.84a0,0,0,0,1,0,0v0a12.17,12.17,0,0,1-12.17,12.17H848.39a12.17,12.17,0,0,1-12.17-12.17v0A0,0,0,0,1,836.22,373.56Z"/><path class="cls-13" d="M527.65,545.62v66H386L382.26,609H386V545.62a10.27,10.27,0,0,1,10.27-10.27H517.38A10.27,10.27,0,0,1,527.65,545.62Z"/><path class="cls-2" d="M533.57,618.28a12.5,12.5,0,0,1-12.49,12.49H392.56a12.5,12.5,0,0,1-12.49-12.49H528.41l1.43-2.61Z"/><path class="cls-14" d="M392.53,532.74H513.66A10.27,10.27,0,0,1,523.93,543v66a0,0,0,0,1,0,0H382.26a0,0,0,0,1,0,0V543A10.27,10.27,0,0,1,392.53,532.74Z"/><path class="cls-9" d="M376.35,615.67H529.84a0,0,0,0,1,0,0v0a12.49,12.49,0,0,1-12.49,12.49H388.84a12.49,12.49,0,0,1-12.49-12.49v0a0,0,0,0,1,0,0Z"/><path class="cls-4" d="M462,549.2l2.51-1.73a2.62,2.62,0,0,1,3.58.3q.87.84,1.71,1.71a2.54,2.54,0,0,1,.29,3.67c-.59.87-1.2,1.72-1.75,2.5l1.77,4.28c1,.18,2.08.36,3.15.58a2.51,2.51,0,0,1,2.21,2.67v2.62a2.58,2.58,0,0,1-2.19,2.64l-1.65.28-1.52.29-1.77,4.24,1.71,2.46a2.59,2.59,0,0,1-.31,3.73q-.87.88-1.77,1.74a2.56,2.56,0,0,1-3.37.29l-1.38-1-1.26-.88-4.31,1.74c-.15.91-.32,1.88-.46,2.85a2.63,2.63,0,0,1-2.88,2.55c-1,0-2,0-2.95,0a2.45,2.45,0,0,1-2.23-2.07c-.19-1.1-.39-2.2-.58-3.25l-4.3-1.73-2.46,1.71a2.6,2.6,0,0,1-3.63-.31c-.59-.58-1.18-1.16-1.76-1.76a2.56,2.56,0,0,1-.28-3.57c.6-.86,1.21-1.71,1.78-2.5L436.07,569c-.91-.17-1.91-.36-2.92-.53a2.64,2.64,0,0,1-2.45-2.84c0-.81,0-1.61,0-2.42a2.6,2.6,0,0,1,2.24-2.68c1.05-.2,2.11-.38,3.12-.56l1.8-4.29c-.54-.78-1.15-1.63-1.74-2.5a2.6,2.6,0,0,1,.31-3.68c.58-.59,1.17-1.18,1.76-1.75a2.61,2.61,0,0,1,3.43-.32c.47.31.92.64,1.38,1l1.25.87,4.29-1.74c.17-1,.35-2,.53-3.07a2.38,2.38,0,0,1,2.2-2.25,21.76,21.76,0,0,1,3.87.06,2.17,2.17,0,0,1,1.88,1.85c.22,1,.38,1.93.52,2.9a.81.81,0,0,0,.61.76C459.38,548.19,460.6,548.68,462,549.2Zm-16.55,15.24a7.68,7.68,0,1,0,7.69-7.65A7.61,7.61,0,0,0,445.41,564.44Z"/><path class="cls-4" d="M444.71,603.68H430.42c0-.2,0-.38,0-.55,0-1.72,0-3.44,0-5.16a1.08,1.08,0,0,0-.34-.83c-3.26-3.23-6.5-6.48-9.76-9.71A7.38,7.38,0,0,1,418,583a9.52,9.52,0,0,1,0-1.85c.21-2.74.45-5.48.66-8.22.15-1.89.31-3.79.42-5.68a3.2,3.2,0,0,1,2.75-2.8,3.06,3.06,0,0,1,3.4,3c0,1-.11,2-.17,3-.12,1.76-.25,3.53-.37,5.29-.07,1.08-.13,2.16-.2,3.24a3.4,3.4,0,0,0,1.05,2.71q2.37,2.37,4.75,4.73a1.44,1.44,0,0,0,.64.35.9.9,0,0,0,1-.42.89.89,0,0,0,0-1,2.78,2.78,0,0,0-.36-.41c-1.3-1.3-2.61-2.59-3.9-3.89a3,3,0,0,1-.87-3.19,2.94,2.94,0,0,1,4.94-1.12c2.8,2.79,5.59,5.6,8.37,8.4.49.5,1,1,1.41,1.56a14,14,0,0,1,3.15,7.64c.06.65.08,1.3.09,1.95,0,2.3,0,4.6,0,6.9Z"/><path class="cls-4" d="M475.8,603.68H461.46v-.48c0-2.4,0-4.81,0-7.21A14.73,14.73,0,0,1,466,585.27c2.86-2.84,5.71-5.71,8.56-8.57a2.95,2.95,0,0,1,4.35,4c-.15.18-.32.35-.48.51L474.63,585a1.76,1.76,0,0,0-.43.65.9.9,0,0,0,.38,1,1,1,0,0,0,1.13,0,2.3,2.3,0,0,0,.33-.3c1.51-1.51,3-3,4.54-4.52a3.78,3.78,0,0,0,1.15-3.12c-.18-2.24-.3-4.49-.44-6.74-.1-1.44-.23-2.89-.29-4.34a3.06,3.06,0,0,1,2.94-3.16,3.13,3.13,0,0,1,3.18,2.78c.21,2.76.44,5.51.66,8.27.17,2.11.38,4.22.47,6.34a6.89,6.89,0,0,1-1.86,5.07c-.18.2-.37.39-.56.57q-4.81,4.82-9.64,9.62a1.17,1.17,0,0,0-.39,1c0,1.67,0,3.33,0,5Z"/><path class="cls-7" d="M460.87,547.56l2.5-1.74a2.64,2.64,0,0,1,3.59.3c.57.57,1.15,1.13,1.71,1.71a2.57,2.57,0,0,1,.29,3.68L467.2,554l1.77,4.27c1,.18,2.08.36,3.15.58a2.5,2.5,0,0,1,2.21,2.67c0,.87,0,1.75,0,2.62a2.57,2.57,0,0,1-2.19,2.64l-1.65.28-1.52.29-1.77,4.24,1.72,2.46a2.61,2.61,0,0,1-.31,3.73c-.58.59-1.17,1.17-1.77,1.75a2.58,2.58,0,0,1-3.37.28c-.47-.3-.92-.63-1.38-1l-1.27-.88-4.3,1.74c-.15.91-.32,1.88-.47,2.85a2.64,2.64,0,0,1-2.88,2.56c-1,0-2,0-2.95-.06A2.45,2.45,0,0,1,448,583c-.19-1.1-.39-2.19-.57-3.25l-4.3-1.73-2.47,1.71a2.6,2.6,0,0,1-3.63-.31c-.58-.58-1.18-1.16-1.75-1.76a2.56,2.56,0,0,1-.29-3.57c.6-.86,1.22-1.71,1.78-2.5L435,567.33c-.91-.16-1.92-.36-2.93-.53A2.65,2.65,0,0,1,429.6,564c0-.81,0-1.61,0-2.42a2.59,2.59,0,0,1,2.23-2.68l3.12-.56,1.8-4.29-1.74-2.5a2.61,2.61,0,0,1,.32-3.68c.57-.59,1.16-1.18,1.76-1.75a2.6,2.6,0,0,1,3.42-.32c.47.31.92.64,1.38,1l1.26.87,4.29-1.74c.16-1,.35-2,.52-3.07a2.39,2.39,0,0,1,2.2-2.25,21.88,21.88,0,0,1,3.88.06,2.15,2.15,0,0,1,1.87,1.86c.22.95.38,1.92.52,2.9a.82.82,0,0,0,.61.75C458.29,546.54,459.51,547,460.87,547.56Zm-16.56,15.23a7.68,7.68,0,1,0,7.69-7.65A7.61,7.61,0,0,0,444.31,562.79Z"/><path class="cls-7" d="M443.62,602H429.33c0-.21,0-.39,0-.56,0-1.72,0-3.44,0-5.16a1.07,1.07,0,0,0-.35-.83c-3.25-3.23-6.49-6.48-9.75-9.71a7.34,7.34,0,0,1-2.28-4.39,8.71,8.71,0,0,1,0-1.84c.2-2.75.44-5.49.66-8.23.15-1.89.3-3.79.42-5.68a3.2,3.2,0,0,1,2.75-2.8,3.07,3.07,0,0,1,3.4,3c0,1-.11,2-.18,3l-.36,5.29-.21,3.24a3.42,3.42,0,0,0,1.05,2.71c1.58,1.59,3.16,3.17,4.76,4.73a1.39,1.39,0,0,0,.64.35.87.87,0,0,0,1-.42.89.89,0,0,0,0-1,2.86,2.86,0,0,0-.37-.41l-3.89-3.89a3,3,0,1,1,4.06-4.31c2.8,2.79,5.59,5.6,8.38,8.4q.74.75,1.41,1.56a14.06,14.06,0,0,1,3.14,7.64c.07.65.08,1.3.09,2,0,2.3,0,4.6.06,6.9Z"/><path class="cls-7" d="M474.71,602H460.37v-.48l0-7.21a14.67,14.67,0,0,1,4.5-10.71c2.86-2.85,5.7-5.72,8.56-8.58a2.95,2.95,0,0,1,4.34,4,4.61,4.61,0,0,1-.48.51c-1.26,1.26-2.53,2.52-3.78,3.79a1.88,1.88,0,0,0-.43.66.9.9,0,0,0,.37,1,1.05,1.05,0,0,0,1.13,0,1.87,1.87,0,0,0,.33-.3c1.52-1.51,3-3,4.54-4.52a3.71,3.71,0,0,0,1.15-3.12c-.18-2.24-.29-4.49-.44-6.73-.09-1.45-.23-2.9-.28-4.35a3,3,0,0,1,2.94-3.16,3.11,3.11,0,0,1,3.17,2.78c.22,2.76.45,5.51.67,8.27.17,2.11.38,4.22.47,6.34a6.9,6.9,0,0,1-1.87,5.07c-.18.2-.37.39-.56.58l-9.64,9.61a1.2,1.2,0,0,0-.39,1c0,1.67,0,3.34,0,5Z"/><path class="cls-15" d="M672,556.74H818.44V617.4a11.8,11.8,0,0,1-11.77,11.77H683.72A11.81,11.81,0,0,1,672,617.4Z"/><path class="cls-16" d="M806.67,537.71H683.72A11.81,11.81,0,0,0,672,549.48v5.39H818.44v-5.39A11.8,11.8,0,0,0,806.67,537.71ZM789.5,547.3a2.45,2.45,0,0,1-2.44,2.45h-2a2.45,2.45,0,0,1-2.44-2.45v-2a2.43,2.43,0,0,1,2.44-2.43h2a2.44,2.44,0,0,1,2.44,2.43Zm11,0a2.45,2.45,0,0,1-2.45,2.45h-2a2.45,2.45,0,0,1-2.44-2.45v-2a2.44,2.44,0,0,1,2.44-2.43h2a2.44,2.44,0,0,1,2.45,2.43Zm11,0a2.44,2.44,0,0,1-2.43,2.45h-2a2.45,2.45,0,0,1-2.44-2.45v-2a2.43,2.43,0,0,1,2.44-2.43h2a2.43,2.43,0,0,1,2.43,2.43Z"/><path class="cls-17" d="M668.83,553.62H815.32v60.66a11.8,11.8,0,0,1-11.77,11.77H680.6a11.81,11.81,0,0,1-11.77-11.77Z"/><path class="cls-5" d="M803.55,534.59H680.6a11.81,11.81,0,0,0-11.77,11.77v5.39H815.32v-5.39A11.8,11.8,0,0,0,803.55,534.59Zm-17.17,9.59a2.45,2.45,0,0,1-2.44,2.45h-2a2.45,2.45,0,0,1-2.44-2.45v-2a2.43,2.43,0,0,1,2.44-2.43h2a2.44,2.44,0,0,1,2.44,2.43Zm11,0a2.45,2.45,0,0,1-2.45,2.45h-2a2.45,2.45,0,0,1-2.44-2.45v-2a2.44,2.44,0,0,1,2.44-2.43h2a2.44,2.44,0,0,1,2.45,2.43Zm11,0a2.44,2.44,0,0,1-2.43,2.45h-2a2.45,2.45,0,0,1-2.44-2.45v-2a2.43,2.43,0,0,1,2.44-2.43h2a2.43,2.43,0,0,1,2.43,2.43Z"/><path class="cls-18" d="M728.13,582.36v-.56l-.36.1-23.24,9.46-.16.11v.34l.16.11,23.24,9.45.36.11v-.56l-.16-.12-22.62-9.17L728,582.47Z"/><path class="cls-18" d="M728.13,602.76a1.57,1.57,0,0,1-.37,0l-.36-.11-.12,0L704,593.11a1.16,1.16,0,0,1-.24-.14l-.16-.11a1.25,1.25,0,0,1-.55-1.05v-.34a1.27,1.27,0,0,1,.55-1.06l.16-.11a1.12,1.12,0,0,1,.24-.13l23.24-9.45.12-.05.36-.1a1.26,1.26,0,0,1,1.14.2,1.28,1.28,0,0,1,.51,1v.56a1.28,1.28,0,0,1-.51,1l-.16.12a1,1,0,0,1-.29.16l-19.68,8,19.68,8a1.35,1.35,0,0,1,.29.16l.16.12a1.28,1.28,0,0,1,.51,1v.56a1.31,1.31,0,0,1-.51,1A1.36,1.36,0,0,1,728.13,602.76Z"/><polygon class="cls-18" points="748.63 572.51 748.53 572.91 735.61 610.65 735.51 610.81 734.99 610.81 735.1 610.42 748.01 572.69 748.12 572.51 748.63 572.51"/><path class="cls-18" d="M735.51,612.1H735a1.29,1.29,0,0,1-1-.51,1.28,1.28,0,0,1-.21-1.12l.1-.39,12.93-37.81a1.15,1.15,0,0,1,.12-.25l.11-.18a1.28,1.28,0,0,1,1.09-.61h.52a1.27,1.27,0,0,1,1,.5,1.24,1.24,0,0,1,.22,1.11l-.1.41-12.94,37.81a2.56,2.56,0,0,1-.11.24l-.1.16A1.29,1.29,0,0,1,735.51,612.1Z"/><polygon class="cls-18" points="779.26 591.47 779.26 591.81 779.1 591.92 755.86 601.37 755.5 601.48 755.5 600.92 755.66 600.8 778.28 591.63 755.66 582.47 755.5 582.36 755.5 581.8 755.86 581.9 779.1 591.36 779.26 591.47"/><path class="cls-18" d="M755.5,602.76a1.36,1.36,0,0,1-.77-.25,1.31,1.31,0,0,1-.51-1v-.56a1.28,1.28,0,0,1,.51-1l.16-.12a1.28,1.28,0,0,1,.28-.16l19.69-8-19.69-8a1.12,1.12,0,0,1-.28-.16l-.16-.12a1.28,1.28,0,0,1-.51-1v-.56a1.28,1.28,0,0,1,1.65-1.23l.36.1.12.05,23.24,9.45a1.41,1.41,0,0,1,.24.13l.16.11a1.27,1.27,0,0,1,.55,1.06v.34a1.25,1.25,0,0,1-.55,1.05l-.16.11a1.49,1.49,0,0,1-.24.14l-23.24,9.45-.12,0-.36.11A1.57,1.57,0,0,1,755.5,602.76Z"/><path class="cls-19" d="M726.82,580.88v-.56l-.36.11-23.24,9.45-.16.11v.35l.16.1,23.24,9.46.36.1v-.55l-.15-.12L704,590.16,726.67,581Z"/><path class="cls-19" d="M726.82,601.29a1.13,1.13,0,0,1-.36-.06l-.37-.1-.11,0-23.24-9.45a1.19,1.19,0,0,1-.25-.13l-.16-.11a1.29,1.29,0,0,1-.55-1V590a1.29,1.29,0,0,1,.55-1l.16-.11a.85.85,0,0,1,.25-.13L726,579.24l.11,0,.37-.11a1.31,1.31,0,0,1,1.13.2,1.32,1.32,0,0,1,.52,1v.56a1.29,1.29,0,0,1-.52,1l-.16.12a1.56,1.56,0,0,1-.28.16l-19.69,8,19.69,8a1.18,1.18,0,0,1,.29.16l.15.12a1.27,1.27,0,0,1,.52,1V600a1.29,1.29,0,0,1-.52,1A1.28,1.28,0,0,1,726.82,601.29Z"/><polygon class="cls-19" points="747.33 571.04 747.22 571.44 734.3 609.17 734.21 609.34 733.69 609.34 733.79 608.95 746.7 571.21 746.81 571.04 747.33 571.04"/><path class="cls-19" d="M734.21,610.62h-.52a1.27,1.27,0,0,1-1-.5,1.25,1.25,0,0,1-.22-1.12l.11-.39,12.93-37.81a2,2,0,0,1,.11-.26l.11-.17a1.31,1.31,0,0,1,1.1-.62h.52a1.29,1.29,0,0,1,1.24,1.62l-.11.4-12.94,37.82a1,1,0,0,1-.11.23l-.1.17A1.28,1.28,0,0,1,734.21,610.62Z"/><polygon class="cls-19" points="777.95 589.99 777.95 590.34 777.79 590.44 754.55 599.9 754.19 600 754.19 599.45 754.35 599.33 776.97 590.16 754.35 581 754.19 580.88 754.19 580.32 754.55 580.43 777.79 589.88 777.95 589.99"/><path class="cls-19" d="M754.19,601.29a1.3,1.3,0,0,1-.77-.26,1.28,1.28,0,0,1-.51-1v-.55a1.28,1.28,0,0,1,.51-1l.16-.12a1,1,0,0,1,.29-.16l19.68-8-19.68-8a1.64,1.64,0,0,1-.29-.16l-.15-.12a1.27,1.27,0,0,1-.52-1v-.56a1.28,1.28,0,0,1,1.65-1.23l.36.11.12,0,23.24,9.46a.7.7,0,0,1,.24.13l.16.11a1.27,1.27,0,0,1,.56,1v.35a1.27,1.27,0,0,1-.56,1l-.16.11a.92.92,0,0,1-.24.13L755,601.08l-.12,0-.36.1A1.19,1.19,0,0,1,754.19,601.29Z"/><text></text><text class="cls-20" transform="translate(361.16 166.01)">SE<tspan class="cls-21" x="123.4" y="0">R</tspan><tspan class="cls-22" x="189.7" y="0">VIC</tspan><tspan class="cls-23" x="358.9" y="0">E</tspan><tspan x="418.3" y="0">S</tspan></text><text class="cls-24" transform="translate(357.82 164.22)">SE<tspan class="cls-21" x="123.4" y="0">R</tspan><tspan class="cls-22" x="189.7" y="0">VIC</tspan><tspan class="cls-23" x="358.9" y="0">E</tspan><tspan x="418.3" y="0">S</tspan></text><text class="cls-25" transform="translate(520.01 65.83)">OUR</text><path class="cls-26" d="M555.17,442.64a5.21,5.21,0,0,0,2.65.75c1.52,0,2.4-.8,2.4-2s-.61-1.68-2.16-2.28c-1.87-.66-3-1.63-3-3.24,0-1.79,1.47-3.11,3.7-3.11a5.19,5.19,0,0,1,2.53.56l-.4,1.2a4.65,4.65,0,0,0-2.18-.54c-1.56,0-2.16.93-2.16,1.72,0,1.07.7,1.59,2.28,2.21,1.94.74,2.92,1.68,2.92,3.36s-1.31,3.3-4,3.3a5.89,5.89,0,0,1-2.92-.73Z"/><path class="cls-26" d="M565.46,433.85v2.36h2.14v1.14h-2.14v4.44c0,1,.28,1.6,1.12,1.6a3.2,3.2,0,0,0,.86-.11l.07,1.13a3.89,3.89,0,0,1-1.32.2,2.08,2.08,0,0,1-1.62-.63,3.06,3.06,0,0,1-.58-2.14v-4.49h-1.27v-1.14H564v-2Z"/><path class="cls-26" d="M569.28,438.78c0-1,0-1.8-.07-2.57h1.31l.05,1.62h.07a2.46,2.46,0,0,1,2.28-1.8,1.34,1.34,0,0,1,.42.05v1.41a1.91,1.91,0,0,0-.51-.05,2.09,2.09,0,0,0-2,1.92,3.58,3.58,0,0,0-.07.69v4.39h-1.48Z"/><path class="cls-26" d="M579.31,444.44l-.12-1h-.05a3.06,3.06,0,0,1-2.52,1.23,2.35,2.35,0,0,1-2.51-2.37c0-2,1.77-3.07,4.95-3.06V439a1.69,1.69,0,0,0-1.87-1.9,4.16,4.16,0,0,0-2.15.61l-.34-1a5.05,5.05,0,0,1,2.71-.73c2.51,0,3.12,1.71,3.12,3.36v3.08a11.77,11.77,0,0,0,.14,2Zm-.22-4.2c-1.63,0-3.48.26-3.48,1.85a1.32,1.32,0,0,0,1.41,1.43,2,2,0,0,0,2-1.37,1.4,1.4,0,0,0,.09-.48Z"/><path class="cls-26" d="M584.68,433.85v2.36h2.14v1.14h-2.14v4.44c0,1,.29,1.6,1.12,1.6a3.29,3.29,0,0,0,.87-.11l.07,1.13a3.91,3.91,0,0,1-1.33.2,2.07,2.07,0,0,1-1.61-.63,3,3,0,0,1-.58-2.14v-4.49H582v-1.14h1.27v-2Z"/><path class="cls-26" d="M589.24,440.6a2.63,2.63,0,0,0,2.82,2.85,5.4,5.4,0,0,0,2.28-.42l.25,1.07a6.56,6.56,0,0,1-2.73.51,3.82,3.82,0,0,1-4.05-4.15c0-2.48,1.46-4.43,3.86-4.43,2.69,0,3.4,2.36,3.4,3.87a5.09,5.09,0,0,1-.05.7Zm4.38-1.07a2.13,2.13,0,0,0-2.07-2.43,2.47,2.47,0,0,0-2.29,2.43Z"/><path class="cls-26" d="M604,436.21c0,.6-.07,1.26-.07,2.26v4.78c0,1.89-.37,3-1.17,3.76a4.39,4.39,0,0,1-3,1,5.32,5.32,0,0,1-2.74-.68l.38-1.14a4.61,4.61,0,0,0,2.41.65c1.53,0,2.65-.8,2.65-2.87V443h0a3,3,0,0,1-2.62,1.38c-2,0-3.5-1.74-3.5-4,0-2.78,1.82-4.36,3.7-4.36a2.74,2.74,0,0,1,2.57,1.42h0l.07-1.24Zm-1.55,3.25a2,2,0,0,0-.08-.68,2.15,2.15,0,0,0-2.09-1.58c-1.43,0-2.45,1.21-2.45,3.11,0,1.61.82,3,2.43,3a2.2,2.2,0,0,0,2.08-1.53,2.8,2.8,0,0,0,.11-.8Z"/><path class="cls-26" d="M607,436.21l1.8,4.86c.19.55.39,1.19.53,1.69h0c.16-.5.33-1.12.53-1.72l1.63-4.83h1.58l-2.24,5.87c-1.07,2.82-1.8,4.26-2.82,5.15a4.17,4.17,0,0,1-1.84,1l-.37-1.26a4.17,4.17,0,0,0,1.31-.73,4.65,4.65,0,0,0,1.25-1.67,1,1,0,0,0,.12-.36,1.27,1.27,0,0,0-.1-.39l-3-7.58Z"/><path class="cls-26" d="M618.09,433.12a17,17,0,0,1,2.84-.22,4.71,4.71,0,0,1,3.21,1,3.08,3.08,0,0,1,1,2.4,3.35,3.35,0,0,1-.88,2.44,4.72,4.72,0,0,1-3.5,1.26,4.81,4.81,0,0,1-1.19-.1v4.59h-1.48Zm1.48,5.52a4.69,4.69,0,0,0,1.22.12c1.79,0,2.87-.86,2.87-2.45s-1.07-2.24-2.7-2.24a6,6,0,0,0-1.39.12Z"/><path class="cls-26" d="M626.81,438.78c0-1,0-1.8-.07-2.57h1.31l.05,1.62h.07a2.45,2.45,0,0,1,2.28-1.8,1.34,1.34,0,0,1,.42.05v1.41a1.91,1.91,0,0,0-.51-.05,2.09,2.09,0,0,0-2,1.92,3.58,3.58,0,0,0-.07.69v4.39h-1.48Z"/><path class="cls-26" d="M639.64,440.26a4,4,0,0,1-4.09,4.37,3.92,3.92,0,0,1-3.95-4.24,4,4,0,0,1,4.08-4.36A3.89,3.89,0,0,1,639.64,440.26Zm-6.52.08c0,1.81,1,3.16,2.49,3.16s2.5-1.34,2.5-3.19c0-1.39-.69-3.16-2.46-3.16S633.12,438.78,633.12,440.34Z"/><path class="cls-26" d="M639.52,446.82a2.45,2.45,0,0,0,1.64-.63c.4-.48.56-1.12.56-3.09v-6.89h1.49v7.46a4.53,4.53,0,0,1-1,3.39,3.82,3.82,0,0,1-2.55.93Zm3.86-12.92a.88.88,0,0,1-.93.92.9.9,0,0,1-.92-.92.91.91,0,0,1,1-.93A.87.87,0,0,1,643.38,433.9Z"/><path class="cls-26" d="M646.49,440.6a2.64,2.64,0,0,0,2.83,2.85,5.35,5.35,0,0,0,2.27-.42l.26,1.07a6.66,6.66,0,0,1-2.74.51,3.82,3.82,0,0,1-4-4.15c0-2.48,1.46-4.43,3.86-4.43,2.68,0,3.39,2.36,3.39,3.87a5.09,5.09,0,0,1-.05.7Zm4.39-1.07a2.13,2.13,0,0,0-2.07-2.43,2.48,2.48,0,0,0-2.3,2.43Z"/><path class="cls-26" d="M660,444.13a5.41,5.41,0,0,1-2.36.48,3.91,3.91,0,0,1-4.1-4.2A4.19,4.19,0,0,1,658,436a4.91,4.91,0,0,1,2.08.43l-.34,1.15a3.54,3.54,0,0,0-1.74-.39,2.85,2.85,0,0,0-2.9,3.11,2.82,2.82,0,0,0,2.85,3.08,4.24,4.24,0,0,0,1.84-.41Z"/><path class="cls-26" d="M663.82,433.85v2.36H666v1.14h-2.14v4.44c0,1,.29,1.6,1.12,1.6a3.35,3.35,0,0,0,.87-.11l.06,1.13a3.84,3.84,0,0,1-1.32.2,2.08,2.08,0,0,1-1.62-.63,3.06,3.06,0,0,1-.57-2.14v-4.49h-1.28v-1.14h1.28v-2Z"/><path class="cls-26" d="M705.77,672.55l-1.19,3.6h-1.53l3.89-11.45h1.79l3.91,11.45h-1.58l-1.23-3.6Zm3.76-1.15-1.12-3.3c-.26-.75-.43-1.43-.6-2.09h0c-.17.68-.36,1.37-.58,2.07l-1.12,3.32Z"/><path class="cls-26" d="M714.22,670.61c0-1.05,0-1.9-.07-2.68h1.34l.07,1.41h0a3.24,3.24,0,0,1,2.92-1.6c2,0,3.49,1.68,3.49,4.18,0,3-1.81,4.42-3.74,4.42a2.89,2.89,0,0,1-2.54-1.29h0v4.47h-1.48Zm1.48,2.2a2.92,2.92,0,0,0,.07.61,2.31,2.31,0,0,0,2.24,1.75c1.58,0,2.5-1.29,2.5-3.18,0-1.65-.87-3.06-2.45-3.06a2.39,2.39,0,0,0-2.26,1.85,2.51,2.51,0,0,0-.1.62Z"/><path class="cls-26" d="M723.89,670.61c0-1.05,0-1.9-.07-2.68h1.35l.07,1.41h0a3.24,3.24,0,0,1,2.92-1.6c2,0,3.49,1.68,3.49,4.18,0,3-1.8,4.42-3.74,4.42a2.86,2.86,0,0,1-2.53-1.29h0v4.47h-1.48Zm1.48,2.2a3.78,3.78,0,0,0,.07.61,2.31,2.31,0,0,0,2.24,1.75c1.58,0,2.5-1.29,2.5-3.18,0-1.65-.86-3.06-2.45-3.06a2.39,2.39,0,0,0-2.26,1.85,2.51,2.51,0,0,0-.1.62Z"/><path class="cls-26" d="M733.57,664.09h1.49v12.06h-1.49Z"/><path class="cls-26" d="M739.24,665.62a.93.93,0,0,1-1.85,0,.91.91,0,0,1,.94-.94A.88.88,0,0,1,739.24,665.62Zm-1.66,10.53v-8.22h1.49v8.22Z"/><path class="cls-26" d="M747.42,675.85a5.59,5.59,0,0,1-2.36.47,3.91,3.91,0,0,1-4.1-4.19,4.18,4.18,0,0,1,4.42-4.37,5,5,0,0,1,2.07.42l-.34,1.16a3.36,3.36,0,0,0-1.73-.39,3.1,3.1,0,0,0,0,6.19,4.3,4.3,0,0,0,1.83-.41Z"/><path class="cls-26" d="M753.73,676.15l-.12-1h-.05a3.09,3.09,0,0,1-2.52,1.22,2.34,2.34,0,0,1-2.51-2.36c0-2,1.76-3.08,4.94-3.06v-.17a1.69,1.69,0,0,0-1.87-1.9,4.06,4.06,0,0,0-2.14.61l-.34-1a5.13,5.13,0,0,1,2.7-.73c2.52,0,3.13,1.72,3.13,3.37v3.07a10.73,10.73,0,0,0,.14,2Zm-.22-4.19c-1.64,0-3.49.25-3.49,1.85a1.33,1.33,0,0,0,1.41,1.43,2,2,0,0,0,2-1.38,1.57,1.57,0,0,0,.09-.48Z"/><path class="cls-26" d="M759.1,665.56v2.37h2.14v1.14H759.1v4.43c0,1,.29,1.6,1.12,1.6a3.44,3.44,0,0,0,.87-.1l.07,1.12a3.67,3.67,0,0,1-1.33.2,2.07,2.07,0,0,1-1.61-.62,3.06,3.06,0,0,1-.58-2.15v-4.48h-1.28v-1.14h1.28v-2Z"/><path class="cls-26" d="M764.59,665.62a.93.93,0,0,1-1.85,0,.91.91,0,0,1,.93-.94A.89.89,0,0,1,764.59,665.62Zm-1.67,10.53v-8.22h1.5v8.22Z"/><path class="cls-26" d="M774.35,672a4,4,0,0,1-4.1,4.37,3.91,3.91,0,0,1-3.94-4.23,4,4,0,0,1,4.08-4.37A3.9,3.9,0,0,1,774.35,672Zm-6.53.09c0,1.8,1,3.16,2.5,3.16s2.5-1.34,2.5-3.2c0-1.39-.7-3.16-2.47-3.16S767.82,670.49,767.82,672.06Z"/><path class="cls-26" d="M776.23,670.15c0-.85,0-1.54-.06-2.22h1.32l.09,1.36h0a3,3,0,0,1,2.72-1.55c1.14,0,2.91.68,2.91,3.5v4.91h-1.5v-4.74c0-1.32-.49-2.43-1.9-2.43a2.14,2.14,0,0,0-2,1.53,2.11,2.11,0,0,0-.1.7v4.94h-1.5Z"/><path class="cls-26" d="M402.47,674.35a5.23,5.23,0,0,0,2.65.75c1.52,0,2.4-.8,2.4-2s-.61-1.69-2.16-2.28c-1.87-.66-3-1.63-3-3.25,0-1.78,1.48-3.11,3.7-3.11a5.21,5.21,0,0,1,2.54.56l-.41,1.21a4.51,4.51,0,0,0-2.18-.55c-1.56,0-2.16.94-2.16,1.72,0,1.07.7,1.6,2.28,2.21,1.94.75,2.92,1.68,2.92,3.37s-1.3,3.29-4,3.29a5.89,5.89,0,0,1-2.92-.73Z"/><path class="cls-26" d="M417.89,673.91c0,.85,0,1.6.07,2.24h-1.33l-.08-1.34h0a3.09,3.09,0,0,1-2.72,1.53c-1.29,0-2.83-.71-2.83-3.6v-4.81h1.49v4.55c0,1.57.48,2.62,1.84,2.62a2.17,2.17,0,0,0,2-1.36,2.28,2.28,0,0,0,.14-.76v-5.05h1.49Z"/><path class="cls-26" d="M420.37,670.61c0-1.05,0-1.9-.06-2.68h1.34l.07,1.41h0a3.24,3.24,0,0,1,2.92-1.6c2,0,3.49,1.68,3.49,4.18,0,3-1.8,4.42-3.74,4.42a2.86,2.86,0,0,1-2.53-1.29h0v4.47h-1.48Zm1.48,2.2a3.78,3.78,0,0,0,.07.61,2.31,2.31,0,0,0,2.24,1.75c1.58,0,2.5-1.29,2.5-3.18,0-1.65-.86-3.06-2.44-3.06a2.4,2.4,0,0,0-2.27,1.85,2.51,2.51,0,0,0-.1.62Z"/><path class="cls-26" d="M430.05,670.61c0-1.05,0-1.9-.07-2.68h1.34l.07,1.41h0a3.25,3.25,0,0,1,2.93-1.6c2,0,3.48,1.68,3.48,4.18,0,3-1.8,4.42-3.74,4.42a2.86,2.86,0,0,1-2.53-1.29h0v4.47h-1.48Zm1.48,2.2a3.82,3.82,0,0,0,.06.61,2.33,2.33,0,0,0,2.25,1.75c1.58,0,2.5-1.29,2.5-3.18,0-1.65-.87-3.06-2.45-3.06a2.39,2.39,0,0,0-2.26,1.85,2.51,2.51,0,0,0-.1.62Z"/><path class="cls-26" d="M447.16,672a4,4,0,0,1-4.09,4.37,3.91,3.91,0,0,1-3.95-4.23,4,4,0,0,1,4.08-4.37A3.89,3.89,0,0,1,447.16,672Zm-6.52.09c0,1.8,1,3.16,2.5,3.16s2.49-1.34,2.49-3.2c0-1.39-.69-3.16-2.46-3.16S440.64,670.49,440.64,672.06Z"/><path class="cls-26" d="M449.05,670.49c0-1,0-1.8-.07-2.56h1.31l0,1.61h.07a2.48,2.48,0,0,1,2.28-1.8,1.73,1.73,0,0,1,.42,0v1.41a2.44,2.44,0,0,0-.51-.05,2.09,2.09,0,0,0-2,1.92,3.68,3.68,0,0,0-.07.7v4.38h-1.48Z"/><path class="cls-26" d="M456.82,665.56v2.37H459v1.14h-2.14v4.43c0,1,.29,1.6,1.12,1.6a3.44,3.44,0,0,0,.87-.1l.07,1.12a3.67,3.67,0,0,1-1.33.2,2.07,2.07,0,0,1-1.61-.62,3.06,3.06,0,0,1-.58-2.15v-4.48h-1.28v-1.14h1.28v-2Z"/><path class="cls-26" d="M460.7,664.83a17,17,0,0,1,2.84-.22,4.71,4.71,0,0,1,3.21.95,3.09,3.09,0,0,1,1,2.4,3.41,3.41,0,0,1-.88,2.45,4.78,4.78,0,0,1-3.5,1.26,5.34,5.34,0,0,1-1.19-.1v4.58H460.7Zm1.48,5.53a5.17,5.17,0,0,0,1.22.12c1.78,0,2.87-.87,2.87-2.45s-1.07-2.24-2.7-2.24a6.79,6.79,0,0,0-1.39.11Z"/><path class="cls-26" d="M469.42,670.49c0-1,0-1.8-.07-2.56h1.31l0,1.61h.07a2.46,2.46,0,0,1,2.28-1.8,1.79,1.79,0,0,1,.42,0v1.41a2.51,2.51,0,0,0-.51-.05,2.11,2.11,0,0,0-2,1.92,4.81,4.81,0,0,0-.06.7v4.38h-1.48Z"/><path class="cls-26" d="M482.25,672a4,4,0,0,1-4.09,4.37,3.91,3.91,0,0,1-4-4.23,4,4,0,0,1,4.08-4.37A3.9,3.9,0,0,1,482.25,672Zm-6.53.09c0,1.8,1,3.16,2.5,3.16s2.5-1.34,2.5-3.2c0-1.39-.69-3.16-2.46-3.16S475.72,670.49,475.72,672.06Z"/><path class="cls-26" d="M482.13,678.53a2.44,2.44,0,0,0,1.64-.62c.4-.48.56-1.13.56-3.1v-6.88h1.49v7.46a4.51,4.51,0,0,1-1,3.38,3.78,3.78,0,0,1-2.55.94ZM486,665.62a.87.87,0,0,1-.93.91.89.89,0,0,1-.92-.91.92.92,0,0,1,.95-.94A.88.88,0,0,1,486,665.62Z"/><path class="cls-26" d="M489.1,672.31a2.64,2.64,0,0,0,2.83,2.86,5.33,5.33,0,0,0,2.27-.43l.26,1.07a6.66,6.66,0,0,1-2.74.51,3.81,3.81,0,0,1-4-4.14c0-2.48,1.46-4.44,3.85-4.44,2.69,0,3.4,2.36,3.4,3.88a5.05,5.05,0,0,1-.05.69Zm4.39-1.07a2.13,2.13,0,0,0-2.07-2.43,2.48,2.48,0,0,0-2.3,2.43Z"/><path class="cls-26" d="M502.65,675.85a5.59,5.59,0,0,1-2.36.47,3.91,3.91,0,0,1-4.1-4.19,4.18,4.18,0,0,1,4.42-4.37,5.09,5.09,0,0,1,2.08.42l-.34,1.16a3.43,3.43,0,0,0-1.74-.39,3.1,3.1,0,0,0-.05,6.19,4.39,4.39,0,0,0,1.84-.41Z"/><path class="cls-26" d="M506.43,665.56v2.37h2.14v1.14h-2.14v4.43c0,1,.28,1.6,1.12,1.6a3.29,3.29,0,0,0,.86-.1l.07,1.12a3.65,3.65,0,0,1-1.32.2,2.11,2.11,0,0,1-1.62-.62,3.11,3.11,0,0,1-.58-2.15v-4.48h-1.27v-1.14H505v-2Z"/><path class="cls-26" d="M873.82,426.24h-3.48V425h8.48v1.26h-3.5v10.2h-1.5Z"/><path class="cls-26" d="M879.67,432.6a2.63,2.63,0,0,0,2.82,2.85,5.4,5.4,0,0,0,2.28-.42l.26,1.07a6.66,6.66,0,0,1-2.74.51,3.83,3.83,0,0,1-4-4.15c0-2.48,1.46-4.43,3.86-4.43,2.69,0,3.4,2.36,3.4,3.87a5.09,5.09,0,0,1,0,.7Zm4.39-1.07A2.13,2.13,0,0,0,882,429.1a2.47,2.47,0,0,0-2.29,2.43Z"/><path class="cls-26" d="M893.22,436.13a5.41,5.41,0,0,1-2.36.48,3.91,3.91,0,0,1-4.1-4.2,4.18,4.18,0,0,1,4.42-4.37,4.86,4.86,0,0,1,2.07.43l-.34,1.15a3.46,3.46,0,0,0-1.73-.39,3.1,3.1,0,0,0,0,6.19A4.15,4.15,0,0,0,893,435Z"/><path class="cls-26" d="M895,424.37h1.5v5.13h0a2.84,2.84,0,0,1,1.07-1.05,3.12,3.12,0,0,1,1.53-.42c1.11,0,2.87.68,2.87,3.51v4.9h-1.49v-4.73c0-1.32-.49-2.44-1.91-2.44a2.15,2.15,0,0,0-2,1.49,1.77,1.77,0,0,0-.1.72v5H895Z"/><path class="cls-26" d="M904.41,430.44c0-.85,0-1.55-.07-2.23h1.32l.09,1.36h0A3,3,0,0,1,908.5,428c1.14,0,2.91.68,2.91,3.5v4.91h-1.5V431.7c0-1.33-.49-2.43-1.9-2.43a2.12,2.12,0,0,0-2,1.53,2.34,2.34,0,0,0-.1.69v4.95h-1.49Z"/><path class="cls-26" d="M921.29,432.26a4,4,0,0,1-4.1,4.37,3.91,3.91,0,0,1-3.94-4.24,4,4,0,0,1,4.08-4.36A3.89,3.89,0,0,1,921.29,432.26Zm-6.53.08c0,1.81,1,3.16,2.5,3.16s2.5-1.34,2.5-3.19c0-1.39-.7-3.16-2.47-3.16S914.76,430.78,914.76,432.34Z"/><path class="cls-26" d="M923.17,424.37h1.5v12.07h-1.5Z"/><path class="cls-26" d="M934.63,432.26a4,4,0,0,1-4.1,4.37,3.92,3.92,0,0,1-3.94-4.24,4,4,0,0,1,4.08-4.36A3.89,3.89,0,0,1,934.63,432.26Zm-6.53.08c0,1.81,1,3.16,2.5,3.16s2.5-1.34,2.5-3.19c0-1.39-.7-3.16-2.46-3.16S928.1,430.78,928.1,432.34Z"/><path class="cls-26" d="M943.61,428.21c0,.6-.07,1.26-.07,2.26v4.78c0,1.89-.38,3-1.17,3.76a4.41,4.41,0,0,1-3,1,5.31,5.31,0,0,1-2.73-.68l.37-1.14a4.67,4.67,0,0,0,2.41.65c1.53,0,2.66-.8,2.66-2.87V435h0a3,3,0,0,1-2.62,1.38c-2,0-3.5-1.74-3.5-4,0-2.78,1.82-4.36,3.71-4.36a2.74,2.74,0,0,1,2.57,1.42h0l.07-1.24Zm-1.55,3.25a2,2,0,0,0-.09-.68,2.15,2.15,0,0,0-2.09-1.58c-1.42,0-2.44,1.21-2.44,3.11,0,1.61.81,3,2.43,3a2.19,2.19,0,0,0,2.07-1.53,2.51,2.51,0,0,0,.12-.8Z"/><path class="cls-26" d="M946.57,428.21l1.8,4.86c.18.55.39,1.19.52,1.69h0c.15-.5.32-1.12.52-1.72l1.64-4.83h1.58l-2.25,5.87c-1.07,2.82-1.8,4.26-2.82,5.15a4.15,4.15,0,0,1-1.83,1l-.38-1.26a4,4,0,0,0,1.31-.73,4.55,4.55,0,0,0,1.26-1.67,1,1,0,0,0,.12-.36,1.67,1.67,0,0,0-.1-.39l-3.05-7.58Z"/><path class="cls-26" d="M837.69,445.54a20.59,20.59,0,0,1,3.14-.24,6.57,6.57,0,0,1,4.65,1.43,5.26,5.26,0,0,1,1.61,4.11,6,6,0,0,1-1.65,4.45,7.06,7.06,0,0,1-5.06,1.65,25.32,25.32,0,0,1-2.69-.13Zm1.48,10.13a10.42,10.42,0,0,0,1.49.08c3.17,0,4.88-1.77,4.88-4.86,0-2.7-1.51-4.42-4.64-4.42a8.8,8.8,0,0,0-1.73.15Z"/><path class="cls-26" d="M849.86,453a2.64,2.64,0,0,0,2.82,2.85,5.4,5.4,0,0,0,2.28-.42l.26,1.07a6.66,6.66,0,0,1-2.74.51,3.83,3.83,0,0,1-4.05-4.15c0-2.48,1.47-4.43,3.86-4.43,2.69,0,3.4,2.36,3.4,3.87a5.09,5.09,0,0,1-.05.7Zm4.39-1.07a2.13,2.13,0,0,0-2.08-2.43,2.47,2.47,0,0,0-2.29,2.43Z"/><path class="cls-26" d="M858.12,448.61l1.62,4.63a20.86,20.86,0,0,1,.66,2.1h.05c.19-.68.43-1.36.7-2.1l1.6-4.63h1.56l-3.23,8.23h-1.43l-3.12-8.23Z"/><path class="cls-26" d="M866.39,453a2.63,2.63,0,0,0,2.82,2.85,5.35,5.35,0,0,0,2.27-.42l.26,1.07A6.66,6.66,0,0,1,869,457a3.82,3.82,0,0,1-4-4.15c0-2.48,1.46-4.43,3.86-4.43,2.68,0,3.4,2.36,3.4,3.87a4.77,4.77,0,0,1-.06.7Zm4.38-1.07a2.13,2.13,0,0,0-2.07-2.43,2.48,2.48,0,0,0-2.3,2.43Z"/><path class="cls-26" d="M874.07,444.77h1.5v12.07h-1.5Z"/><path class="cls-26" d="M885.53,452.66a4,4,0,0,1-4.1,4.37,3.91,3.91,0,0,1-3.94-4.24,4,4,0,0,1,4.08-4.36A3.89,3.89,0,0,1,885.53,452.66Zm-6.53.08c0,1.81,1,3.17,2.5,3.17s2.5-1.35,2.5-3.2c0-1.39-.7-3.16-2.47-3.16S879,451.18,879,452.74Z"/><path class="cls-26" d="M887.41,451.3c0-1.06,0-1.91-.06-2.69h1.34l.07,1.41h0a3.23,3.23,0,0,1,2.92-1.59c2,0,3.49,1.68,3.49,4.18,0,2.95-1.8,4.42-3.74,4.42a2.87,2.87,0,0,1-2.53-1.3h0v4.48h-1.48Zm1.48,2.19a3.66,3.66,0,0,0,.07.61,2.3,2.3,0,0,0,2.24,1.75c1.59,0,2.5-1.29,2.5-3.17,0-1.65-.86-3.06-2.44-3.06a2.4,2.4,0,0,0-2.27,1.85,2.51,2.51,0,0,0-.1.61Z"/><path class="cls-26" d="M897.09,450.84c0-.85,0-1.55-.07-2.23h1.31l.07,1.33h.05a2.83,2.83,0,0,1,2.58-1.51,2.44,2.44,0,0,1,2.33,1.64h0a3.62,3.62,0,0,1,.92-1.07,2.83,2.83,0,0,1,1.82-.57c1.09,0,2.7.71,2.7,3.57v4.84h-1.46v-4.66c0-1.58-.58-2.53-1.78-2.53a1.94,1.94,0,0,0-1.77,1.36,2.41,2.41,0,0,0-.12.75v5.08h-1.46v-4.93c0-1.31-.58-2.26-1.72-2.26a2,2,0,0,0-1.85,1.5,1.93,1.93,0,0,0-.12.73v5h-1.46Z"/><path class="cls-26" d="M912.1,453a2.63,2.63,0,0,0,2.82,2.85,5.4,5.4,0,0,0,2.28-.42l.25,1.07a6.6,6.6,0,0,1-2.73.51,3.82,3.82,0,0,1-4.05-4.15c0-2.48,1.46-4.43,3.86-4.43,2.68,0,3.4,2.36,3.4,3.87,0,.31,0,.55,0,.7Zm4.38-1.07a2.13,2.13,0,0,0-2.07-2.43,2.48,2.48,0,0,0-2.3,2.43Z"/><path class="cls-26" d="M919.78,450.84c0-.85,0-1.55-.07-2.23H921l.08,1.36h0a3,3,0,0,1,2.72-1.54c1.14,0,2.91.68,2.91,3.5v4.91h-1.5V452.1c0-1.33-.49-2.43-1.9-2.43a2.11,2.11,0,0,0-2,1.53,2,2,0,0,0-.1.69v4.95h-1.5Z"/><path class="cls-26" d="M931,446.25v2.36h2.14v1.14H931v4.44c0,1,.29,1.6,1.12,1.6a3.35,3.35,0,0,0,.87-.11l.07,1.13a3.91,3.91,0,0,1-1.33.2,2,2,0,0,1-1.61-.63,3,3,0,0,1-.58-2.14v-4.49h-1.28v-1.14h1.28v-2Z"/><path class="cls-26" d="M938.43,445.52a17,17,0,0,1,2.84-.22,4.71,4.71,0,0,1,3.21.95,3.08,3.08,0,0,1,1,2.4,3.35,3.35,0,0,1-.88,2.44,4.72,4.72,0,0,1-3.5,1.26,4.85,4.85,0,0,1-1.19-.1v4.59h-1.48Zm1.48,5.52a4.69,4.69,0,0,0,1.22.12c1.79,0,2.88-.86,2.88-2.45s-1.08-2.24-2.71-2.24a6,6,0,0,0-1.39.12Z"/><path class="cls-26" d="M947.15,451.18c0-1,0-1.8-.07-2.57h1.31l.05,1.62h.07a2.47,2.47,0,0,1,2.28-1.8,1.34,1.34,0,0,1,.42.05v1.41a1.91,1.91,0,0,0-.51-.05,2.09,2.09,0,0,0-2,1.92,3.58,3.58,0,0,0-.07.69v4.39h-1.48Z"/><path class="cls-26" d="M960,452.66a4,4,0,0,1-4.1,4.37,3.91,3.91,0,0,1-3.94-4.24,4,4,0,0,1,4.08-4.36A3.89,3.89,0,0,1,960,452.66Zm-6.53.08c0,1.81,1,3.17,2.5,3.17s2.5-1.35,2.5-3.2c0-1.39-.7-3.16-2.47-3.16S953.46,451.18,953.46,452.74Z"/><path class="cls-26" d="M959.87,459.22a2.42,2.42,0,0,0,1.63-.63c.41-.48.56-1.12.56-3.09v-6.89h1.5v7.46a4.53,4.53,0,0,1-1,3.39,3.8,3.8,0,0,1-2.55.93Zm3.86-12.92a.89.89,0,0,1-.94.92.9.9,0,0,1-.92-.92.91.91,0,0,1,1-.93A.88.88,0,0,1,963.73,446.3Z"/><path class="cls-26" d="M966.84,453a2.63,2.63,0,0,0,2.82,2.85,5.4,5.4,0,0,0,2.28-.42l.25,1.07a6.64,6.64,0,0,1-2.73.51,3.82,3.82,0,0,1-4.05-4.15c0-2.48,1.46-4.43,3.86-4.43,2.68,0,3.4,2.36,3.4,3.87,0,.31,0,.55,0,.7Zm4.38-1.07a2.13,2.13,0,0,0-2.07-2.43,2.48,2.48,0,0,0-2.3,2.43Z"/><path class="cls-26" d="M980.39,456.53A5.46,5.46,0,0,1,978,457a3.9,3.9,0,0,1-4.09-4.2,4.18,4.18,0,0,1,4.42-4.37,4.9,4.9,0,0,1,2.07.43l-.34,1.15a3.52,3.52,0,0,0-1.73-.39,2.85,2.85,0,0,0-2.91,3.11,2.82,2.82,0,0,0,2.85,3.08,4.2,4.2,0,0,0,1.84-.41Z"/><path class="cls-26" d="M984.16,446.25v2.36h2.14v1.14h-2.14v4.44c0,1,.29,1.6,1.12,1.6a3.35,3.35,0,0,0,.87-.11l.07,1.13a3.91,3.91,0,0,1-1.33.2,2,2,0,0,1-1.61-.63,3,3,0,0,1-.58-2.14v-4.49h-1.28v-1.14h1.28v-2Z"/><path class="cls-26" d="M268.89,436.07a7.36,7.36,0,0,1-3,.54c-3.23,0-5.66-2-5.66-5.8a5.7,5.7,0,0,1,6-6,6,6,0,0,1,2.72.51l-.36,1.2a5.42,5.42,0,0,0-2.31-.47c-2.68,0-4.47,1.71-4.47,4.72,0,2.81,1.62,4.61,4.4,4.61a5.92,5.92,0,0,0,2.42-.48Z"/><path class="cls-26" d="M278,432.26a4,4,0,0,1-4.1,4.37,3.91,3.91,0,0,1-3.94-4.24A4,4,0,0,1,274,428,3.89,3.89,0,0,1,278,432.26Zm-6.53.08c0,1.81,1,3.16,2.5,3.16s2.5-1.34,2.5-3.19c0-1.39-.7-3.16-2.47-3.16S271.43,430.78,271.43,432.34Z"/><path class="cls-26" d="M283.57,431.29v1.1h-4.2v-1.1Z"/><path class="cls-26" d="M293.61,436.07a7.36,7.36,0,0,1-3,.54c-3.23,0-5.66-2-5.66-5.8a5.7,5.7,0,0,1,6-6,6,6,0,0,1,2.72.51l-.36,1.2A5.42,5.42,0,0,0,291,426c-2.69,0-4.47,1.71-4.47,4.72,0,2.81,1.61,4.61,4.4,4.61a6,6,0,0,0,2.42-.48Z"/><path class="cls-26" d="M295.36,430.78c0-1,0-1.8-.06-2.57h1.3l.06,1.62h.06A2.47,2.47,0,0,1,299,428a1.45,1.45,0,0,1,.43.05v1.41a2,2,0,0,0-.51-.05,2.1,2.1,0,0,0-2,1.92,4.59,4.59,0,0,0-.07.69v4.39h-1.48Z"/><path class="cls-26" d="M301.59,432.6a2.63,2.63,0,0,0,2.82,2.85,5.43,5.43,0,0,0,2.28-.42l.25,1.07a6.66,6.66,0,0,1-2.74.51,3.82,3.82,0,0,1-4-4.15c0-2.48,1.46-4.43,3.86-4.43,2.68,0,3.4,2.36,3.4,3.87,0,.31,0,.55-.05.7Zm4.38-1.07a2.13,2.13,0,0,0-2.07-2.43,2.48,2.48,0,0,0-2.3,2.43Z"/><path class="cls-26" d="M313.83,436.44l-.12-1h0a3.07,3.07,0,0,1-2.52,1.23,2.35,2.35,0,0,1-2.52-2.37c0-2,1.77-3.07,4.95-3.06V431a1.69,1.69,0,0,0-1.87-1.9,4.15,4.15,0,0,0-2.14.61l-.34-1a5,5,0,0,1,2.7-.73c2.52,0,3.13,1.71,3.13,3.36v3.08a11.83,11.83,0,0,0,.13,2Zm-.23-4.2c-1.63,0-3.48.26-3.48,1.85a1.33,1.33,0,0,0,1.41,1.43,2.05,2.05,0,0,0,2-1.37,1.66,1.66,0,0,0,.08-.48Z"/><path class="cls-26" d="M319.2,425.85v2.36h2.14v1.14H319.2v4.44c0,1,.29,1.6,1.12,1.6a3.35,3.35,0,0,0,.87-.11l.06,1.13a3.8,3.8,0,0,1-1.32.2,2.08,2.08,0,0,1-1.62-.63,3.06,3.06,0,0,1-.57-2.14v-4.49h-1.28v-1.14h1.28v-2Z"/><path class="cls-26" d="M324.69,425.9a.93.93,0,0,1-1.85,0,.9.9,0,0,1,.93-.93A.88.88,0,0,1,324.69,425.9ZM323,436.44v-8.23h1.5v8.23Z"/><path class="cls-26" d="M334.45,432.26a4,4,0,0,1-4.1,4.37,3.91,3.91,0,0,1-3.94-4.24,4,4,0,0,1,4.07-4.36A3.89,3.89,0,0,1,334.45,432.26Zm-6.53.08c0,1.81,1,3.16,2.5,3.16s2.5-1.34,2.5-3.19c0-1.39-.7-3.16-2.47-3.16S327.92,430.78,327.92,432.34Z"/><path class="cls-26" d="M336.33,430.44c0-.85,0-1.55-.06-2.23h1.32l.09,1.36h0a3,3,0,0,1,2.72-1.54c1.14,0,2.91.68,2.91,3.5v4.91h-1.5V431.7c0-1.33-.49-2.43-1.9-2.43a2.12,2.12,0,0,0-2,1.53,2,2,0,0,0-.1.69v4.95h-1.5Z"/><path class="cls-26" d="M252.69,455a5.21,5.21,0,0,0,2.65.75c1.51,0,2.39-.8,2.39-2s-.61-1.68-2.15-2.28c-1.87-.66-3-1.63-3-3.24,0-1.79,1.48-3.11,3.71-3.11a5.19,5.19,0,0,1,2.53.56l-.41,1.2a4.61,4.61,0,0,0-2.18-.54c-1.56,0-2.15.93-2.15,1.72,0,1.07.69,1.59,2.27,2.21,1.94.74,2.93,1.68,2.93,3.36s-1.31,3.3-4,3.3a5.9,5.9,0,0,1-2.93-.73Z"/><path class="cls-26" d="M263,446.25v2.36h2.14v1.14H263v4.44c0,1,.29,1.6,1.12,1.6a3.35,3.35,0,0,0,.87-.11l.07,1.13a3.91,3.91,0,0,1-1.33.2,2,2,0,0,1-1.61-.63,3,3,0,0,1-.58-2.14v-4.49h-1.28v-1.14h1.28v-2Z"/><path class="cls-26" d="M271.35,456.84l-.12-1h-.05a3.05,3.05,0,0,1-2.51,1.23,2.35,2.35,0,0,1-2.52-2.37c0-2,1.77-3.07,5-3.06v-.17a1.69,1.69,0,0,0-1.87-1.9,4.16,4.16,0,0,0-2.15.61l-.34-1a5.05,5.05,0,0,1,2.71-.73c2.51,0,3.13,1.71,3.13,3.36v3.08a11.83,11.83,0,0,0,.13,2Zm-.22-4.2c-1.63,0-3.48.26-3.48,1.85a1.32,1.32,0,0,0,1.41,1.43,2.05,2.05,0,0,0,2-1.37,1.66,1.66,0,0,0,.08-.48Z"/><path class="cls-26" d="M275,451.18c0-1,0-1.8-.07-2.57h1.31l0,1.62h.07a2.45,2.45,0,0,1,2.28-1.8,1.34,1.34,0,0,1,.42.05v1.41a1.91,1.91,0,0,0-.51-.05,2.09,2.09,0,0,0-2,1.92,3.58,3.58,0,0,0-.07.69v4.39H275Z"/><path class="cls-26" d="M282.76,446.25v2.36h2.14v1.14h-2.14v4.44c0,1,.29,1.6,1.12,1.6a3.35,3.35,0,0,0,.87-.11l.06,1.13a3.8,3.8,0,0,1-1.32.2,2.08,2.08,0,0,1-1.62-.63,3.06,3.06,0,0,1-.57-2.14v-4.49H280v-1.14h1.28v-2Z"/><path class="cls-26" d="M287.31,453a2.64,2.64,0,0,0,2.83,2.85,5.35,5.35,0,0,0,2.27-.42l.26,1.07a6.66,6.66,0,0,1-2.74.51,3.82,3.82,0,0,1-4-4.15c0-2.48,1.46-4.43,3.85-4.43,2.69,0,3.4,2.36,3.4,3.87a5.09,5.09,0,0,1-.05.7Zm4.39-1.07a2.13,2.13,0,0,0-2.07-2.43,2.48,2.48,0,0,0-2.3,2.43Z"/><path class="cls-26" d="M295,451.18c0-1,0-1.8-.07-2.57h1.31l.05,1.62h.07a2.45,2.45,0,0,1,2.28-1.8,1.38,1.38,0,0,1,.42.05v1.41a2,2,0,0,0-.51-.05,2.09,2.09,0,0,0-2,1.92,3.58,3.58,0,0,0-.07.69v4.39H295Z"/><path class="cls-26" d="M304.21,445.52a17.12,17.12,0,0,1,2.84-.22,4.71,4.71,0,0,1,3.21.95,3.08,3.08,0,0,1,1,2.4,3.35,3.35,0,0,1-.89,2.44,4.7,4.7,0,0,1-3.5,1.26,4.85,4.85,0,0,1-1.19-.1v4.59h-1.48Zm1.48,5.52a4.69,4.69,0,0,0,1.22.12c1.79,0,2.88-.86,2.88-2.45s-1.07-2.24-2.71-2.24a6.1,6.1,0,0,0-1.39.12Z"/><path class="cls-26" d="M312.93,451.18c0-1,0-1.8-.06-2.57h1.3l.05,1.62h.07a2.47,2.47,0,0,1,2.28-1.8,1.45,1.45,0,0,1,.43.05v1.41a2,2,0,0,0-.51-.05,2.1,2.1,0,0,0-2,1.92,4.59,4.59,0,0,0-.07.69v4.39h-1.48Z"/><path class="cls-26" d="M325.77,452.66a4,4,0,0,1-4.1,4.37,3.91,3.91,0,0,1-3.94-4.24,4,4,0,0,1,4.08-4.36A3.89,3.89,0,0,1,325.77,452.66Zm-6.53.08c0,1.81,1,3.17,2.5,3.17s2.5-1.35,2.5-3.2c0-1.39-.7-3.16-2.47-3.16S319.24,451.18,319.24,452.74Z"/><path class="cls-26" d="M325.65,459.22a2.42,2.42,0,0,0,1.63-.63c.41-.48.56-1.12.56-3.09v-6.89h1.5v7.46a4.53,4.53,0,0,1-1,3.39,3.8,3.8,0,0,1-2.55.93Zm3.86-12.92a.93.93,0,0,1-1.85,0,.91.91,0,0,1,.95-.93A.88.88,0,0,1,329.51,446.3Z"/><path class="cls-26" d="M332.62,453a2.63,2.63,0,0,0,2.82,2.85,5.4,5.4,0,0,0,2.28-.42l.25,1.07a6.56,6.56,0,0,1-2.73.51,3.82,3.82,0,0,1-4.05-4.15c0-2.48,1.46-4.43,3.86-4.43,2.69,0,3.4,2.36,3.4,3.87a5.09,5.09,0,0,1-.05.7Zm4.38-1.07a2.13,2.13,0,0,0-2.07-2.43,2.47,2.47,0,0,0-2.29,2.43Z"/><path class="cls-26" d="M346.17,456.53a5.42,5.42,0,0,1-2.37.48,3.9,3.9,0,0,1-4.09-4.2,4.18,4.18,0,0,1,4.42-4.37,4.9,4.9,0,0,1,2.07.43l-.34,1.15a3.52,3.52,0,0,0-1.73-.39,2.85,2.85,0,0,0-2.91,3.11,2.82,2.82,0,0,0,2.86,3.08,4.15,4.15,0,0,0,1.83-.41Z"/><path class="cls-26" d="M349.94,446.25v2.36h2.14v1.14h-2.14v4.44c0,1,.29,1.6,1.12,1.6a3.35,3.35,0,0,0,.87-.11l.07,1.13a3.91,3.91,0,0,1-1.33.2,2.06,2.06,0,0,1-1.61-.63,3,3,0,0,1-.58-2.14v-4.49H347.2v-1.14h1.28v-2Z"/></g></g></svg>