<svg xmlns="http://www.w3.org/2000/svg" viewBox="0 0 1208 1062.13"><defs><style>.cls-1{fill:#fff;}.cls-2{fill:#fbf068;}.cls-3{fill:#58be98;}.cls-4{fill:#231f20;}</style></defs><title>joinus</title><g id="Layer_2" data-name="Layer 2"><g id="Layer_1-2" data-name="Layer 1"><rect class="cls-1" width="1208" height="1062.13"/><rect class="cls-2" x="256.62" y="117.19" width="816.56" height="921.37"/><rect class="cls-3" x="204.54" y="66.22" width="816.56" height="921.37"/><path class="cls-4" d="M184.24,75.57a18,18,0,0,0,4.07,1.71,22.89,22.89,0,0,0,7.23,1,12.64,12.64,0,0,0,5.65-1.07,7.48,7.48,0,0,0,3.26-3.3,15.83,15.83,0,0,0,1.48-5.7c.22-2.31.34-5.07.34-8.26V29.05H222V60a90.2,90.2,0,0,1-.81,12.63,22.74,22.74,0,0,1-3.54,9.72,17.66,17.66,0,0,1-8,6.26q-5.28,2.22-14.08,2.22a27.62,27.62,0,0,1-14.75-3.76Z"/><path class="cls-4" d="M264,90.39a34.81,34.81,0,0,1-13.79-2.66,34,34,0,0,1-10.63-7,31.43,31.43,0,0,1-6.85-9.89,28.3,28.3,0,0,1-2.44-11.48,27.47,27.47,0,0,1,2.54-11.57A30.76,30.76,0,0,1,239.93,38a35,35,0,0,1,10.78-6.76,35.71,35.71,0,0,1,13.6-2.53,35,35,0,0,1,13.79,2.65,34,34,0,0,1,10.64,7,31.38,31.38,0,0,1,6.8,9.94,28.46,28.46,0,0,1,2.39,11.3,27.63,27.63,0,0,1-2.54,11.57,31.11,31.11,0,0,1-7,9.81A35.26,35.26,0,0,1,264,90.39ZM246.3,59.55a20.72,20.72,0,0,0,1.15,6.81,17.75,17.75,0,0,0,3.4,5.87,16.53,16.53,0,0,0,5.61,4.11,18.1,18.1,0,0,0,7.66,1.54A17.7,17.7,0,0,0,272,76.25,16.61,16.61,0,0,0,277.53,72a17.71,17.71,0,0,0,3.3-5.91,21,21,0,0,0,1.11-6.72,20.72,20.72,0,0,0-1.15-6.81,16.66,16.66,0,0,0-9.06-9.86,18.39,18.39,0,0,0-7.61-1.49,17.88,17.88,0,0,0-7.81,1.58,16.94,16.94,0,0,0-8.91,10A21.23,21.23,0,0,0,246.3,59.55Z"/><path class="cls-4" d="M307,89.87V29.05h15.71V89.87Z"/><path class="cls-4" d="M351.47,55.09V89.87H335.76V29.05H348l31.71,35.72V29.05h15.71V89.87H382.79Z"/><path class="cls-4" d="M460,77.88a14.12,14.12,0,0,0,6.8-1.5,12.78,12.78,0,0,0,4.51-4,16.07,16.07,0,0,0,2.44-5.7,29.88,29.88,0,0,0,.72-6.55V29.05h15.71v31.1A38.31,38.31,0,0,1,488.39,72a26.27,26.27,0,0,1-5.46,9.59A25.33,25.33,0,0,1,473.55,88,35.41,35.41,0,0,1,460,90.39a34.82,34.82,0,0,1-13.88-2.49,25.27,25.27,0,0,1-9.34-6.64,26.14,26.14,0,0,1-5.27-9.63,39,39,0,0,1-1.68-11.48V29.05h15.71v31.1a28.37,28.37,0,0,0,.77,6.68,16.62,16.62,0,0,0,2.49,5.65,12.44,12.44,0,0,0,4.45,3.94A14.1,14.1,0,0,0,460,77.88Z"/><path class="cls-4" d="M543.13,46.87a9.42,9.42,0,0,0-2-1.29,41.89,41.89,0,0,0-4.31-2,44.74,44.74,0,0,0-5.65-1.79A24.77,24.77,0,0,0,525,41q-8.43,0-8.43,5.06a3.72,3.72,0,0,0,.91,2.57,8.06,8.06,0,0,0,2.68,1.84,27.48,27.48,0,0,0,4.46,1.5q2.69.69,6.22,1.54a89.15,89.15,0,0,1,8.82,2.61,24.68,24.68,0,0,1,6.65,3.52,14.45,14.45,0,0,1,4.22,5.09A16.08,16.08,0,0,1,552,72a16.52,16.52,0,0,1-2.15,8.69,17,17,0,0,1-5.7,5.74,25.47,25.47,0,0,1-8.14,3.17,45,45,0,0,1-9.49,1A57.77,57.77,0,0,1,518.9,90a60,60,0,0,1-7.66-1.5A65,65,0,0,1,504,86.19,41.82,41.82,0,0,1,497.54,83l6.9-12.25a12.79,12.79,0,0,0,2.49,1.63,38.54,38.54,0,0,0,5.22,2.4,57.81,57.81,0,0,0,6.94,2.14,32.31,32.31,0,0,0,7.76.94q8.34,0,8.33-4.54a3.64,3.64,0,0,0-1.24-2.83,12,12,0,0,0-3.45-2,39.88,39.88,0,0,0-5.22-1.67c-2-.51-4.2-1.09-6.56-1.71a61.28,61.28,0,0,1-8.14-2.79,21.59,21.59,0,0,1-5.7-3.47,12.45,12.45,0,0,1-3.35-4.54,15,15,0,0,1-1.11-6,17.4,17.4,0,0,1,2-8.48,18.8,18.8,0,0,1,5.46-6.22,25,25,0,0,1,8-3.81,35.61,35.61,0,0,1,9.63-1.28,40.72,40.72,0,0,1,7,.6,57,57,0,0,1,6.61,1.54A50.59,50.59,0,0,1,545,32.82q2.73,1.2,5,2.4Z"/><path class="cls-4" d="M565.16,68.88a24,24,0,0,1,.29-3.76,12.31,12.31,0,0,1,1.1-3.47,10.85,10.85,0,0,1,2.35-3.13,15.67,15.67,0,0,1,4-2.66l3.31-1.58a34.92,34.92,0,0,0,4-2.27,16,16,0,0,0,3.4-3,5.55,5.55,0,0,0,1.44-3.72,5.05,5.05,0,0,0-2.3-4.41,9,9,0,0,0-5.27-1.59,8.63,8.63,0,0,0-3.4.64,13.23,13.23,0,0,0-2.68,1.55,10.63,10.63,0,0,0-2.06,2l-1.53,2L558,39.33a17.86,17.86,0,0,1,7.9-8.14,25.38,25.38,0,0,1,12.21-2.91,29.26,29.26,0,0,1,7.28.94,19.55,19.55,0,0,1,6.52,3,15.44,15.44,0,0,1,6.51,13.19,14.15,14.15,0,0,1-2.25,8.18,19.38,19.38,0,0,1-6.66,5.79,41.71,41.71,0,0,1-4.07,2.14,39.1,39.1,0,0,0-3.78,2,10.28,10.28,0,0,0-2.78,2.31,4.73,4.73,0,0,0-1.05,3.08Zm.29,21V77H578V89.87Z"/></g></g></svg>