<svg xmlns="http://www.w3.org/2000/svg" viewBox="0 0 158.97 107.64"><defs><style>.cls-1{fill:#1a976c;stroke-linecap:round;stroke-linejoin:round;}.cls-1,.cls-2,.cls-3,.cls-4,.cls-5,.cls-6{stroke:#231f20;stroke-width:0.25px;}.cls-2{fill:#57bf99;}.cls-2,.cls-3,.cls-4,.cls-5,.cls-6{stroke-miterlimit:10;}.cls-3{fill:#0988ae;}.cls-4{fill:#b89f30;}.cls-5{fill:#2aa7df;}.cls-6{fill:#f9ed1f;}</style></defs><title>strategy</title><g id="Layer_2" data-name="Layer 2"><g id="Layer_1-2" data-name="Layer 1"><path class="cls-1" d="M140.78,16.87H110V10.26a6.75,6.75,0,0,0-6.75-6.75H58.45a6.76,6.76,0,0,0-6.75,6.75v6.61H20.9A18.06,18.06,0,0,0,2.84,34.94V89.46A18.05,18.05,0,0,0,20.9,107.52H140.78a18.06,18.06,0,0,0,18.07-18.06V34.94A18.07,18.07,0,0,0,140.78,16.87Zm-36.26,0H57.16V12.21A2.79,2.79,0,0,1,60,9.43h41.78a2.79,2.79,0,0,1,2.79,2.78Z"/><path class="cls-2" d="M138.07,13.49h-30.8V6.87A6.75,6.75,0,0,0,100.52.12H55.74A6.76,6.76,0,0,0,49,6.87v6.62H18.19A18.06,18.06,0,0,0,.12,31.55V86.07a18.06,18.06,0,0,0,18.07,18.06H138.07a18.06,18.06,0,0,0,18.07-18.06V31.55A18.06,18.06,0,0,0,138.07,13.49Zm-36.26,0H54.45V8.83A2.79,2.79,0,0,1,57.24,6H99a2.79,2.79,0,0,1,2.79,2.79Z"/><circle class="cls-3" cx="76.7" cy="81.5" r="8.03"/><circle class="cls-3" cx="136.17" cy="41.3" r="8.03"/><circle class="cls-3" cx="43.2" cy="50.25" r="8.03"/><path class="cls-4" d="M125.3,59.86,123.86,70a1.39,1.39,0,0,1-1.37,1.18h-.2l-10.16-1.45a1.38,1.38,0,0,1,.39-2.74l6.71,1c-.54-.59-1.22-1.29-2-2A39.05,39.05,0,0,0,107,59c-11.81-5.49-24.8-4.15-38.61,4-7.58,4.47-18.08,9-29.28,9a37.76,37.76,0,0,1-11.06-1.6A32,32,0,0,1,14,62.11a1.39,1.39,0,0,1,2.09-1.82,29.87,29.87,0,0,0,13,7.52c11.18,3.33,24.32.83,38-7.2,10.1-6,25.46-11.48,41.29-4.06a42,42,0,0,1,13.28,9.88l1-7a1.38,1.38,0,1,1,2.73.39Z"/><path class="cls-3" d="M134.61,89.09a1.38,1.38,0,0,1-1,2.36,1.38,1.38,0,0,1-1-.4l-6.28-6.28-6.28,6.28a1.38,1.38,0,0,1-1,.4,1.38,1.38,0,0,1-1-2.36l6.28-6.28-6.28-6.28a1.36,1.36,0,0,1,0-2,1.38,1.38,0,0,1,1.95,0l6.28,6.28,6.28-6.28a1.38,1.38,0,0,1,2,0,1.36,1.36,0,0,1,0,2l-6.28,6.28Z"/><path class="cls-5" d="M133.94,87.73a1.39,1.39,0,0,1-2,2l-6.28-6.28-6.28,6.28a1.39,1.39,0,0,1-2,0,1.39,1.39,0,0,1,0-2l6.28-6.27-6.28-6.28a1.38,1.38,0,1,1,2-2l6.28,6.29L132,73.22a1.39,1.39,0,0,1,2,2l-6.29,6.28Z"/><path class="cls-4" d="M14,30.8h-.26A1.38,1.38,0,0,1,14.06,28l.12,0A1.38,1.38,0,0,1,14,30.8Z"/><path class="cls-4" d="M21.52,31.17a1.38,1.38,0,0,1,0-2.76h.22a1.37,1.37,0,0,1,1.42,1.34,1.39,1.39,0,0,1-1.35,1.42h-.26Zm-3.65-.05h-.3a1.38,1.38,0,1,1,.15-2.76h.2a1.38,1.38,0,0,1-.05,2.76Z"/><path class="cls-4" d="M82.6,50.29a1.39,1.39,0,0,1-1.25-.79l-.09-.19a1.38,1.38,0,1,1,2.49-1.21l.1.22a1.38,1.38,0,0,1-.65,1.84A1.44,1.44,0,0,1,82.6,50.29Zm-1.84-3.41a1.39,1.39,0,0,1-1.19-.67L79.46,46a1.38,1.38,0,1,1,2.36-1.43l.12.2a1.38,1.38,0,0,1-.47,1.89A1.32,1.32,0,0,1,80.76,46.88ZM78.6,43.66a1.38,1.38,0,0,1-1.12-.57l-.12-.17a1.38,1.38,0,0,1,2.21-1.66l.14.2a1.38,1.38,0,0,1-.3,1.93A1.36,1.36,0,0,1,78.6,43.66Zm-2.45-3a1.4,1.4,0,0,1-1-.45L75,40a1.38,1.38,0,0,1,2-1.87l.16.17a1.4,1.4,0,0,1-.09,2A1.38,1.38,0,0,1,76.15,40.65Zm-2.74-2.74a1.41,1.41,0,0,1-.92-.35l-.17-.16a1.38,1.38,0,0,1-.11-1.95,1.4,1.4,0,0,1,2-.11l.16.16a1.38,1.38,0,0,1-.92,2.41Zm-3-2.45a1.36,1.36,0,0,1-.81-.27l-.18-.13A1.38,1.38,0,0,1,71,32.82l.2.14a1.38,1.38,0,0,1-.82,2.5Zm-3.24-2.12a1.37,1.37,0,0,1-.7-.19l-.19-.1a1.38,1.38,0,0,1,1.37-2.4l.21.12a1.38,1.38,0,0,1-.69,2.57Zm-3.46-1.75a1.38,1.38,0,0,1-.56-.12l-.2-.09a1.38,1.38,0,0,1,1.1-2.53l.23.1a1.38,1.38,0,0,1,.7,1.82A1.4,1.4,0,0,1,63.71,31.59ZM25.39,31a1.38,1.38,0,0,1-.11-2.76l.22,0A1.38,1.38,0,1,1,25.74,31l-.24,0Zm3.85-.42a1.37,1.37,0,0,1-1.36-1.19,1.39,1.39,0,0,1,1.18-1.56l.21,0a1.38,1.38,0,1,1,.4,2.74l-.24,0Zm30.85-.36a1.58,1.58,0,0,1-.42-.06l-.21-.07a1.39,1.39,0,1,1,.84-2.64l.22.07a1.4,1.4,0,0,1,.89,1.74A1.38,1.38,0,0,1,60.09,30.21Zm-27-.25a1.38,1.38,0,0,1-.25-2.74l.22,0a1.38,1.38,0,0,1,.51,2.72l-.22,0A1.14,1.14,0,0,1,33.07,30Zm3.8-.74a1.38,1.38,0,0,1-.24-2.74l.23,0a1.38,1.38,0,1,1,.48,2.72l-.22,0Zm19.48,0-.29,0-.2,0a1.38,1.38,0,1,1,.55-2.71l.23.05a1.38,1.38,0,0,1-.29,2.73Zm-15.64-.56a1.39,1.39,0,0,1-.16-2.76l.23,0a1.38,1.38,0,1,1,.31,2.74l-.22,0Zm11.83-.07h-.18l-.21,0a1.38,1.38,0,1,1,.31-2.75l.24,0a1.38,1.38,0,0,1-.16,2.75Zm-8-.25a1.39,1.39,0,0,1-.07-2.77h.23a1.38,1.38,0,0,1,1.44,1.32,1.36,1.36,0,0,1-1.31,1.44h-.29Zm4.1,0h-.26a1.38,1.38,0,0,1-1.35-1.41,1.41,1.41,0,0,1,1.42-1.35h.24a1.38,1.38,0,0,1,0,2.76Z"/><path class="cls-4" d="M84,53.79a1.39,1.39,0,0,1-1.32-1A1.41,1.41,0,0,1,83.58,51a1.35,1.35,0,0,1,1.74.83l.05.15A1.39,1.39,0,0,1,84,53.79Z"/><path class="cls-6" d="M13.65,30h-.26a1.38,1.38,0,0,1,.3-2.75l.12,0A1.38,1.38,0,0,1,13.65,30Z"/><path class="cls-6" d="M21.16,30.35a1.39,1.39,0,0,1,0-2.77h.22a1.37,1.37,0,0,1,1.42,1.34,1.39,1.39,0,0,1-1.35,1.42h-.26Zm-3.65-.05h-.3a1.38,1.38,0,1,1,.14-2.76h.21a1.39,1.39,0,0,1,0,2.77Z"/><path class="cls-6" d="M82.24,49.47A1.39,1.39,0,0,1,81,48.68l-.09-.2a1.38,1.38,0,0,1,2.48-1.21l.11.22a1.4,1.4,0,0,1-1.25,2ZM80.4,46.05a1.37,1.37,0,0,1-1.19-.67l-.12-.19a1.38,1.38,0,0,1,2.37-1.43l.12.2a1.39,1.39,0,0,1-.47,1.9A1.43,1.43,0,0,1,80.4,46.05Zm-2.16-3.22a1.38,1.38,0,0,1-1.12-.57L77,42.09a1.38,1.38,0,1,1,2.21-1.65l.14.19a1.38,1.38,0,0,1-.3,1.93A1.36,1.36,0,0,1,78.24,42.83Zm-2.45-3a1.41,1.41,0,0,1-1-.46l-.15-.16a1.38,1.38,0,0,1,2-1.87l.16.18a1.38,1.38,0,0,1-.1,1.95A1.35,1.35,0,0,1,75.79,39.83Zm-2.74-2.75a1.39,1.39,0,0,1-.92-.35L72,36.58a1.38,1.38,0,1,1,1.84-2.06l.17.15a1.38,1.38,0,0,1-.92,2.41Zm-3-2.45a1.41,1.41,0,0,1-.82-.27l-.17-.12A1.38,1.38,0,0,1,70.67,32l.19.14a1.38,1.38,0,0,1,.3,1.93A1.35,1.35,0,0,1,70.05,34.63ZM66.8,32.52a1.36,1.36,0,0,1-.69-.19l-.19-.11a1.38,1.38,0,0,1,1.37-2.4l.21.12a1.38,1.38,0,0,1-.7,2.58Zm-3.45-1.76a1.38,1.38,0,0,1-.56-.12l-.2-.08A1.38,1.38,0,0,1,63.69,28l.23.1a1.38,1.38,0,0,1-.57,2.64ZM25,30.16a1.38,1.38,0,0,1-.11-2.76l.22,0a1.36,1.36,0,0,1,1.49,1.26,1.38,1.38,0,0,1-1.25,1.5l-.24,0Zm3.85-.41A1.38,1.38,0,0,1,28.7,27l.21,0a1.38,1.38,0,1,1,.4,2.73l-.24,0Zm30.85-.37a1.52,1.52,0,0,1-.42-.06l-.21-.07a1.38,1.38,0,1,1,.83-2.63l.23.07a1.38,1.38,0,0,1-.43,2.69Zm-27-.24A1.4,1.4,0,0,1,31.35,28a1.38,1.38,0,0,1,1.11-1.61l.22,0a1.38,1.38,0,1,1,.51,2.71l-.22,0Zm3.8-.75a1.38,1.38,0,0,1-.24-2.74l.23,0A1.38,1.38,0,0,1,37,28.33l-.23,0A1,1,0,0,1,36.51,28.39Zm19.48,0-.29,0-.21-.05A1.38,1.38,0,1,1,56,25.6l.24,0A1.39,1.39,0,0,1,56,28.39Zm-15.64-.57a1.38,1.38,0,0,1-.16-2.75l.23,0a1.38,1.38,0,1,1,.31,2.75l-.23,0Zm11.82-.07H52l-.21,0A1.38,1.38,0,1,1,52.1,25l.24,0a1.38,1.38,0,0,1-.17,2.75Zm-8-.25a1.38,1.38,0,0,1-.07-2.76h.23a1.38,1.38,0,0,1,.13,2.76h-.29Zm4.1,0h-.26A1.39,1.39,0,0,1,46.7,26a1.42,1.42,0,0,1,1.42-1.35h.24a1.39,1.39,0,0,1,0,2.77Z"/><path class="cls-6" d="M83.68,53a1.38,1.38,0,0,1-1.32-1,1.4,1.4,0,0,1,.86-1.78A1.34,1.34,0,0,1,85,51l0,.14a1.38,1.38,0,0,1-.92,1.72A1.44,1.44,0,0,1,83.68,53Z"/><rect class="cls-3" x="92.29" y="27.41" width="12.65" height="12.65"/><rect class="cls-3" x="14.8" y="79.04" width="12.65" height="12.65"/><circle class="cls-5" cx="74.67" cy="79.47" r="8.03"/><circle class="cls-5" cx="134.14" cy="39.27" r="8.03"/><circle class="cls-5" cx="41.16" cy="48.22" r="8.03"/><rect class="cls-5" x="90.26" y="25.38" width="12.65" height="12.65"/><rect class="cls-5" x="12.77" y="77.01" width="12.65" height="12.65"/><path class="cls-6" d="M124,57.83,122.5,68a1.38,1.38,0,0,1-1.36,1.19l-.2,0-10.17-1.45a1.38,1.38,0,1,1,.4-2.73l6.71,1c-.55-.59-1.22-1.28-2-2A39.63,39.63,0,0,0,105.66,57c-11.81-5.48-24.79-4.14-38.6,4C59.47,65.42,49,70,37.77,70a38.19,38.19,0,0,1-11.06-1.6,32.07,32.07,0,0,1-14.07-8.3,1.39,1.39,0,0,1,2.08-1.83,29.79,29.79,0,0,0,13,7.53c11.19,3.32,24.33.83,38-7.21,10.1-5.94,25.46-11.47,41.29-4a41.8,41.8,0,0,1,13.28,9.88l1-7a1.38,1.38,0,0,1,2.73.39Z"/></g></g></svg>