<svg xmlns="http://www.w3.org/2000/svg" viewBox="0 0 171.07 130.28"><defs><style>.cls-1{fill:#b89f31;}.cls-1,.cls-2,.cls-3,.cls-4,.cls-5,.cls-6{stroke:#231f20;stroke-width:0.25px;}.cls-1,.cls-2,.cls-3,.cls-5,.cls-6{stroke-miterlimit:10;}.cls-2{fill:#0288ad;}.cls-3{fill:#1c996a;}.cls-4{fill:#57bf9b;stroke-linecap:round;stroke-linejoin:round;}.cls-5{fill:#fcee1f;}.cls-6{fill:#29abe2;}</style></defs><title>techdev</title><g id="Layer_2" data-name="Layer 2"><g id="Layer_1-2" data-name="Layer 1"><path class="cls-1" d="M165.18,47.15V111.5H27.1L24.58,109l2.52-1.3V82c.18-.1.35-.22.53-.34l3-2.07.6,6c.24,1.33,1.39,1.6,1.62,3,.7,4,6.67,3.8,10.66,4.08,1.25.09,2.56.13,4.12.13l1.89,0c5.22-.08,8.65-3.13,9.42-8.33.16-1.07.34-2.14.52-3.19l4.19-1.7,1.47,1c.63.46,1.26.9,1.91,1.33a9.34,9.34,0,0,0,5.17,1.61,9,9,0,0,0,6.27-2.6c1.14-1.09,2.28-2.22,3.51-3.46,3.6-3.66,4-8,1-12.26-.68-1-1.37-2-2-2.92l1.74-4.14.75-.14,1.29-.22c.64-.1,1.29-.21,1.93-.33a9,9,0,0,0,7.47-9v-5a9.09,9.09,0,0,0-2.25-6.25h63.32A10,10,0,0,1,165.18,47.15Z"/><path class="cls-2" d="M21.33,118H170.95a0,0,0,0,1,0,0v0a12.17,12.17,0,0,1-12.17,12.17H33.5A12.17,12.17,0,0,1,21.33,118v0A0,0,0,0,1,21.33,118Z"/><path class="cls-3" d="M84,36.63c-2.07-.42-4.15-.76-6.09-1.11-1.15-2.7-2.24-5.28-3.42-8l3.4-4.7c1.82-2.56,1.65-4.69-.57-6.91-1.07-1.09-2.2-2.15-3.31-3.22a5.19,5.19,0,0,0-6.93-.56l-4.85,3.26c-2.63-1-5-1.89-7.39-2.73a1.56,1.56,0,0,1-1.17-1.42c-.27-1.82-.58-3.64-1-5.45a4.11,4.11,0,0,0-3.62-3.47,41,41,0,0,0-7.51-.12C39.1,2.38,37.72,4,37.3,6.41c-.34,2-.7,4-1,5.78L28,15.44l-2.43-1.63c-.89-.6-1.77-1.23-2.66-1.81a5.19,5.19,0,0,0-6.64.61c-1.14,1.08-2.28,2.17-3.4,3.29-2.19,2.19-2.38,4.42-.61,6.91l3.36,4.7c-1.18,2.77-2.32,5.39-3.47,8.06-2,.35-4,.69-6,1.06a4.9,4.9,0,0,0-4.33,5c0,1.52,0,3,0,4.55,0,3,1.61,4.84,4.72,5.35,2,.31,3.91.68,5.66,1,1.19,2.75,2.3,5.33,3.46,8-1.09,1.49-2.28,3.08-3.45,4.7A4.74,4.74,0,0,0,12.71,72c1.13,1.11,2.27,2.19,3.41,3.3a5.15,5.15,0,0,0,7,.58c1.65-1.12,3.32-2.25,4.77-3.21l8.31,3.24c.36,2,.75,4,1.12,6.11a4.69,4.69,0,0,0,4.32,3.9c1.9.13,3.8.13,5.71.09,3.33-.06,5.06-1.6,5.56-4.8.29-1.83.61-3.64.91-5.36l8.32-3.27c.76.5,1.61,1.07,2.46,1.66s1.75,1.21,2.67,1.78a5.07,5.07,0,0,0,6.52-.53c1.15-1.07,2.29-2.17,3.41-3.27,2.26-2.24,2.44-4.45.61-7-1.13-1.58-2.27-3.17-3.32-4.62,1.18-2.73,2.28-5.31,3.42-8l2.94-.53c1.06-.18,2.13-.34,3.2-.54a4.86,4.86,0,0,0,4.24-5c0-1.64,0-3.27,0-4.92C88.29,38.91,86.84,37.17,84,36.63ZM46.11,71A27.53,27.53,0,1,1,73.63,43.43,27.54,27.54,0,0,1,46.11,71Z"/><path class="cls-4" d="M82.4,34.68c-2.07-.41-4.15-.75-6.09-1.1-1.15-2.69-2.25-5.28-3.43-8,1.07-1.48,2.25-3.08,3.41-4.7,1.82-2.55,1.65-4.68-.57-6.91-1.08-1.09-2.2-2.14-3.31-3.21a5.19,5.19,0,0,0-6.93-.56l-4.85,3.25c-2.63-1-5-1.89-7.39-2.72a1.55,1.55,0,0,1-1.17-1.43c-.27-1.82-.59-3.64-1-5.44A4.11,4.11,0,0,0,47.43.36a41.77,41.77,0,0,0-7.5-.12C37.48.43,36.1,2,35.68,4.46c-.34,2-.7,4-1,5.78l-8.3,3.26-2.43-1.64c-.9-.59-1.77-1.22-2.66-1.8a5.19,5.19,0,0,0-6.64.6c-1.15,1.08-2.29,2.18-3.4,3.3-2.19,2.19-2.38,4.42-.61,6.91,1.15,1.63,2.32,3.24,3.36,4.69l-3.47,8.07c-2,.34-4,.69-6,1.06a4.92,4.92,0,0,0-4.33,5c0,1.52,0,3,0,4.55,0,3,1.63,4.84,4.73,5.34,2,.32,3.9.68,5.66,1,1.19,2.74,2.3,5.33,3.46,8-1.1,1.48-2.29,3.08-3.45,4.7A4.73,4.73,0,0,0,11.09,70c1.12,1.11,2.26,2.2,3.41,3.3a5.11,5.11,0,0,0,7,.58l4.77-3.21L34.6,74c.36,2,.75,4,1.11,6.1A4.69,4.69,0,0,0,40,84c1.89.13,3.8.13,5.7.1,3.33-.06,5.08-1.61,5.57-4.81.28-1.82.61-3.64.91-5.35,2.81-1.11,5.52-2.18,8.32-3.27L63,72.28c.88.6,1.76,1.22,2.66,1.79a5.07,5.07,0,0,0,6.52-.54c1.16-1.06,2.3-2.16,3.42-3.27,2.25-2.23,2.44-4.44.6-7-1.13-1.58-2.27-3.17-3.32-4.62,1.18-2.73,2.29-5.32,3.43-8,.91-.16,1.92-.36,2.93-.53s2.14-.33,3.21-.54a4.86,4.86,0,0,0,4.23-5c0-1.64,0-3.28,0-4.93C86.67,37,85.22,35.22,82.4,34.68ZM50.33,48.58C42.53,56.26,31,57.19,28,57.31V28L53,45.45A24,24,0,0,1,50.33,48.58Zm7.68-10V57.32H37.39a31.93,31.93,0,0,0,14-7.69A26,26,0,0,0,58,38.54ZM58,28c0,6.4-1.42,11.84-4.19,16.27L29.61,27.32H58Z"/><path class="cls-5" d="M162.65,44.63V109H24.57V79.5c.18-.1.35-.22.53-.34l3-2.06,4.2,1.7c.24,1.34.48,2.69.71,4a8.76,8.76,0,0,0,8,7.29c1.25.09,2.56.13,4.12.13l1.9,0c5.21-.08,8.64-3.13,9.41-8.33.17-1.07.35-2.15.53-3.2L61.09,77l1.47,1c.63.45,1.26.89,1.91,1.32A9.3,9.3,0,0,0,69.64,81a9,9,0,0,0,6.27-2.61c1.15-1.08,2.29-2.21,3.51-3.45,3.6-3.66,4-8,1-12.26l-2-2.93,1.73-4.13.75-.14,1.29-.22c.64-.1,1.29-.21,1.93-.33a9,9,0,0,0,7.47-9V40.87a9.09,9.09,0,0,0-2.25-6.25h63.32A10,10,0,0,1,162.65,44.63Z"/><path class="cls-6" d="M18.81,115.46H168.42a0,0,0,0,1,0,0v0a12.17,12.17,0,0,1-12.17,12.17H31a12.17,12.17,0,0,1-12.17-12.17v0a0,0,0,0,1,0,0Z"/></g></g></svg>