<?xml version="1.0" encoding="utf-8"?>
<!-- Generator: Adobe Illustrator 22.1.0, SVG Export Plug-In . SVG Version: 6.00 Build 0)  -->
<svg version="1.1" id="Layer_1" xmlns="http://www.w3.org/2000/svg" xmlns:xlink="http://www.w3.org/1999/xlink" x="0px" y="0px"
	 viewBox="0 0 24 24" style="enable-background:new 0 0 24 24;" xml:space="preserve">
<path class="st0" d="M19,0H5C2.2,0,0,2.2,0,5v14c0,2.8,2.2,5,5,5h14c2.8,0,5-2.2,5-5V5C24,2.2,21.8,0,19,0z M19.2,10.7
	c-1.6,3.5-5.6,8.2-8,8.2c-2.4,0-2.8-5.2-4.1-8.7C6.4,8.5,6,8.9,4.8,9.8L4,8.8c1.8-1.6,3.6-3.4,4.7-3.5c1.2-0.1,2,0.7,2.3,2.6
	c0.4,2.4,0.9,6.1,1.8,6.1c0.7,0,2.5-2.9,2.6-4c0.2-1.5-1.1-1.6-2.3-1.1C14.9,3,22.4,4.1,19.2,10.7z"/>
</svg>
