<svg id="Layer_1" data-name="Layer 1" xmlns="http://www.w3.org/2000/svg" viewBox="0 0 383.96 69.13"><defs><style>.cls-1{fill:#231f20;}.cls-2{fill:#57bf9b;}.cls-3{fill:#fcee21;}.cls-4{fill:#29abe2;}</style></defs><title>yurgosky</title><path class="cls-1" d="M171.85,305l14.59,21.62L201.14,305h3.29L188,329.27V344h-3V329.16L168.55,305Z" transform="translate(-78.28 -289.75)"/><path class="cls-1" d="M238.25,324.6V305h3V324.6c0,10.44-4.59,19.68-17.41,19.68-13.23,0-17.41-9.79-17.41-19.68V305h3V324.6c0,8.63,3.24,17.1,14.35,17.1C235.14,341.7,238.25,333,238.25,324.6Z" transform="translate(-78.28 -289.75)"/><path class="cls-1" d="M245.24,344V305h17.41a12.35,12.35,0,0,1,12.12,12.1A11.62,11.62,0,0,1,265,328.83L275.36,344h-3.47l-10.12-14.74H248.24V344Zm3-17.32h14.65c5.41,0,8.88-4.73,8.88-9.63a9.63,9.63,0,0,0-9.29-9.57H248.24Z" transform="translate(-78.28 -289.75)"/><path class="cls-1" d="M311.15,338c-4.06,4.23-8.76,6.32-14,6.32-11.35,0-19.59-10-19.59-19.85,0-10.34,8.06-19.74,19.18-19.74,8.41,0,13.29,3.52,15.94,8.52l-2.41,1.38c-2.89-5.12-7.71-7.32-13.59-7.32-9.88,0-16.12,8.58-16.12,17.22,0,9.18,7.36,17.21,16.77,17.21,5.06,0,9.53-2.15,13.82-6.82v-7.59h-9.47V325H313.8v19h-2.65Z" transform="translate(-78.28 -289.75)"/><path class="cls-1" d="M317.44,324.49c0-10.4,8.47-19.8,19.59-19.8,11.59,0,19.47,10.06,19.47,19.8A19.72,19.72,0,0,1,337,344.28C325.38,344.23,317.44,334.49,317.44,324.49ZM337,341.7c10,0,16.53-8.74,16.53-17.21,0-9-7-17.22-16.53-17.22-10,0-16.53,8.69-16.53,17.22C320.44,333.45,327.26,341.7,337,341.7Z" transform="translate(-78.28 -289.75)"/><path class="cls-1" d="M385.41,311.45c-2.71-2.8-6.47-4.23-11.47-4.23-8.18,0-11.7,3.13-11.7,8s3.7,6.32,12.23,8c9.06,1.82,14.7,3.85,14.7,10.78s-6.05,10.34-14.94,10.34a24.37,24.37,0,0,1-16.52-5.83l1.58-2.26c3.47,3.41,8.71,5.61,15.06,5.61,7.24,0,11.65-2.53,11.65-7.53,0-5.17-4.3-6.93-13.06-8.69-8.94-1.76-13.76-3.63-13.76-10,0-7,6-10.94,14.76-10.94,5.41,0,9.59,1.54,13,4.56Z" transform="translate(-78.28 -289.75)"/><path class="cls-1" d="M393.47,344V305h3v23.65L420.82,305h3.47l-17.35,17.11L425.17,344h-3.41L405,323.77,396.47,332V344Z" transform="translate(-78.28 -289.75)"/><path class="cls-1" d="M429.66,305l14.58,21.62L459,305h3.29l-16.47,24.31V344h-3V329.16L426.36,305Z" transform="translate(-78.28 -289.75)"/><path class="cls-2" d="M130.05,339c-9.45,9.3-21.67,13.86-30.88,17H145V314.66C141,324.07,136.78,332.4,130.05,339Z" transform="translate(-78.28 -289.75)"/><path class="cls-3" d="M145,292H82.85l52.87,36.7c6.05-9.65,9.28-21.6,9.28-35.5Z" transform="translate(-78.28 -289.75)"/><path class="cls-4" d="M81,293.14v63c6-.24,31.16-2.24,47.95-18.78a51.67,51.67,0,0,0,5.76-6.71Z" transform="translate(-78.28 -289.75)"/><path class="cls-1" d="M78.28,289.75v69.13h69.14V289.75Zm3.1,4.52,52.44,36.62a50.39,50.39,0,0,1-5.59,6.55c-16.39,16.14-40.59,18.09-46.85,18.32Zm62.94,61.52H101.08c8.88-2.45,20.19-7.15,29.3-16.13a54.44,54.44,0,0,0,13.94-23.26Zm-8.77-27.47-50.8-35.47h59.57v1.33C144.32,307.59,141.38,319,135.55,328.32Z" transform="translate(-78.28 -289.75)"/></svg>